<svg xmlns="http://www.w3.org/2000/svg" xmlns:xlink="http://www.w3.org/1999/xlink" width="500" zoomAndPan="magnify" viewBox="0 0 375 374.999991" height="500" preserveAspectRatio="xMidYMid meet" version="1.0"><path fill="#ffdc5d" d="M 218.75 145.832031 C 221.386719 186.355469 255.425781 218.425781 296.875 218.425781 C 338.324219 218.425781 372.363281 186.355469 375 145.832031 L 375 41.667969 L 218.75 41.667969 Z M 218.75 145.832031 " fill-opacity="1" fill-rule="nonzero"/><path fill="#ffac33" d="M 375 226.582031 L 375 145.832031 C 372.363281 186.355469 338.324219 218.425781 296.875 218.425781 C 255.425781 218.425781 221.386719 186.355469 218.75 145.832031 L 218.75 100.65625 C 274.25 99.042969 307.394531 76.25 325.386719 57.105469 C 329.707031 72.46875 341.675781 93.75 375 93.75 L 375 19.792969 C 365.300781 12.613281 352.96875 8.40625 338.9375 8.40625 C 335.46875 8.40625 332.09375 8.761719 328.792969 9.34375 C 316.59375 3.417969 306.144531 0 291.667969 0 C 240.550781 0 197.917969 42.636719 197.917969 93.75 L 197.917969 166.667969 C 198.582031 190.1875 206.957031 211.980469 220.644531 229.167969 L 250 250 L 343.75 250 L 373.105469 229.167969 C 373.769531 228.332031 374.363281 227.4375 375 226.582031 Z M 375 226.582031 " fill-opacity="1" fill-rule="nonzero"/><path fill="#9268ca" d="M 373.105469 229.167969 L 218.75 229.167969 C 197.917969 229.167969 187.5 239.582031 187.5 260.136719 L 187.5 375 L 375 375 L 375 229.167969 Z M 373.105469 229.167969 " fill-opacity="1" fill-rule="nonzero"/><path fill="#7450a8" d="M 218.605469 270.832031 L 229.3125 270.832031 L 229.3125 375 L 218.605469 375 Z M 218.605469 270.832031 " fill-opacity="1" fill-rule="nonzero"/><path fill="#ffdc5d" d="M 270.832031 197.917969 L 270.832031 229.167969 C 270.832031 243.550781 282.488281 255.207031 296.875 255.207031 C 311.261719 255.207031 322.917969 243.550781 322.917969 229.167969 L 322.917969 197.917969 Z M 270.832031 197.917969 " fill-opacity="1" fill-rule="nonzero"/><path fill="#da2f47" d="M 263.230469 185.09375 L 330.519531 185.09375 C 330.519531 185.09375 322.105469 201.925781 296.875 201.925781 C 271.644531 201.925781 263.230469 185.09375 263.230469 185.09375 Z M 263.230469 185.09375 " fill-opacity="1" fill-rule="nonzero"/><path fill="#bf6952" d="M 302.082031 161.457031 L 291.667969 161.457031 C 288.792969 161.457031 286.457031 159.125 286.457031 156.25 C 286.457031 153.375 288.792969 151.042969 291.667969 151.042969 L 302.082031 151.042969 C 304.957031 151.042969 307.292969 153.375 307.292969 156.25 C 307.292969 159.125 304.957031 161.457031 302.082031 161.457031 Z M 302.082031 161.457031 " fill-opacity="1" fill-rule="nonzero"/><path fill="#662113" d="M 260.417969 135.417969 C 254.65625 135.417969 250 130.75 250 125 L 250 114.582031 C 250 108.832031 254.65625 104.167969 260.417969 104.167969 C 266.175781 104.167969 270.832031 108.832031 270.832031 114.582031 L 270.832031 125 C 270.832031 130.75 266.175781 135.417969 260.417969 135.417969 Z M 333.332031 135.417969 C 327.574219 135.417969 322.917969 130.75 322.917969 125 L 322.917969 114.582031 C 322.917969 108.832031 327.574219 104.167969 333.332031 104.167969 C 339.09375 104.167969 343.75 108.832031 343.75 114.582031 L 343.75 125 C 343.75 130.75 339.09375 135.417969 333.332031 135.417969 Z M 333.332031 135.417969 " fill-opacity="1" fill-rule="nonzero"/><path fill="#ffdc5d" d="M 52.082031 229.167969 L 52.082031 187.5 L 104.167969 187.5 L 104.167969 229.167969 L 125 229.167969 L 125 291.667969 L 31.25 291.667969 L 31.25 229.167969 Z M 52.082031 229.167969 " fill-opacity="1" fill-rule="nonzero"/><path fill="#3b94d9" d="M 156.25 229.167969 L 104.167969 229.167969 L 78.417969 268.519531 L 52.082031 229.167969 L 0 229.167969 L 0 375 L 187.5 375 L 187.5 260.136719 C 187.5 239.582031 177.082031 229.167969 156.25 229.167969 Z M 156.25 229.167969 " fill-opacity="1" fill-rule="nonzero"/><path fill="#1b6399" d="M 145.6875 270.832031 L 156.394531 270.832031 L 156.394531 375 L 145.6875 375 Z M 145.6875 270.832031 " fill-opacity="1" fill-rule="nonzero"/><path fill="#ffdc5d" d="M 156.25 145.832031 L 156.25 52.082031 L 0 41.667969 L 0 145.832031 L 0.25 145.832031 C 2.875 186.355469 36.6875 218.425781 78.125 218.425781 C 117.613281 218.425781 150.332031 189.269531 155.605469 151.46875 C 155.863281 149.59375 156.125 147.738281 156.25 145.832031 Z M 156.25 145.832031 " fill-opacity="1" fill-rule="nonzero"/><path fill="#ffac33" d="M 39.644531 8.394531 C 25.050781 8.394531 11.480469 12.65625 0 19.917969 L 0 104.113281 C 61.949219 103.542969 97.65625 77.105469 116.269531 56.21875 C 121.542969 72.769531 133.28125 98.105469 156.25 103.199219 L 156.25 145.832031 C 156.125 147.738281 155.863281 149.59375 155.605469 151.457031 C 169 135.4375 177.082031 114.824219 177.082031 92.300781 C 177.082031 41.324219 135.761719 0 84.78125 0 C 70.84375 0 57.6875 3.175781 45.832031 8.707031 C 43.792969 8.53125 41.730469 8.394531 39.644531 8.394531 Z M 156.25 52.082031 L 156.25 53.8125 L 155.957031 52.074219 Z M 156.25 52.082031 " fill-opacity="1" fill-rule="nonzero"/><path fill="#bf6952" d="M 111.6875 184.613281 L 44.5625 184.613281 C 44.5625 184.613281 52.949219 201.386719 78.125 201.386719 C 103.300781 201.386719 111.6875 184.613281 111.6875 184.613281 Z M 83.332031 161.457031 L 72.917969 161.457031 C 70.042969 161.457031 67.707031 159.125 67.707031 156.25 C 67.707031 153.375 70.042969 151.042969 72.917969 151.042969 L 83.332031 151.042969 C 86.207031 151.042969 88.542969 153.375 88.542969 156.25 C 88.542969 159.125 86.207031 161.457031 83.332031 161.457031 Z M 83.332031 161.457031 " fill-opacity="1" fill-rule="nonzero"/><path fill="#662113" d="M 41.667969 135.417969 C 35.917969 135.417969 31.25 130.75 31.25 125 L 31.25 114.582031 C 31.25 108.832031 35.917969 104.167969 41.667969 104.167969 C 47.417969 104.167969 52.082031 108.832031 52.082031 114.582031 L 52.082031 125 C 52.082031 130.75 47.417969 135.417969 41.667969 135.417969 Z M 114.582031 135.417969 C 108.832031 135.417969 104.167969 130.75 104.167969 125 L 104.167969 114.582031 C 104.167969 108.832031 108.832031 104.167969 114.582031 104.167969 C 120.332031 104.167969 125 108.832031 125 114.582031 L 125 125 C 125 130.75 120.332031 135.417969 114.582031 135.417969 Z M 114.582031 135.417969 " fill-opacity="1" fill-rule="nonzero"/><path fill="#ffdc5d" d="M 302.0625 354.167969 L 302.0625 322.917969 L 260.394531 322.917969 L 260.394531 354.167969 L 249.980469 354.167969 L 249.980469 375 L 312.480469 375 L 312.480469 354.167969 Z M 302.0625 354.167969 " fill-opacity="1" fill-rule="nonzero"/><path fill="#88c9f9" d="M 260.394531 343.75 L 239.5625 343.75 C 213.59375 343.75 195.019531 358.175781 189.417969 375 L 373.082031 375 C 367.699219 358.3125 350.59375 343.75 333.3125 343.75 L 302.0625 343.75 L 281.230469 364.582031 Z M 260.394531 343.75 " fill-opacity="1" fill-rule="nonzero"/><path fill="#ffdc5d" d="M 343.675781 281.667969 L 343.65625 281.25 L 343.730469 281.25 L 343.730469 236.605469 L 299.082031 227.675781 L 218.730469 236.605469 L 218.730469 281.25 L 218.75 281.25 L 218.730469 281.667969 C 218.730469 288.375 219.832031 294.824219 221.8125 300.875 C 229.957031 325.75 253.457031 343.75 281.207031 343.75 C 308.90625 343.75 332.363281 325.8125 340.550781 301.011719 C 342.550781 294.917969 343.675781 288.425781 343.675781 281.667969 Z M 343.675781 281.667969 " fill-opacity="1" fill-rule="nonzero"/><path fill="#f4900c" d="M 354.144531 261.71875 C 354.144531 226.480469 325.582031 197.917969 290.34375 197.917969 C 287.238281 197.917969 284.21875 198.21875 281.230469 198.644531 C 278.25 198.21875 275.21875 197.917969 272.113281 197.917969 C 236.875 197.917969 208.3125 226.480469 208.3125 261.71875 C 208.3125 276.488281 213.386719 290.0625 221.8125 300.875 C 219.832031 294.824219 218.730469 288.375 218.730469 281.667969 L 218.75 281.25 L 218.730469 281.25 L 218.730469 261.34375 C 262.1875 259.457031 287.355469 244.761719 301.324219 231.03125 C 310.800781 242.21875 325.8125 256.175781 343.730469 260.363281 L 343.730469 281.25 L 343.65625 281.25 L 343.675781 281.667969 C 343.675781 288.425781 342.550781 294.917969 340.542969 301.011719 C 349.042969 290.175781 354.144531 276.550781 354.144531 261.71875 Z M 354.144531 261.71875 " fill-opacity="1" fill-rule="nonzero"/><path fill="#bf6952" d="M 302.0625 312.5 L 260.394531 312.5 C 260.394531 312.5 264.449219 326.386719 281.230469 326.386719 C 298.011719 326.386719 302.0625 312.5 302.0625 312.5 Z M 281.230469 307.292969 C 279.875 307.292969 278.519531 306.769531 277.582031 305.730469 C 276.542969 304.792969 276.019531 303.4375 276.019531 302.082031 C 276.019531 300.730469 276.542969 299.375 277.582031 298.332031 C 279.355469 296.5625 283 296.457031 284.980469 298.4375 C 285.917969 299.386719 286.4375 300.738281 286.4375 302.09375 C 286.4375 303.449219 285.917969 304.800781 284.875 305.738281 C 283.9375 306.769531 282.582031 307.292969 281.230469 307.292969 Z M 281.230469 307.292969 " fill-opacity="1" fill-rule="nonzero"/><path fill="#662113" d="M 302.0625 291.667969 C 297.261719 291.667969 293.386719 287.78125 293.386719 282.988281 L 293.386719 274.3125 C 293.386719 269.511719 297.269531 265.636719 302.0625 265.636719 C 306.863281 265.636719 310.738281 269.519531 310.738281 274.3125 L 310.738281 282.988281 C 310.75 287.78125 306.863281 291.667969 302.0625 291.667969 Z M 260.394531 291.667969 C 255.59375 291.667969 251.71875 287.78125 251.71875 282.988281 L 251.71875 274.3125 C 251.71875 269.511719 255.605469 265.636719 260.394531 265.636719 C 265.199219 265.636719 269.074219 269.519531 269.074219 274.3125 L 269.074219 282.988281 C 269.082031 287.78125 265.199219 291.667969 260.394531 291.667969 Z M 260.394531 291.667969 " fill-opacity="1" fill-rule="nonzero"/><path fill="#ffdc5d" d="M 31.230469 236.605469 L 31.230469 281.25 L 31.25 281.25 L 31.230469 281.667969 C 31.230469 315.949219 59.199219 343.75 93.699219 343.75 C 128.199219 343.75 156.167969 315.949219 156.167969 281.667969 L 156.144531 281.25 L 156.21875 281.25 L 156.21875 236.605469 L 111.574219 227.675781 Z M 31.230469 236.605469 " fill-opacity="1" fill-rule="nonzero"/><path fill="#f4900c" d="M 166.613281 262.417969 C 166.613281 262.175781 166.644531 261.957031 166.644531 261.71875 L 166.625 261.3125 L 166.644531 260.417969 L 166.582031 260.480469 C 165.917969 225.824219 137.667969 197.917969 102.84375 197.917969 C 99.738281 197.917969 96.71875 198.21875 93.730469 198.644531 C 90.75 198.21875 87.71875 197.917969 84.613281 197.917969 C 49.375 197.917969 20.8125 226.480469 20.8125 261.71875 C 20.8125 261.71875 22.113281 294.925781 10.394531 333.332031 C 10.394531 333.332031 45.230469 354.167969 93.730469 354.167969 C 142.230469 354.167969 177.0625 333.332031 177.0625 333.332031 C 166.980469 300.292969 166.542969 270.199219 166.613281 262.417969 Z M 156.175781 281.667969 C 156.175781 315.949219 128.207031 343.75 93.707031 343.75 C 59.207031 343.75 31.238281 315.949219 31.238281 281.667969 C 31.230469 281.53125 31.25 281.386719 31.25 281.25 L 31.230469 281.25 L 31.230469 261.34375 C 74.6875 259.457031 99.855469 244.761719 113.824219 231.03125 C 123.300781 242.21875 138.3125 256.175781 156.230469 260.363281 L 156.230469 281.25 L 156.15625 281.25 Z M 156.175781 281.667969 " fill-opacity="1" fill-rule="nonzero"/><path fill="#ffdc5d" d="M 114.5625 354.167969 L 114.5625 322.917969 L 72.894531 322.917969 L 72.894531 354.167969 L 62.480469 354.167969 L 62.480469 375 L 124.980469 375 L 124.980469 354.167969 Z M 114.5625 354.167969 " fill-opacity="1" fill-rule="nonzero"/><path fill="#ea596e" d="M 145.8125 343.75 L 114.5625 343.75 L 93.730469 364.582031 L 79.042969 349.894531 L 72.894531 343.75 L 52.0625 343.75 C 26.09375 343.75 7.519531 358.175781 1.917969 375 L 185.582031 375 C 180.1875 358.3125 163.09375 343.75 145.8125 343.75 Z M 145.8125 343.75 " fill-opacity="1" fill-rule="nonzero"/><path fill="#bf6952" d="M 114.5625 312.5 L 72.894531 312.5 C 72.894531 312.5 76.949219 326.386719 93.730469 326.386719 C 110.511719 326.386719 114.5625 312.5 114.5625 312.5 Z M 93.730469 307.292969 C 92.375 307.292969 91.019531 306.769531 90.082031 305.730469 C 89.042969 304.792969 88.519531 303.4375 88.519531 302.082031 C 88.519531 300.730469 89.042969 299.375 90.082031 298.332031 C 91.855469 296.5625 95.5 296.457031 97.480469 298.4375 C 98.417969 299.386719 98.9375 300.738281 98.9375 302.09375 C 98.9375 303.449219 98.417969 304.800781 97.375 305.738281 C 96.4375 306.769531 95.082031 307.292969 93.730469 307.292969 Z M 93.730469 307.292969 " fill-opacity="1" fill-rule="nonzero"/><path fill="#662113" d="M 114.5625 291.667969 C 109.761719 291.667969 105.886719 287.78125 105.886719 282.988281 L 105.886719 274.3125 C 105.886719 269.511719 109.769531 265.636719 114.5625 265.636719 C 119.363281 265.636719 123.238281 269.519531 123.238281 274.3125 L 123.238281 282.988281 C 123.25 287.78125 119.363281 291.667969 114.5625 291.667969 Z M 72.894531 291.667969 C 68.09375 291.667969 64.21875 287.78125 64.21875 282.988281 L 64.21875 274.3125 C 64.21875 269.511719 68.105469 265.636719 72.894531 265.636719 C 77.699219 265.636719 81.574219 269.519531 81.574219 274.3125 L 81.574219 282.988281 C 81.582031 287.78125 77.699219 291.667969 72.894531 291.667969 Z M 72.894531 291.667969 " fill-opacity="1" fill-rule="nonzero"/></svg>