<svg xmlns="http://www.w3.org/2000/svg" xmlns:xlink="http://www.w3.org/1999/xlink" width="500" zoomAndPan="magnify" viewBox="0 0 375 374.999991" height="500" preserveAspectRatio="xMidYMid meet" version="1.0"><defs><g/></defs><path fill="#a6a6a6" d="M 76.375 95.089844 L 67.449219 104.015625 L 48.128906 84.691406 L 57.054688 75.765625 Z M 76.375 95.089844 " fill-opacity="1" fill-rule="nonzero"/><path fill="#737373" d="M 59.285156 57.894531 C 64.234375 56.070312 73 65.894531 71.480469 68.886719 C 66.753906 78.1875 50.546875 94.394531 41.25 99.117188 C 38.253906 100.640625 28.433594 91.875 30.257812 86.921875 C 31.878906 82.507812 54.871094 59.519531 59.285156 57.894531 Z M 59.285156 57.894531 " fill-opacity="1" fill-rule="nonzero"/><path fill="#a6a6a6" d="M 167.636719 32.605469 L 195.726562 32.605469 L 195.726562 61.414062 L 167.636719 61.414062 Z M 167.636719 32.605469 " fill-opacity="1" fill-rule="nonzero"/><path fill="#737373" d="M 178.8125 47.941406 C 178.8125 47.941406 244.457031 48.515625 287.457031 88.648438 C 330.453125 128.78125 346.507812 162.890625 344.214844 227.675781 C 341.921875 292.457031 276.566406 364.699219 210.921875 369.859375 C 145.277344 375.015625 76.765625 357.246094 41.792969 293.894531 C 6.820312 230.542969 14.5625 158.019531 47.527344 113.300781 C 80.492188 68.582031 131.519531 48.804688 178.8125 47.941406 Z M 178.8125 47.941406 " fill-opacity="1" fill-rule="nonzero"/><path fill="#f5f3e4" d="M 179.457031 84.0625 C 179.457031 84.0625 230.40625 84.507812 263.78125 115.65625 C 297.15625 146.804688 309.617188 173.28125 307.835938 223.566406 C 306.058594 273.851562 255.328125 329.921875 204.375 333.925781 C 153.425781 337.929688 100.25 324.136719 73.105469 274.964844 C 45.960938 225.792969 51.96875 169.503906 77.554688 134.792969 C 103.140625 100.082031 142.746094 84.730469 179.457031 84.0625 Z M 179.457031 84.0625 " fill-opacity="1" fill-rule="nonzero"/><path fill="#737373" d="M 209.988281 3.796875 C 214.289062 8.097656 222.03125 20.28125 224.324219 29.738281 C 226.804688 39.976562 136.5625 39.976562 139.042969 29.738281 C 141.335938 20.28125 149.074219 8.097656 153.375 3.796875 C 157.164062 0.0078125 206.199219 0.0078125 209.988281 3.796875 Z M 209.988281 3.796875 " fill-opacity="1" fill-rule="nonzero"/><path fill="#a6a6a6" d="M 181.679688 93.054688 C 189.132812 93.425781 215.464844 95.667969 239.582031 109.09375 L 181.679688 211.058594 Z M 181.679688 93.054688 " fill-opacity="1" fill-rule="nonzero"/><path fill="#737373" d="M 192.003906 215.554688 C 188.113281 222.296875 180.28125 225.0625 174.515625 221.734375 C 168.75 218.402344 167.230469 210.238281 171.121094 203.496094 C 171.464844 202.902344 171.832031 202.367188 172.226562 201.816406 L 219.773438 134.433594 C 224.789062 127.316406 231.183594 130.925781 227.542969 138.78125 L 193.523438 212.273438 C 193 213.410156 192.65625 214.429688 192.003906 215.554688 Z M 192.003906 215.554688 " fill-opacity="1" fill-rule="nonzero"/><path fill="#737373" d="M 181.679688 89.488281 C 184.125 89.488281 186.121094 91.488281 186.121094 93.929688 L 186.121094 102.515625 C 186.121094 104.960938 184.125 106.957031 181.679688 106.957031 C 179.238281 106.957031 177.242188 104.960938 177.242188 102.515625 L 177.242188 93.929688 C 177.242188 91.488281 179.238281 89.488281 181.679688 89.488281 Z M 241.597656 313.097656 C 239.480469 314.320312 236.753906 313.585938 235.53125 311.472656 L 231.238281 304.035156 C 230.015625 301.921875 230.75 299.191406 232.863281 297.96875 C 234.980469 296.746094 237.707031 297.480469 238.929688 299.59375 L 243.222656 307.03125 C 244.445312 309.144531 243.714844 311.875 241.597656 313.097656 Z M 130.503906 120.671875 L 130.5 120.671875 C 128.386719 121.894531 125.65625 121.160156 124.433594 119.046875 L 120.140625 111.609375 C 118.921875 109.496094 119.652344 106.765625 121.765625 105.542969 L 121.769531 105.542969 C 123.882812 104.320312 126.613281 105.054688 127.832031 107.167969 L 132.125 114.605469 C 133.347656 116.71875 132.617188 119.449219 130.503906 120.671875 Z M 285.457031 269.234375 C 284.238281 271.351562 281.507812 272.082031 279.394531 270.863281 L 271.957031 266.570312 C 269.839844 265.347656 269.109375 262.617188 270.332031 260.5 C 271.550781 258.386719 274.28125 257.65625 276.398438 258.875 L 283.835938 263.167969 C 285.949219 264.390625 286.679688 267.121094 285.457031 269.234375 Z M 93.035156 158.140625 L 93.03125 158.140625 C 91.8125 160.253906 89.082031 160.988281 86.96875 159.765625 L 79.53125 155.472656 C 77.414062 154.25 76.683594 151.519531 77.90625 149.40625 C 79.128906 147.289062 81.855469 146.558594 83.972656 147.78125 L 91.40625 152.070312 C 93.523438 153.292969 94.253906 156.023438 93.035156 158.140625 Z M 301.515625 209.320312 C 301.515625 211.761719 299.515625 213.761719 297.074219 213.761719 L 288.484375 213.761719 C 286.042969 213.761719 284.042969 211.761719 284.042969 209.320312 C 284.042969 206.878906 286.042969 204.878906 288.484375 204.878906 L 297.074219 204.878906 C 299.515625 204.878906 301.515625 206.875 301.515625 209.320312 Z M 79.320312 209.320312 C 79.320312 211.761719 77.320312 213.761719 74.878906 213.761719 L 66.292969 213.761719 C 63.847656 213.761719 61.851562 211.761719 61.851562 209.320312 C 61.851562 206.875 63.847656 204.878906 66.292969 204.878906 L 74.878906 204.878906 C 77.320312 204.878906 79.320312 206.875 79.320312 209.320312 Z M 285.457031 149.40625 C 286.679688 151.519531 285.949219 154.25 283.835938 155.472656 L 276.398438 159.765625 C 274.28125 160.988281 271.554688 160.253906 270.332031 158.140625 C 269.109375 156.023438 269.839844 153.292969 271.957031 152.070312 L 279.394531 147.78125 C 281.507812 146.558594 284.238281 147.289062 285.457031 149.40625 Z M 93.03125 260.5 L 93.03125 260.503906 C 94.253906 262.617188 93.523438 265.347656 91.40625 266.570312 L 83.972656 270.863281 C 81.855469 272.082031 79.128906 271.351562 77.90625 269.234375 C 76.683594 267.121094 77.414062 264.390625 79.53125 263.167969 L 86.96875 258.875 C 89.082031 257.65625 91.8125 258.386719 93.03125 260.5 Z M 241.597656 105.542969 C 243.714844 106.765625 244.445312 109.496094 243.222656 111.609375 L 238.929688 119.046875 C 237.710938 121.160156 234.980469 121.894531 232.863281 120.671875 C 230.75 119.449219 230.015625 116.722656 231.238281 114.605469 L 235.53125 107.167969 C 236.753906 105.054688 239.480469 104.320312 241.597656 105.542969 Z M 130.5 297.96875 C 132.617188 299.191406 133.347656 301.921875 132.125 304.035156 L 127.832031 311.472656 C 126.609375 313.585938 123.882812 314.320312 121.765625 313.097656 C 119.652344 311.875 118.921875 309.144531 120.140625 307.03125 L 124.433594 299.59375 C 125.65625 297.480469 128.382812 296.746094 130.5 297.96875 Z M 181.679688 311.683594 C 184.125 311.683594 186.121094 313.683594 186.121094 316.125 L 186.121094 324.710938 C 186.121094 327.152344 184.125 329.152344 181.679688 329.152344 C 179.238281 329.152344 177.242188 327.152344 177.242188 324.710938 L 177.242188 316.125 C 177.242188 313.683594 179.238281 311.683594 181.679688 311.683594 Z M 181.679688 311.683594 " fill-opacity="1" fill-rule="nonzero"/><g fill="#737373" fill-opacity="1"><g transform="translate(128.724385, 84.143572)"><g><path d="M 3.4375 0.15625 C 2.613281 0.15625 1.96875 -0.0507812 1.5 -0.46875 C 1.03125 -0.894531 0.796875 -1.472656 0.796875 -2.203125 C 0.796875 -3.023438 1.097656 -3.640625 1.703125 -4.046875 C 2.304688 -4.453125 3.222656 -4.675781 4.453125 -4.71875 L 5.78125 -4.765625 L 5.78125 -5.96875 C 5.78125 -6.5625 5.742188 -7.050781 5.671875 -7.4375 C 5.609375 -7.820312 5.46875 -8.109375 5.25 -8.296875 C 5.039062 -8.484375 4.71875 -8.578125 4.28125 -8.578125 C 3.664062 -8.578125 3.269531 -8.382812 3.09375 -8 C 2.914062 -7.613281 2.828125 -7.007812 2.828125 -6.1875 C 2.378906 -6.1875 2.039062 -6.257812 1.8125 -6.40625 C 1.582031 -6.5625 1.46875 -6.8125 1.46875 -7.15625 C 1.46875 -7.539062 1.597656 -7.847656 1.859375 -8.078125 C 2.117188 -8.304688 2.460938 -8.472656 2.890625 -8.578125 C 3.328125 -8.679688 3.816406 -8.734375 4.359375 -8.734375 C 5.335938 -8.734375 6.066406 -8.523438 6.546875 -8.109375 C 7.035156 -7.691406 7.28125 -6.976562 7.28125 -5.96875 L 7.28125 -1.1875 C 7.28125 -0.800781 7.351562 -0.53125 7.5 -0.375 C 7.65625 -0.226562 7.910156 -0.15625 8.265625 -0.15625 L 8.3125 -0.15625 L 8.3125 0 L 5.90625 0 L 5.90625 -1.6875 L 5.875 -1.6875 C 5.695312 -1.039062 5.390625 -0.570312 4.953125 -0.28125 C 4.523438 0.0078125 4.019531 0.15625 3.4375 0.15625 Z M 3.765625 -0.0625 C 4.160156 -0.0625 4.507812 -0.160156 4.8125 -0.359375 C 5.113281 -0.566406 5.347656 -0.84375 5.515625 -1.1875 C 5.691406 -1.53125 5.78125 -1.894531 5.78125 -2.28125 L 5.78125 -4.59375 L 4.75 -4.546875 C 3.84375 -4.503906 3.21875 -4.296875 2.875 -3.921875 C 2.53125 -3.546875 2.359375 -2.914062 2.359375 -2.03125 C 2.359375 -0.71875 2.828125 -0.0625 3.765625 -0.0625 Z M 3.765625 -0.0625 "/></g></g></g></svg>