<svg xmlns="http://www.w3.org/2000/svg" xmlns:xlink="http://www.w3.org/1999/xlink" width="500" zoomAndPan="magnify" viewBox="0 0 375 374.999991" height="500" preserveAspectRatio="xMidYMid meet" version="1.0"><path fill="#000000" d="M 92.398438 187.550781 C 71.929688 207.191406 54.875 223.253906 40.335938 236.5 C 25.695312 249.683594 11.355469 259.386719 5.890625 266.242188 C 0.457031 272.867188 5.292969 273.824219 8.242188 276.804688 C 11.125 279.753906 15.660156 280.449219 23.507812 284.257812 C 31.359375 287.96875 44.175781 293.863281 55.203125 299.128906 C 66.167969 304.296875 74.414062 310.15625 88.886719 315.554688 C 103.359375 321.019531 124.753906 328.074219 141.3125 331.222656 C 157.742188 334.234375 170.789062 335.0625 187.117188 333.574219 C 203.445312 331.917969 222.324219 330.589844 238.386719 321.816406 C 254.28125 312.839844 267.496094 298.5 282.234375 281.113281 C 296.941406 263.691406 311.347656 243.15625 326.085938 218.484375 C 248.1875 208.183594 170.296875 197.882812 92.394531 187.550781 Z M 92.398438 187.550781 " fill-opacity="1" fill-rule="evenodd"/><path fill="#00bf63" d="M 96.835938 185.960938 C 76.367188 205.632812 59.308594 221.59375 44.769531 234.875 C 30.132812 248.058594 15.792969 257.761719 10.328125 264.617188 C 4.894531 271.242188 9.730469 272.199219 12.679688 275.183594 C 15.492188 278.128906 20.097656 278.824219 27.914062 282.632812 C 35.828125 286.34375 48.613281 292.238281 59.640625 297.503906 C 70.539062 302.738281 78.816406 308.566406 93.289062 313.964844 C 107.730469 319.296875 129.09375 327.015625 145.75 329.597656 C 162.34375 331.980469 176.320312 331.417969 192.152344 328.933594 C 207.914062 326.417969 224.507812 323.765625 239.507812 314.859375 C 254.316406 305.714844 267.328125 291.378906 280.875 275.546875 C 294.421875 259.75 307.269531 241.796875 320.1875 220.933594 Z M 96.835938 185.960938 " fill-opacity="1" fill-rule="evenodd"/><path fill="#000000" d="M 104.152344 243.523438 C 118.164062 247.199219 130.683594 249.417969 142.109375 250.179688 C 153.46875 250.808594 162.144531 250.144531 172.246094 247.828125 C 182.28125 245.507812 192.019531 241.734375 201.988281 236.5 C 194.835938 242.660156 186.386719 246.964844 176.15625 249.78125 C 165.789062 252.496094 153.070312 253.886719 140.949219 252.925781 C 128.828125 251.800781 116.738281 248.785156 104.152344 243.523438 Z M 104.152344 243.523438 " fill-opacity="1" fill-rule="evenodd"/><path fill="#000000" d="M 107.664062 254.09375 C 116.972656 257.171875 127.074219 259.09375 138.597656 259.988281 C 150.089844 260.851562 163.96875 261.777344 176.15625 259.191406 C 188.277344 256.476562 199.503906 251.476562 210.597656 243.925781 C 198.578125 250.285156 186.355469 254.589844 173.4375 256.839844 C 160.390625 258.929688 144.558594 257.734375 133.496094 257.238281 C 122.4375 256.710938 113.957031 255.78125 107.664062 254.09375 Z M 107.664062 254.09375 " fill-opacity="1" fill-rule="evenodd"/><path fill="#000000" d="M 77.925781 254.09375 C 84.878906 257.703125 94.152344 260.75 106.109375 263.5 C 117.996094 266.148438 134.09375 270.15625 149.164062 270.15625 C 164.230469 270.023438 181.121094 268.101562 195.726562 263.101562 C 210.265625 257.96875 223.28125 250.484375 235.667969 240.015625 C 221.726562 248.761719 209.109375 255.117188 197.285156 259.589844 C 185.363281 263.929688 176.453125 265.089844 165.191406 266.246094 C 153.800781 267.304688 144.625 268.199219 129.988281 266.246094 C 115.28125 264.160156 98.226562 260.152344 77.925781 254.09375 Z M 77.925781 254.09375 " fill-opacity="1" fill-rule="evenodd"/><path fill="#000000" d="M 83.390625 265.851562 C 90.34375 269.460938 99.617188 272.507812 111.574219 275.253906 C 123.460938 277.90625 139.558594 281.914062 154.628906 281.914062 C 169.628906 281.78125 186.652344 279.859375 201.226562 274.859375 C 215.765625 269.722656 228.8125 262.238281 241.132812 251.773438 C 227.125 260.515625 214.636719 266.875 202.78125 271.347656 C 190.859375 275.621094 181.949219 276.84375 170.691406 277.96875 C 159.332031 279.03125 150.058594 279.925781 135.453125 277.96875 C 120.648438 275.851562 103.757812 271.945312 83.390625 265.851562 Z M 83.390625 265.851562 " fill-opacity="1" fill-rule="evenodd"/><path fill="#000000" d="M 78.320312 271.710938 C 88.621094 276.875 100.015625 281.015625 113.128906 284.261719 C 126.179688 287.410156 141.082031 290.953125 156.183594 290.917969 C 171.152344 290.785156 185.792969 290.519531 202.78125 283.863281 C 219.839844 277.109375 237.757812 266.277344 257.5625 250.976562 C 243.816406 260.484375 231.199219 268.132812 218.8125 274.0625 C 206.492188 279.890625 197.617188 284.03125 184.003906 286.214844 C 170.195312 288.402344 154.695312 289.296875 137.007812 286.976562 C 119.15625 284.496094 100.015625 279.527344 78.320312 271.710938 Z M 78.320312 271.710938 " fill-opacity="1" fill-rule="evenodd"/><path fill="#000000" d="M 67.359375 277.605469 C 83.191406 286.351562 98.191406 292.710938 113.128906 297.179688 C 127.902344 301.550781 141.179688 303.769531 156.183594 303.835938 C 171.253906 303.804688 185.726562 303.371094 202.78125 296.78125 C 219.707031 289.894531 237.589844 279.097656 257.195312 263.496094 C 242.757812 273.898438 228.78125 282.074219 214.507812 288.171875 C 200.167969 294.296875 187.613281 298.339844 172.246094 299.894531 C 156.78125 301.285156 140.550781 300.425781 122.933594 296.78125 C 105.347656 293.039062 87 286.648438 67.359375 277.605469 Z M 67.359375 277.605469 " fill-opacity="1" fill-rule="evenodd"/><path fill="#c1ff72" d="M 93.390625 194.835938 C 83.15625 201.492188 43.679688 240.542969 30.265625 252.59375 C 16.953125 264.320312 16.355469 262.070312 13.90625 265.511719 C 11.386719 268.789062 11.453125 269.917969 15.527344 272.734375 C 19.570312 275.515625 30.035156 279.222656 38.113281 282.335938 C 46.164062 285.285156 60.902344 294.027344 63.550781 290.949219 C 65.96875 287.703125 50.136719 270.910156 52.984375 263.957031 C 55.832031 257.035156 75.902344 255.609375 80.375 249.847656 C 84.613281 243.917969 77.195312 235.175781 78.816406 229.113281 C 80.441406 223.054688 87.628906 219.574219 90.144531 213.847656 C 92.597656 207.984375 103.261719 188.445312 93.390625 194.835938 Z M 93.390625 194.835938 " fill-opacity="1" fill-rule="evenodd"/><path fill="#000000" d="M 84.976562 194.605469 C 84.976562 194.605469 90.441406 199.109375 101.007812 202.457031 C 111.640625 205.800781 132.835938 211.066406 147.96875 214.578125 C 163.105469 218.054688 175.757812 220.472656 191.023438 223.1875 C 206.292969 225.871094 220.832031 228.191406 238.78125 230.605469 C 256.765625 233.058594 278.859375 236.335938 297.902344 237.660156 C 316.910156 238.984375 339.996094 240.210938 351.917969 238.457031 C 363.675781 236.667969 364.535156 238.519531 368.34375 227.09375 C 372.152344 215.503906 374.636719 187.949219 374.605469 169.964844 C 374.503906 151.980469 372.085938 131.878906 367.949219 120.253906 C 363.773438 108.695312 354.964844 107.4375 349.964844 101.078125 C 344.960938 94.683594 345.195312 88.988281 338.207031 82.265625 C 331.121094 75.542969 319.097656 66.800781 308.070312 61.136719 C 297.007812 55.503906 284.554688 51.132812 272.433594 48.617188 C 260.34375 46.132812 250.441406 46.332031 236.035156 46.265625 C 221.597656 46.199219 201.691406 45.46875 186.722656 48.21875 C 171.816406 51 156.617188 58.023438 147.210938 62.691406 C 137.839844 67.363281 135.882812 71.269531 130.75 76.007812 C 125.617188 80.742188 121.542969 80.609375 116.675781 90.875 C 111.804688 101.277344 107.136719 120.019531 101.804688 137.476562 C 96.4375 154.929688 84.976562 194.605469 84.976562 194.605469 Z M 84.976562 194.605469 " fill-opacity="1" fill-rule="evenodd"/><path fill="#00bf63" d="M 90.824219 191.929688 C 90.824219 191.929688 99.933594 196.203125 110.5 199.546875 C 121.128906 202.925781 140.304688 208.488281 155.441406 212 C 170.578125 215.445312 187.566406 217.730469 202.800781 220.414062 C 218.070312 223.128906 233.4375 226.40625 251.386719 228.859375 C 269.371094 231.273438 286.957031 233.132812 306 234.488281 C 325.011719 235.78125 334.613281 236.242188 346.535156 234.488281 C 358.292969 232.699219 361.574219 238.296875 365.382812 226.835938 C 369.191406 215.246094 372.667969 187.425781 372.632812 169.441406 C 372.535156 151.457031 371.9375 132.085938 367.796875 120.460938 C 363.625 108.933594 352.332031 106.382812 347.332031 99.992188 C 342.332031 93.601562 345.511719 91.84375 338.488281 85.15625 C 331.433594 78.429688 320.636719 70.746094 309.609375 65.085938 C 298.515625 59.421875 289.175781 53.527344 277.085938 51.007812 C 264.964844 48.523438 254.53125 49.089844 240.15625 49.023438 C 225.71875 48.957031 208.132812 46.671875 193.195312 49.417969 C 178.257812 52.199219 162.097656 58.726562 152.65625 63.394531 C 143.285156 68.066406 141.332031 71.972656 136.195312 76.710938 C 131.0625 81.410156 126.988281 81.28125 122.121094 91.578125 C 117.253906 101.945312 112.582031 120.691406 107.25 138.144531 C 101.886719 155.632812 90.824219 191.929688 90.824219 191.929688 Z M 90.824219 191.929688 " fill-opacity="1" fill-rule="evenodd"/><path fill="#000000" d="M 126.082031 209.078125 C 125.984375 202.820312 127.539062 194.074219 130.753906 182.484375 C 133.933594 170.792969 140.257812 151.386719 145.257812 139.828125 C 150.257812 128.167969 155.558594 121.511719 160.128906 113.597656 C 164.5 105.679688 166.488281 99.488281 171.851562 92.464844 C 177.21875 85.179688 185.367188 77.199219 192.222656 70.9375 C 198.910156 64.613281 203.78125 58.882812 212.191406 55.273438 C 220.671875 51.664062 238.886719 50.4375 242.296875 49.410156 C 245.378906 48.21875 236.070312 48.253906 231.367188 48.617188 C 226.46875 48.980469 218.980469 49.941406 214.148438 51.367188 C 209.375 52.523438 206.960938 53.785156 203.183594 56.433594 C 199.242188 59.082031 195.070312 64.015625 191.425781 67.394531 C 187.816406 70.675781 184.902344 72.992188 181.65625 76.402344 C 178.3125 79.714844 175.296875 83.027344 171.855469 87.761719 C 168.375 92.5 165.828125 96.242188 160.890625 104.984375 C 155.757812 113.761719 146.550781 128.996094 141.714844 139.828125 C 136.8125 150.457031 135.222656 157.214844 131.945312 168.773438 C 128.601562 180.363281 125.453125 193.378906 122.140625 208.714844 C 123.433594 208.8125 124.757812 208.945312 126.082031 209.078125 Z M 126.082031 209.078125 " fill-opacity="1" fill-rule="evenodd"/><path fill="#000000" d="M 257.988281 48.71875 C 271.136719 58.027344 281.304688 66.339844 288.890625 74.054688 C 296.339844 81.707031 299.453125 84.488281 302.964844 94.421875 C 306.410156 104.292969 309.355469 119.164062 309.621094 132.773438 C 309.820312 146.1875 307.535156 157.546875 304.15625 175.035156 C 300.644531 192.585938 295.644531 212.988281 288.890625 237.265625 L 293.195312 237.265625 C 295.28125 227.265625 297.632812 216.863281 300.25 205.570312 C 302.867188 194.175781 306.804688 182.355469 308.859375 169.96875 C 310.8125 157.417969 311.804688 141.816406 311.972656 131.582031 C 311.972656 121.351562 311.179688 117.542969 309.222656 109.292969 C 307.171875 100.847656 305.414062 90.515625 300.25 82.269531 C 294.917969 74.023438 285.476562 66.007812 278.324219 60.378906 C 271.238281 54.746094 264.546875 50.90625 257.988281 48.71875 Z M 257.988281 48.71875 " fill-opacity="1" fill-rule="evenodd"/><path fill="#c1ff72" d="M 187.113281 78.757812 C 192.179688 72.664062 199.136719 67.53125 203.375 64.386719 C 207.546875 61.273438 206.917969 61.636719 212.21875 59.980469 C 217.449219 58.160156 228.179688 54.914062 234.703125 53.953125 C 241.128906 52.925781 246.429688 54.085938 250.734375 54.351562 C 254.90625 54.550781 257.292969 54.050781 260.304688 55.277344 C 263.21875 56.402344 265.804688 59.351562 268.816406 61.570312 C 271.832031 63.65625 275.042969 65.777344 278.324219 68.195312 C 281.566406 70.578125 285.210938 72.332031 288.09375 76.011719 C 290.875 79.554688 299.023438 88.164062 295.148438 89.722656 C 291.074219 91.078125 270.375 84.023438 264.214844 85.019531 C 258.054688 86.109375 262.65625 97.339844 258.351562 95.980469 C 253.847656 94.359375 246.128906 76.96875 238.015625 76.011719 C 229.902344 75.082031 217.515625 85.152344 210.199219 90.117188 C 202.84375 94.953125 197.414062 104.722656 194.167969 104.988281 C 190.890625 104.988281 193.96875 91.640625 190.523438 90.878906 C 186.914062 90.21875 173.632812 102.605469 173.039062 100.683594 C 172.542969 98.53125 181.914062 84.917969 187.113281 78.757812 Z M 187.113281 78.757812 " fill-opacity="1" fill-rule="evenodd"/><path fill="#c1ff72" d="M 286.46875 59.183594 C 295.015625 61.703125 303.195312 65.410156 311.375 70.808594 C 319.589844 76.140625 334.292969 88.628906 335.054688 90.878906 C 335.519531 92.902344 317.371094 82.039062 314.722656 83.460938 C 312.105469 84.851562 320.183594 97.570312 319.421875 99.128906 C 318.5625 100.585938 315.382812 98.464844 309.753906 92.503906 C 306.96875 87.765625 303.757812 83.230469 300.246094 78.757812 C 296.671875 74.1875 292.796875 69.882812 288.488281 65.84375 C 284.019531 61.734375 274.8125 56.039062 274.414062 54.878906 C 274.085938 53.753906 278.058594 55.144531 286.46875 59.183594 Z M 286.46875 59.183594 " fill-opacity="1" fill-rule="evenodd"/><path fill="#000000" d="M 231.464844 89.191406 C 230.636719 89.851562 230.371094 90.316406 230.671875 91.34375 C 230.902344 92.371094 231.136719 94.6875 233.023438 95.484375 C 234.84375 96.179688 239.480469 96.246094 241.566406 95.8125 C 243.523438 95.25 244.945312 94.09375 244.945312 92.832031 C 244.8125 91.542969 242.792969 89.390625 241.203125 88.429688 C 239.515625 87.335938 236.898438 86.773438 235.277344 86.871094 C 233.488281 86.9375 232.261719 88.394531 231.464844 89.191406 Z M 231.464844 89.191406 " fill-opacity="1" fill-rule="evenodd"/><path fill="#c1ff72" d="M 235.339844 90.945312 C 235.074219 91.277344 235.4375 92.171875 235.902344 92.601562 C 236.199219 92.867188 236.894531 92.867188 237.492188 92.867188 C 238.019531 92.734375 239.347656 92.601562 239.414062 92.207031 C 239.414062 91.742188 238.453125 90.8125 237.789062 90.582031 C 236.996094 90.285156 235.703125 90.613281 235.339844 90.945312 Z M 235.339844 90.945312 " fill-opacity="1" fill-rule="evenodd"/><path fill="#000000" d="M 152.375 72.367188 C 151.449219 72.695312 150.953125 72.960938 150.257812 74.054688 C 149.429688 75.015625 147.539062 77.300781 147.640625 78.59375 C 147.707031 79.882812 149.230469 81.40625 150.421875 81.738281 C 151.515625 81.9375 153.105469 81.242188 154.164062 80.148438 C 155.222656 78.824219 156.085938 76.441406 156.480469 74.917969 C 156.679688 73.457031 156.316406 71.902344 155.652344 71.539062 C 154.828125 71.007812 153.304688 71.96875 152.375 72.367188 Z M 152.375 72.367188 " fill-opacity="1" fill-rule="evenodd"/><path fill="#c1ff72" d="M 152.273438 75.25 C 151.84375 75.480469 151.148438 76.375 151.082031 76.902344 C 150.949219 77.300781 151.113281 77.566406 151.445312 77.699219 C 151.644531 77.796875 152.308594 78.0625 152.671875 77.730469 C 153.003906 77.335938 153.433594 76.109375 153.464844 75.710938 C 153.332031 75.25 152.636719 75.046875 152.273438 75.25 Z M 152.273438 75.25 " fill-opacity="1" fill-rule="evenodd"/><path fill="#000000" d="M 336.1875 107.902344 C 336.285156 108.828125 336.351562 109.328125 337.144531 110.417969 C 337.875 111.445312 339.332031 113.898438 340.625 114.328125 C 341.949219 114.691406 343.703125 113.53125 344.464844 112.636719 C 344.996094 111.613281 344.929688 109.921875 344.136719 108.597656 C 343.273438 107.207031 341.121094 105.417969 339.863281 104.757812 C 338.503906 104.128906 337.015625 103.929688 336.417969 104.523438 C 335.824219 105.085938 335.953125 106.808594 336.1875 107.902344 Z M 336.1875 107.902344 " fill-opacity="1" fill-rule="evenodd"/><path fill="#c1ff72" d="M 338.898438 108.863281 C 338.867188 109.292969 339.726562 110.1875 340.09375 110.519531 C 340.457031 110.75 340.65625 110.585938 340.953125 110.417969 C 341.121094 110.121094 341.515625 109.691406 341.382812 109.261719 C 341.085938 108.730469 340.09375 107.96875 339.695312 107.871094 C 339.199219 107.835938 338.800781 108.300781 338.898438 108.863281 Z M 338.898438 108.863281 " fill-opacity="1" fill-rule="evenodd"/><path fill="#000000" d="M 244.675781 46.367188 C 244.675781 46.367188 245.570312 42.164062 247.789062 41.136719 C 250.042969 40.109375 254.613281 39.84375 257.890625 40.308594 C 261.136719 40.769531 265.738281 42.425781 267.195312 43.917969 C 268.589844 45.40625 267.59375 47.957031 266.367188 49.117188 C 265.078125 50.242188 263.355469 51.105469 259.710938 50.675781 C 256.035156 50.175781 244.675781 46.367188 244.675781 46.367188 Z M 244.675781 46.367188 " fill-opacity="1" fill-rule="evenodd"/><path fill="#c1ff72" d="M 247.132812 42.460938 L 245.34375 45.707031 C 246.933594 46.601562 249.1875 47.328125 251.96875 48.15625 C 254.785156 48.886719 259.519531 50.308594 261.96875 50.277344 C 264.289062 50.109375 266.472656 48.15625 265.976562 47.59375 C 265.382812 47.03125 261.4375 46.898438 258.988281 46.667969 C 256.472656 46.234375 253.292969 46.136719 251.371094 45.472656 C 249.382812 44.746094 247.925781 43.785156 247.132812 42.460938 Z M 247.132812 42.460938 " fill-opacity="1" fill-rule="evenodd"/><path stroke-linecap="butt" transform="matrix(0.919971, 0, 0, 0.919971, 12.75147, 47.522126)" fill-opacity="1" fill="#c1ff72" fill-rule="evenodd" stroke-linejoin="miter" d="M 206.348287 3.495931 C 204.874905 2.489615 192.599554 5.512808 184.532045 7.852386 C 176.468783 10.085812 161.132025 14.909333 158.792447 17.032361 C 156.491084 18.943087 170.133666 16.675692 170.566764 20.093768 C 170.745098 23.51609 160.775356 34.602546 160.520592 37.519587 C 160.197892 40.220079 165.560662 39.570433 168.838618 37.086489 C 172.006177 34.530363 175.823382 26.539283 179.746739 22.688109 C 183.453547 18.798721 187.52127 17.142759 191.949907 13.9752 C 196.412513 10.625061 207.465 4.540461 206.348287 3.495931 Z M 206.348287 3.495931 " stroke="#000000" stroke-width="0.036" stroke-opacity="1" stroke-miterlimit="10"/></svg>