<svg xmlns="http://www.w3.org/2000/svg" xmlns:xlink="http://www.w3.org/1999/xlink" width="500" zoomAndPan="magnify" viewBox="0 0 375 374.999991" height="500" preserveAspectRatio="xMidYMid meet" version="1.0"><defs><filter x="0%" y="0%" width="100%" height="100%" id="1efbd2fff0"><feColorMatrix values="0 0 0 0 1 0 0 0 0 1 0 0 0 0 1 0 0 0 1 0" color-interpolation-filters="sRGB"/></filter><mask id="d9a4dd1473"><g filter="url(#1efbd2fff0)"><rect x="-37.5" width="450" fill="#000000" y="-37.499999" height="449.999989" fill-opacity="0.59"/></g></mask><clipPath id="b71199786f"><path d="M 0.601562 1 L 95 1 L 95 35 L 0.601562 35 Z M 0.601562 1 " clip-rule="nonzero"/></clipPath><clipPath id="e486bd9912"><rect x="0" width="96" y="0" height="36"/></clipPath><mask id="3d80cab84c"><g filter="url(#1efbd2fff0)"><rect x="-37.5" width="450" fill="#000000" y="-37.499999" height="449.999989" fill-opacity="0.17"/></g></mask><clipPath id="a6ae93fdb7"><path d="M 0.160156 1 L 259 1 L 259 69 L 0.160156 69 Z M 0.160156 1 " clip-rule="nonzero"/></clipPath><clipPath id="9b88d42bad"><rect x="0" width="259" y="0" height="70"/></clipPath><mask id="4738bd0c0f"><g filter="url(#1efbd2fff0)"><rect x="-37.5" width="450" fill="#000000" y="-37.499999" height="449.999989" fill-opacity="0.59"/></g></mask><clipPath id="608c5ea6f4"><path d="M 1 0.640625 L 93.878906 0.640625 L 93.878906 43 L 1 43 Z M 1 0.640625 " clip-rule="nonzero"/></clipPath><clipPath id="ebe2a51034"><rect x="0" width="94" y="0" height="44"/></clipPath><mask id="1ccc26de73"><g filter="url(#1efbd2fff0)"><rect x="-37.5" width="450" fill="#000000" y="-37.499999" height="449.999989" fill-opacity="0.17"/></g></mask><clipPath id="3695e6458a"><path d="M 1 1 L 241.921875 1 L 241.921875 146.640625 L 1 146.640625 Z M 1 1 " clip-rule="nonzero"/></clipPath><clipPath id="e8587f317d"><rect x="0" width="242" y="0" height="147"/></clipPath></defs><path fill="#7ed957" d="M 359.125 181.539062 C 326.222656 225.863281 264.4375 199.207031 220.214844 194.816406 C 192.0625 192.023438 154.585938 209.164062 131.957031 185.289062 C 124.703125 177.65625 119.875 167.886719 118.851562 157.375 C 117.855469 147.121094 120.117188 136.816406 118.320312 126.597656 C 117.542969 122.207031 116.417969 117.78125 115.546875 113.367188 C 114.703125 109.195312 114.089844 105.027344 114.214844 100.863281 C 114.304688 97.191406 114.972656 93.527344 116.558594 89.886719 C 119.992188 82.011719 126.074219 74.667969 134.214844 71.535156 C 143.785156 67.855469 154.003906 68.941406 163.988281 69.34375 C 169.160156 69.539062 174.476562 69.699219 179.5 68.246094 C 179.875 68.128906 180.246094 67.992188 180.605469 67.859375 C 183.996094 66.578125 188.179688 61.066406 191.507812 58.886719 C 196.269531 55.75 201.535156 52.984375 207.136719 51.707031 C 221.238281 48.472656 228.292969 58.160156 231.238281 70.890625 C 263.597656 88.183594 296.074219 106.625 331.613281 116.757812 C 340.441406 119.289062 349.605469 121.371094 357.304688 126.367188 C 363.230469 130.210938 366.851562 135.257812 368.6875 140.890625 C 372.949219 153.988281 367.519531 170.21875 359.125 181.539062 Z M 359.125 181.539062 " fill-opacity="1" fill-rule="nonzero"/><path fill="#2e2e2e" d="M 288.167969 136.847656 C 288.0625 136.847656 287.953125 136.808594 287.867188 136.730469 C 287.6875 136.566406 287.675781 136.28125 287.839844 136.101562 C 291.394531 132.222656 295.277344 128.574219 299.035156 125.046875 C 303.257812 121.078125 307.621094 116.980469 311.507812 112.558594 C 311.671875 112.371094 311.953125 112.355469 312.136719 112.515625 C 312.324219 112.679688 312.339844 112.960938 312.179688 113.144531 C 308.265625 117.597656 303.882812 121.714844 299.644531 125.695312 C 295.902344 129.214844 292.03125 132.851562 288.5 136.703125 C 288.410156 136.800781 288.289062 136.847656 288.167969 136.847656 Z M 288.167969 136.847656 " fill-opacity="1" fill-rule="nonzero"/><path fill="#2e2e2e" d="M 275.289062 136.890625 C 275.210938 136.890625 275.136719 136.871094 275.0625 136.832031 C 253.445312 124.160156 230.402344 110.757812 207.234375 98.410156 C 207.019531 98.296875 206.9375 98.023438 207.050781 97.808594 C 207.167969 97.589844 207.4375 97.507812 207.65625 97.625 C 230.835938 109.976562 253.890625 123.386719 275.515625 136.0625 C 275.726562 136.183594 275.800781 136.457031 275.675781 136.671875 C 275.589844 136.8125 275.441406 136.890625 275.289062 136.890625 Z M 275.289062 136.890625 " fill-opacity="1" fill-rule="nonzero"/><path fill="#00bf63" d="M 217.453125 81.648438 C 216.753906 83.976562 214.570312 85.867188 212.457031 87.28125 C 206.65625 91.160156 200.222656 93.710938 193.972656 96.714844 C 187.496094 99.820312 180.816406 102.664062 173.855469 104.507812 C 163.675781 107.207031 152.75 107.628906 142.34375 106.144531 C 135.011719 105.097656 124.671875 103.550781 123.882812 94.277344 C 123.449219 89.164062 126.710938 84.234375 130.773438 81.398438 C 138.011719 76.347656 147.40625 76.089844 155.890625 76.300781 C 165.316406 76.539062 174.113281 75.980469 183.421875 74.628906 C 191.246094 73.492188 199.164062 72.714844 207.078125 73.144531 C 209.371094 73.265625 211.71875 73.507812 213.773438 74.535156 C 215.828125 75.5625 217.550781 77.535156 217.675781 79.828125 C 217.710938 80.460938 217.628906 81.070312 217.453125 81.648438 Z M 217.453125 81.648438 " fill-opacity="1" fill-rule="nonzero"/><g mask="url(#d9a4dd1473)"><g transform="matrix(1, 0, 0, 1, 123, 72)"><g clip-path="url(#e486bd9912)"><g clip-path="url(#b71199786f)"><path fill="#2e2e2e" d="M 94.453125 9.648438 C 93.753906 11.976562 91.570312 13.867188 89.457031 15.28125 C 83.65625 19.160156 77.222656 21.710938 70.972656 24.714844 C 64.496094 27.820312 57.816406 30.664062 50.855469 32.507812 C 40.675781 35.207031 29.75 35.628906 19.34375 34.144531 C 12.011719 33.097656 1.671875 31.550781 0.882812 22.277344 C 0.449219 17.164062 3.710938 12.234375 7.773438 9.398438 C 15.011719 4.347656 24.40625 4.089844 32.890625 4.300781 C 42.316406 4.539062 51.113281 3.980469 60.421875 2.628906 C 68.246094 1.492188 76.164062 0.714844 84.078125 1.144531 C 86.371094 1.265625 88.71875 1.507812 90.773438 2.535156 C 92.828125 3.5625 94.550781 5.535156 94.675781 7.828125 C 94.710938 8.460938 94.628906 9.070312 94.453125 9.648438 Z M 94.453125 9.648438 " fill-opacity="1" fill-rule="nonzero"/></g></g></g></g><path fill="#00bf63" d="M 187.066406 101.417969 C 187.066406 101.417969 175.0625 91.71875 176.011719 80.28125 C 176.957031 68.839844 183.929688 62.105469 194.5 55.078125 C 205.074219 48.050781 223.910156 37.484375 231.238281 70.890625 C 231.238281 70.890625 217.316406 91.597656 187.066406 101.417969 Z M 187.066406 101.417969 " fill-opacity="1" fill-rule="nonzero"/><path fill="#c1ff72" d="M 250.757812 121.472656 C 250.757812 121.492188 250.757812 121.507812 250.757812 121.527344 C 250.757812 124.714844 252.738281 126.742188 255.777344 126.742188 C 256.886719 126.742188 258.132812 126.472656 259.480469 125.886719 C 263.296875 124.238281 268.964844 122.375 275.378906 120.515625 C 275.113281 127 275 132.960938 274.953125 136.511719 C 274.929688 138.1875 276.277344 139.554688 277.953125 139.5625 L 278.050781 139.5625 C 279.707031 139.574219 281.0625 138.25 281.085938 136.59375 C 281.152344 131.925781 281.3125 125.378906 281.613281 118.769531 C 290.09375 116.472656 299.199219 114.28125 306.769531 112.613281 C 308.527344 112.226562 309.570312 110.273438 308.960938 108.585938 C 308.585938 107.550781 307.609375 106.753906 306.519531 106.597656 C 305.761719 106.484375 304.992188 106.664062 304.246094 106.84375 C 296.804688 108.609375 289.355469 110.328125 281.96875 112.296875 C 282.351562 106.214844 282.875 100.605469 283.59375 97 C 284.226562 93.804688 280.574219 92.878906 278.179688 93.28125 C 271.335938 94.425781 264.488281 95.976562 257.707031 97.503906 C 258.042969 92.410156 258.507812 87.757812 259.136719 84.589844 C 259.394531 83.304688 258.792969 82.246094 257.859375 81.453125 C 256.933594 80.664062 255.6875 80.140625 254.636719 79.914062 C 251.109375 79.15625 247.332031 80.515625 243.863281 81.078125 C 242.871094 81.238281 233.472656 82.433594 233.441406 82.875 C 233.734375 78.707031 234.136719 74.914062 234.683594 72.179688 C 234.980469 70.699219 234.144531 69.234375 232.71875 68.738281 L 232.640625 68.710938 C 230.917969 68.113281 229.042969 69.15625 228.691406 70.945312 C 227.996094 74.445312 227.53125 79.148438 227.214844 84.070312 C 216.988281 86.128906 206.734375 88.683594 201.089844 91.460938 C 199.21875 92.378906 198.785156 94.851562 200.265625 96.324219 C 201.1875 97.242188 202.589844 97.472656 203.75 96.878906 C 207.738281 94.839844 216.660156 92.542969 226.886719 90.4375 C 226.765625 93.476562 226.6875 96.4375 226.640625 99.097656 C 226.597656 101.390625 226.425781 103.667969 226.425781 105.964844 C 226.425781 106.042969 226.425781 106.125 226.425781 106.207031 C 226.433594 106.207031 226.441406 106.207031 226.445312 106.210938 C 226.386719 106.855469 226.332031 107.578125 226.332031 108.289062 C 226.332031 110.289062 226.75 112.238281 228.609375 112.390625 C 229.167969 112.433594 229.738281 112.324219 230.257812 112.046875 C 233.972656 110.070312 241.882812 107.699219 251.132812 105.40625 C 250.871094 111.828125 250.785156 117.839844 250.757812 121.472656 Z M 232.710938 104.421875 C 232.738281 100.082031 232.835938 94.613281 233.078125 89.21875 C 239.683594 87.96875 246.515625 86.835938 252.703125 85.921875 C 252.140625 89.640625 251.738281 94.234375 251.453125 98.964844 C 244.597656 100.632812 237.882812 102.5 232.710938 104.421875 Z M 256.90625 120.414062 C 256.953125 115.878906 257.085938 109.894531 257.355469 103.917969 C 263.851562 102.421875 270.664062 101.003906 276.945312 99.8125 C 276.394531 103.925781 275.992188 108.941406 275.699219 114.023438 C 268.582031 116.050781 261.78125 118.257812 256.90625 120.414062 Z M 256.90625 120.414062 " fill-opacity="1" fill-rule="nonzero"/><path fill="#2e2e2e" d="M 281.976562 135.472656 C 281.75 135.472656 281.554688 135.300781 281.53125 135.070312 C 280.195312 121.175781 283.121094 97.1875 283.148438 96.949219 C 283.179688 96.703125 283.40625 96.535156 283.644531 96.5625 C 283.890625 96.589844 284.0625 96.8125 284.035156 97.058594 C 284.003906 97.296875 281.09375 121.191406 282.421875 134.988281 C 282.445312 135.230469 282.265625 135.449219 282.019531 135.472656 C 282.003906 135.472656 281.992188 135.472656 281.976562 135.472656 Z M 281.976562 135.472656 " fill-opacity="1" fill-rule="nonzero"/><path fill="#2e2e2e" d="M 257.699219 123.015625 C 257.472656 123.015625 257.277344 122.84375 257.257812 122.613281 C 255.921875 108.71875 258.84375 84.730469 258.871094 84.492188 C 258.902344 84.246094 259.132812 84.078125 259.371094 84.101562 C 259.613281 84.132812 259.789062 84.355469 259.757812 84.597656 C 259.726562 84.839844 256.816406 108.730469 258.144531 122.527344 C 258.167969 122.773438 257.988281 122.992188 257.742188 123.015625 C 257.730469 123.015625 257.714844 123.015625 257.699219 123.015625 Z M 257.699219 123.015625 " fill-opacity="1" fill-rule="nonzero"/><path fill="#2e2e2e" d="M 233.101562 111.039062 C 232.871094 111.039062 232.679688 110.863281 232.65625 110.632812 C 231.320312 96.742188 234.242188 72.75 234.273438 72.511719 C 234.304688 72.265625 234.53125 72.09375 234.769531 72.125 C 235.015625 72.152344 235.1875 72.375 235.15625 72.621094 C 235.128906 72.859375 232.21875 96.753906 233.542969 110.550781 C 233.566406 110.796875 233.386719 111.011719 233.144531 111.035156 C 233.128906 111.035156 233.113281 111.039062 233.101562 111.039062 Z M 233.101562 111.039062 " fill-opacity="1" fill-rule="nonzero"/><path fill="#00bf63" d="M 374.664062 166.261719 C 374.675781 167.210938 374.667969 168.113281 374.636719 168.949219 C 374.417969 174.230469 371.414062 180.351562 368.574219 184.765625 C 363.304688 192.957031 355.011719 198.925781 346.269531 202.890625 C 344.820312 203.546875 343.367188 204.191406 341.898438 204.828125 C 333.726562 208.375 325.34375 211.507812 316.6875 213.675781 C 308.246094 215.78125 300.253906 216.027344 291.621094 216.289062 C 274.390625 216.824219 257.003906 216.824219 240.003906 213.625 C 237.636719 213.179688 235.28125 212.644531 232.976562 211.96875 C 222.308594 208.839844 209.855469 207.464844 197.207031 206.792969 C 174.15625 187.4375 137.730469 182.054688 118.800781 181.265625 C 117.484375 173.171875 116.636719 164.972656 116.59375 156.875 C 116.535156 145.226562 133.332031 151.457031 139.472656 153.730469 C 143.789062 155.3125 148.429688 156.644531 152.921875 155.675781 C 154.808594 155.269531 156.613281 154.46875 158.519531 154.285156 C 162.847656 153.882812 168.929688 159.386719 172.339844 161.671875 C 177.78125 165.316406 183.023438 169.253906 188.15625 173.3125 C 188.984375 173.089844 189.867188 173.105469 190.746094 173.0625 C 192.113281 172.996094 193.46875 172.988281 194.835938 173.003906 C 195.457031 173 196.074219 173.035156 196.691406 173.0625 C 200.703125 172.707031 204.804688 172.847656 208.726562 173.101562 C 218.863281 173.742188 228.921875 175.46875 238.695312 178.25 C 243.554688 179.636719 248.328125 181.277344 253 183.195312 C 254.867188 183.949219 256.777344 184.722656 258.667969 185.558594 C 258.722656 185.570312 258.789062 185.578125 258.84375 185.589844 C 261.308594 185.878906 263.746094 186.199219 266.226562 186.488281 C 267.714844 186.683594 269.199219 186.855469 270.679688 187.027344 C 284.535156 188.597656 298.578125 188.734375 312.273438 185.847656 C 319.203125 184.390625 326.460938 182.601562 332.957031 179.734375 C 337.960938 177.539062 343.765625 172.808594 342.273438 166.601562 C 342.035156 165.625 342.605469 164.722656 343.539062 164.417969 C 347.886719 163.007812 351.941406 160.925781 355.625 158.230469 C 357.410156 156.925781 359.066406 155.476562 360.613281 153.914062 C 363.164062 151.347656 368.449219 146.710938 371.292969 151.371094 C 373.628906 155.191406 374.550781 161.308594 374.664062 166.261719 Z M 374.664062 166.261719 " fill-opacity="1" fill-rule="nonzero"/><g mask="url(#3d80cab84c)"><g transform="matrix(1, 0, 0, 1, 116, 148)"><g clip-path="url(#9b88d42bad)"><g clip-path="url(#a6ae93fdb7)"><path fill="#2e2e2e" d="M 258.664062 18.261719 C 258.675781 19.210938 258.667969 20.113281 258.636719 20.949219 C 258.417969 26.230469 255.414062 32.351562 252.574219 36.765625 C 247.304688 44.957031 239.011719 50.925781 230.269531 54.890625 C 228.820312 55.546875 227.367188 56.191406 225.898438 56.828125 C 217.726562 60.375 209.34375 63.507812 200.6875 65.675781 C 192.246094 67.78125 184.253906 68.027344 175.621094 68.289062 C 158.390625 68.824219 141.003906 68.824219 124.003906 65.625 C 121.636719 65.179688 119.28125 64.644531 116.976562 63.96875 C 106.308594 60.839844 93.855469 59.464844 81.207031 58.792969 C 58.15625 39.4375 21.730469 34.054688 2.800781 33.265625 C 1.484375 25.171875 0.636719 16.972656 0.59375 8.875 C 0.535156 -2.773438 17.332031 3.457031 23.472656 5.730469 C 27.789062 7.3125 32.429688 8.644531 36.921875 7.675781 C 38.808594 7.269531 40.613281 6.46875 42.519531 6.285156 C 46.847656 5.882812 52.929688 11.386719 56.339844 13.671875 C 61.78125 17.316406 67.023438 21.253906 72.15625 25.3125 C 72.984375 25.089844 73.867188 25.105469 74.746094 25.0625 C 76.113281 24.996094 77.46875 24.988281 78.835938 25.003906 C 79.457031 25 80.074219 25.035156 80.691406 25.0625 C 84.703125 24.707031 88.804688 24.847656 92.726562 25.101562 C 102.863281 25.742188 112.921875 27.46875 122.695312 30.25 C 127.554688 31.636719 132.328125 33.277344 137 35.195312 C 138.867188 35.949219 140.777344 36.722656 142.667969 37.558594 C 142.722656 37.570312 142.789062 37.578125 142.84375 37.589844 C 145.308594 37.878906 147.746094 38.199219 150.226562 38.488281 C 151.714844 38.683594 153.199219 38.855469 154.679688 39.027344 C 168.535156 40.597656 182.578125 40.734375 196.273438 37.847656 C 203.203125 36.390625 210.460938 34.601562 216.957031 31.734375 C 221.960938 29.539062 227.765625 24.808594 226.273438 18.601562 C 226.035156 17.625 226.605469 16.722656 227.539062 16.417969 C 231.886719 15.007812 235.941406 12.925781 239.625 10.230469 C 241.410156 8.925781 243.066406 7.476562 244.613281 5.914062 C 247.164062 3.347656 252.449219 -1.289062 255.292969 3.371094 C 257.628906 7.191406 258.550781 13.308594 258.664062 18.261719 Z M 258.664062 18.261719 " fill-opacity="1" fill-rule="nonzero"/></g></g></g></g><path fill="#00bf63" d="M 216.128906 128.179688 C 219.703125 141.453125 207.492188 150.203125 194.316406 153.75 C 180.949219 157.347656 177.417969 140.304688 162.40625 130.808594 C 145.269531 119.96875 127.589844 117.609375 115.546875 113.367188 C 114.703125 109.195312 114.089844 105.027344 114.214844 100.863281 C 127.691406 111.226562 149.234375 118.75 171.464844 112.765625 C 177.757812 111.070312 184.234375 108.5 191.007812 105.152344 C 191.332031 104.988281 191.65625 104.863281 191.988281 104.777344 C 196.171875 103.648438 213.175781 117.207031 216.128906 128.179688 Z M 216.128906 128.179688 " fill-opacity="1" fill-rule="nonzero"/><path fill="#00bf63" d="M 359.566406 127.980469 C 359.835938 136.574219 342.9375 153.019531 333.136719 155.65625 C 318.621094 159.5625 303.425781 153.066406 289.417969 156.835938 C 282.140625 158.792969 274.417969 163.910156 266.777344 165.964844 C 259.179688 168.011719 248.097656 165.835938 246.359375 159.375 C 244.59375 152.8125 253.128906 143.917969 266.742188 140.253906 C 268.09375 139.890625 269.507812 139.574219 270.953125 139.324219 C 271.175781 139.289062 271.402344 139.242188 271.625 139.21875 C 288.636719 146.332031 304.859375 150.886719 315.199219 148.5 C 346.0625 141.347656 348.90625 125.15625 348.90625 125.15625 L 347.90625 122.617188 C 348.289062 122.476562 348.695312 122.339844 349.109375 122.226562 C 349.136719 122.222656 349.148438 122.21875 349.171875 122.210938 Z M 359.566406 127.980469 " fill-opacity="1" fill-rule="nonzero"/><path fill="#7ed957" d="M 197.207031 206.792969 C 161.871094 204.890625 125.054688 208.523438 121.445312 195.117188 C 121.40625 194.964844 121.359375 194.800781 121.332031 194.640625 C 120.375 190.246094 119.515625 185.777344 118.800781 181.269531 C 137.730469 182.054688 174.15625 187.441406 197.207031 206.792969 Z M 197.207031 206.792969 " fill-opacity="1" fill-rule="nonzero"/><path fill="#2e2e2e" d="M 211.242188 171.277344 C 199.957031 171.277344 193.253906 163.496094 184.570312 153.425781 C 172.421875 139.332031 157.304688 121.792969 121.3125 114.921875 C 121.070312 114.875 120.910156 114.644531 120.957031 114.402344 C 121.003906 114.160156 121.238281 114 121.476562 114.046875 C 157.777344 120.976562 173.652344 139.394531 185.246094 152.84375 C 195.609375 164.867188 203.097656 173.5625 219.132812 169.242188 C 223.605469 168.039062 228.257812 165.746094 232.964844 162.429688 C 233.167969 162.289062 233.445312 162.335938 233.585938 162.539062 C 233.730469 162.738281 233.679688 163.015625 233.480469 163.160156 C 228.683594 166.539062 223.9375 168.875 219.363281 170.105469 C 216.394531 170.90625 213.707031 171.277344 211.242188 171.277344 Z M 211.242188 171.277344 " fill-opacity="1" fill-rule="nonzero"/><path fill="#2e2e2e" d="M 194.355469 182.332031 C 194.21875 182.332031 194.082031 182.269531 193.996094 182.152344 C 188.652344 174.890625 165.976562 152.34375 154.738281 155.371094 C 154.101562 155.542969 153.464844 155.738281 152.828125 155.9375 C 152.179688 156.136719 151.527344 156.339844 150.871094 156.515625 C 146.160156 157.78125 141.804688 156.191406 137.195312 154.503906 C 133.546875 153.167969 129.777344 151.789062 125.503906 151.675781 C 125.257812 151.667969 125.0625 151.464844 125.070312 151.21875 C 125.078125 150.972656 125.25 150.761719 125.527344 150.785156 C 129.949219 150.902344 133.789062 152.308594 137.5 153.664062 C 141.976562 155.300781 146.203125 156.847656 150.640625 155.652344 C 151.285156 155.480469 151.925781 155.28125 152.566406 155.082031 C 153.214844 154.882812 153.859375 154.683594 154.507812 154.511719 C 167.003906 151.144531 190.601562 176.035156 194.714844 181.621094 C 194.859375 181.820312 194.820312 182.101562 194.621094 182.246094 C 194.539062 182.304688 194.445312 182.332031 194.355469 182.332031 Z M 194.355469 182.332031 " fill-opacity="1" fill-rule="nonzero"/><path fill="#2e2e2e" d="M 241.675781 199.09375 C 241.667969 199.09375 241.660156 199.09375 241.65625 199.09375 C 216.746094 197.980469 201.617188 196.757812 180.328125 184.585938 C 180.117188 184.460938 180.042969 184.1875 180.164062 183.976562 C 180.285156 183.761719 180.558594 183.6875 180.773438 183.808594 C 201.921875 195.902344 216.207031 197.0625 241.695312 198.203125 C 241.941406 198.214844 242.132812 198.425781 242.121094 198.667969 C 242.109375 198.910156 241.914062 199.09375 241.675781 199.09375 Z M 241.675781 199.09375 " fill-opacity="1" fill-rule="nonzero"/><path fill="#2e2e2e" d="M 293.382812 203.644531 C 277.164062 203.644531 267.640625 200.167969 258.398438 196.796875 C 247.910156 192.972656 238.007812 189.359375 219.070312 190.4375 C 218.832031 190.457031 218.613281 190.265625 218.597656 190.019531 C 218.582031 189.773438 218.769531 189.5625 219.015625 189.550781 C 238.132812 188.457031 248.59375 192.269531 258.703125 195.957031 C 268.894531 199.675781 279.433594 203.519531 299.039062 202.617188 C 299.289062 202.613281 299.492188 202.796875 299.503906 203.042969 C 299.515625 203.289062 299.324219 203.496094 299.078125 203.507812 C 297.09375 203.601562 295.195312 203.644531 293.382812 203.644531 Z M 293.382812 203.644531 " fill-opacity="1" fill-rule="nonzero"/><path fill="#2e2e2e" d="M 324.128906 201.121094 C 314.554688 201.121094 304.558594 198.757812 294.796875 196.453125 C 289.691406 195.246094 284.871094 194.109375 280.226562 193.335938 C 279.980469 193.296875 279.816406 193.066406 279.859375 192.824219 C 279.898438 192.582031 280.132812 192.417969 280.371094 192.457031 C 285.046875 193.234375 289.882812 194.375 295.003906 195.585938 C 308.816406 198.847656 323.097656 202.222656 335.863281 198.789062 C 339.785156 197.730469 343.417969 196.042969 346.65625 193.769531 C 346.855469 193.628906 347.136719 193.679688 347.277344 193.878906 C 347.417969 194.078125 347.371094 194.359375 347.167969 194.5 C 343.84375 196.832031 340.121094 198.5625 336.09375 199.648438 C 332.214844 200.691406 328.210938 201.121094 324.128906 201.121094 Z M 324.128906 201.121094 " fill-opacity="1" fill-rule="nonzero"/><path fill="#2e2e2e" d="M 344.289062 185.8125 C 344.140625 185.8125 343.996094 185.742188 343.910156 185.605469 C 343.777344 185.398438 343.839844 185.121094 344.050781 184.992188 C 349.230469 181.714844 350.675781 176.6875 348.730469 168.695312 C 348.671875 168.457031 348.820312 168.214844 349.058594 168.15625 C 349.300781 168.097656 349.539062 168.246094 349.597656 168.484375 C 350.867188 173.710938 351.726562 181.1875 344.523438 185.742188 C 344.449219 185.792969 344.367188 185.8125 344.289062 185.8125 Z M 344.289062 185.8125 " fill-opacity="1" fill-rule="nonzero"/><path fill="#2e2e2e" d="M 354.617188 183.03125 C 354.554688 183.03125 354.492188 183.019531 354.433594 182.992188 C 354.207031 182.890625 354.109375 182.625 354.210938 182.402344 C 356.511719 177.335938 357.121094 172.992188 356.082031 169.128906 C 355.65625 167.558594 354.949219 166.039062 353.96875 164.613281 C 353.832031 164.410156 353.882812 164.132812 354.085938 163.996094 C 354.289062 163.855469 354.566406 163.90625 354.707031 164.109375 C 355.742188 165.617188 356.492188 167.226562 356.941406 168.894531 C 358.039062 172.96875 357.410156 177.507812 355.023438 182.773438 C 354.949219 182.9375 354.785156 183.03125 354.617188 183.03125 Z M 354.617188 183.03125 " fill-opacity="1" fill-rule="nonzero"/><path fill="#2e2e2e" d="M 361.667969 178.367188 C 361.597656 178.367188 361.523438 178.347656 361.457031 178.3125 C 361.242188 178.191406 361.160156 177.921875 361.28125 177.707031 C 363.8125 173.0625 364.40625 167.824219 362.988281 162.566406 C 362.742188 161.648438 362.433594 160.726562 362.066406 159.820312 C 361.976562 159.589844 362.085938 159.332031 362.316406 159.238281 C 362.542969 159.148438 362.804688 159.257812 362.894531 159.484375 C 363.273438 160.425781 363.59375 161.386719 363.851562 162.335938 C 365.324219 167.820312 364.707031 173.285156 362.0625 178.132812 C 361.980469 178.28125 361.828125 178.367188 361.667969 178.367188 Z M 361.667969 178.367188 " fill-opacity="1" fill-rule="nonzero"/><path fill="#2e2e2e" d="M 369.535156 170.707031 C 369.519531 170.707031 369.5 170.707031 369.484375 170.707031 C 369.238281 170.675781 369.0625 170.457031 369.09375 170.210938 C 369.507812 166.554688 369.316406 163.417969 368.492188 160.347656 C 368.019531 158.597656 367.332031 156.828125 366.390625 154.941406 C 366.28125 154.71875 366.371094 154.453125 366.589844 154.34375 C 366.808594 154.230469 367.078125 154.320312 367.1875 154.542969 C 368.15625 156.484375 368.863281 158.304688 369.351562 160.117188 C 370.207031 163.300781 370.40625 166.539062 369.976562 170.3125 C 369.953125 170.539062 369.757812 170.707031 369.535156 170.707031 Z M 369.535156 170.707031 " fill-opacity="1" fill-rule="nonzero"/><path fill="#2e2e2e" d="M 290.292969 182.734375 C 271.125 182.734375 254.171875 176.84375 239.664062 165.09375 C 239.472656 164.941406 239.445312 164.660156 239.597656 164.46875 C 239.753906 164.277344 240.035156 164.246094 240.226562 164.402344 C 261.53125 181.65625 288.195312 186.132812 319.480469 177.714844 C 324.433594 176.382812 328.246094 174.710938 331.480469 172.453125 C 331.683594 172.308594 331.960938 172.359375 332.101562 172.5625 C 332.242188 172.761719 332.191406 173.042969 331.992188 173.183594 C 328.671875 175.5 324.769531 177.214844 319.710938 178.578125 C 309.402344 181.351562 299.585938 182.734375 290.292969 182.734375 Z M 290.292969 182.734375 " fill-opacity="1" fill-rule="nonzero"/><path fill="#2e2e2e" d="M 309.136719 149.769531 C 302.53125 149.769531 296.34375 148.847656 291.5 147.820312 C 291.261719 147.769531 291.105469 147.535156 291.15625 147.292969 C 291.207031 147.050781 291.449219 146.898438 291.6875 146.949219 C 300.015625 148.710938 312.359375 150.164062 323.859375 147.066406 C 334.921875 144.089844 342.902344 137.554688 347.574219 127.648438 C 347.679688 127.421875 347.945312 127.328125 348.167969 127.433594 C 348.390625 127.539062 348.484375 127.804688 348.378906 128.027344 C 343.59375 138.183594 335.421875 144.878906 324.09375 147.929688 C 319.132812 149.265625 314.019531 149.769531 309.136719 149.769531 Z M 309.136719 149.769531 " fill-opacity="1" fill-rule="nonzero"/><path fill="#2e2e2e" d="M 194.53125 156.011719 C 194.324219 156.011719 194.140625 155.867188 194.097656 155.65625 C 194.046875 155.414062 194.203125 155.179688 194.441406 155.128906 C 194.753906 155.066406 195.066406 154.988281 195.382812 154.90625 C 201.28125 153.316406 207.039062 149.929688 210.789062 145.835938 C 213.925781 142.417969 217.25 136.816406 215.296875 129.558594 C 213.183594 121.699219 205.484375 113.035156 195.207031 106.945312 C 194.992188 106.816406 194.921875 106.542969 195.050781 106.332031 C 195.175781 106.121094 195.449219 106.050781 195.660156 106.175781 C 203.867188 111.039062 213.5625 119.675781 216.15625 129.328125 C 218.214844 136.972656 214.730469 142.855469 211.445312 146.4375 C 207.53125 150.710938 201.757812 154.113281 195.613281 155.765625 C 195.28125 155.855469 194.949219 155.933594 194.625 156.003906 C 194.59375 156.007812 194.5625 156.011719 194.53125 156.011719 Z M 194.53125 156.011719 " fill-opacity="1" fill-rule="nonzero"/><path fill="#2e2e2e" d="M 222.851562 74.234375 C 222.65625 74.234375 222.476562 74.105469 222.421875 73.910156 C 220.59375 67.304688 217.449219 61.351562 212.8125 55.710938 C 212.65625 55.523438 212.683594 55.242188 212.871094 55.085938 C 213.0625 54.929688 213.34375 54.953125 213.5 55.144531 C 218.21875 60.882812 221.417969 66.941406 223.28125 73.671875 C 223.347656 73.910156 223.207031 74.15625 222.96875 74.21875 C 222.929688 74.230469 222.890625 74.234375 222.851562 74.234375 Z M 222.851562 74.234375 " fill-opacity="1" fill-rule="nonzero"/><path fill="#2e2e2e" d="M 214.363281 80.445312 C 214.160156 80.445312 213.972656 80.300781 213.929688 80.089844 C 213.800781 79.480469 213.65625 78.875 213.496094 78.285156 C 211.628906 71.339844 207.660156 65.914062 204.027344 61.523438 C 203.871094 61.332031 203.898438 61.050781 204.085938 60.894531 C 204.277344 60.738281 204.558594 60.761719 204.714844 60.953125 C 208.410156 65.417969 212.445312 70.941406 214.359375 78.050781 C 214.523438 78.65625 214.671875 79.28125 214.800781 79.90625 C 214.851562 80.148438 214.699219 80.382812 214.457031 80.433594 C 214.425781 80.441406 214.394531 80.445312 214.363281 80.445312 Z M 214.363281 80.445312 " fill-opacity="1" fill-rule="nonzero"/><path fill="#2e2e2e" d="M 204.257812 86.625 C 204.089844 86.625 203.933594 86.535156 203.855469 86.371094 C 200.277344 78.867188 196.976562 73.703125 192.820312 69.109375 C 192.65625 68.925781 192.671875 68.644531 192.851562 68.476562 C 193.035156 68.3125 193.316406 68.328125 193.484375 68.511719 C 197.699219 73.175781 201.042969 78.402344 204.660156 85.988281 C 204.765625 86.210938 204.671875 86.476562 204.449219 86.582031 C 204.386719 86.613281 204.324219 86.625 204.257812 86.625 Z M 204.257812 86.625 " fill-opacity="1" fill-rule="nonzero"/><path fill="#2e2e2e" d="M 195.160156 88.84375 C 195.019531 88.84375 194.875 88.773438 194.789062 88.648438 C 192.457031 85.148438 189.789062 81.59375 186.636719 77.777344 C 186.480469 77.585938 186.507812 77.304688 186.699219 77.148438 C 186.886719 76.992188 187.167969 77.019531 187.324219 77.207031 C 190.496094 81.050781 193.179688 84.628906 195.53125 88.152344 C 195.667969 88.355469 195.613281 88.632812 195.410156 88.769531 C 195.332031 88.820312 195.246094 88.84375 195.160156 88.84375 Z M 195.160156 88.84375 " fill-opacity="1" fill-rule="nonzero"/><path fill="#2e2e2e" d="M 152.433594 116.34375 C 139.035156 116.34375 127.785156 112.574219 118.828125 105.054688 C 118.640625 104.898438 118.617188 104.617188 118.773438 104.425781 C 118.929688 104.238281 119.210938 104.214844 119.402344 104.371094 C 133.160156 115.921875 152.480469 118.453125 176.824219 111.902344 C 178.429688 111.46875 180.070312 110.992188 181.699219 110.488281 C 181.9375 110.414062 182.183594 110.546875 182.257812 110.78125 C 182.332031 111.015625 182.199219 111.265625 181.964844 111.339844 C 180.324219 111.847656 178.671875 112.328125 177.054688 112.761719 C 168.1875 115.152344 159.96875 116.34375 152.433594 116.34375 Z M 152.433594 116.34375 " fill-opacity="1" fill-rule="nonzero"/><path fill="#2e2e2e" d="M 281.339844 217.320312 C 273.238281 217.320312 265.121094 216.886719 257.0625 216.011719 C 249.605469 215.207031 242.164062 213.726562 234.964844 212.300781 C 227.96875 210.910156 220.734375 209.472656 213.515625 208.660156 C 202.773438 207.449219 191.773438 207.140625 181.136719 206.84375 L 176.984375 206.726562 C 165.203125 206.378906 153.75 205.417969 141.066406 204.292969 C 140.320312 204.226562 139.5625 204.167969 138.800781 204.109375 C 134.714844 203.796875 130.496094 203.476562 126.714844 201.792969 C 119.671875 198.660156 118.890625 190.050781 118.261719 183.136719 C 118.195312 182.398438 118.128906 181.683594 118.058594 180.992188 C 118.035156 180.746094 118.210938 180.527344 118.457031 180.503906 C 118.699219 180.476562 118.921875 180.65625 118.945312 180.902344 C 119.019531 181.59375 119.082031 182.316406 119.152344 183.054688 C 119.757812 189.738281 120.515625 198.058594 127.082031 200.980469 C 130.71875 202.597656 134.859375 202.914062 138.867188 203.222656 C 139.632812 203.28125 140.394531 203.339844 141.148438 203.40625 C 153.8125 204.53125 165.253906 205.492188 177.011719 205.835938 L 181.164062 205.953125 C 191.820312 206.253906 202.835938 206.5625 213.617188 207.777344 C 220.871094 208.59375 228.125 210.03125 235.140625 211.425781 C 242.320312 212.851562 249.742188 214.324219 257.15625 215.125 C 272.480469 216.785156 287.992188 216.863281 303.265625 215.355469 C 303.507812 215.332031 303.730469 215.511719 303.753906 215.753906 C 303.777344 216 303.597656 216.21875 303.351562 216.242188 C 296.054688 216.960938 288.703125 217.320312 281.339844 217.320312 Z M 281.339844 217.320312 " fill-opacity="1" fill-rule="nonzero"/><path fill="#2e2e2e" d="M 188.917969 201.773438 C 188.824219 201.773438 188.734375 201.746094 188.65625 201.691406 C 169.484375 187.835938 149.171875 181.183594 126.5625 181.285156 C 126.5625 181.285156 126.5625 181.285156 126.558594 181.285156 C 126.316406 181.285156 126.117188 181.089844 126.113281 180.84375 C 126.113281 180.597656 126.3125 180.394531 126.558594 180.394531 C 149.375 180.28125 169.847656 186.996094 189.179688 200.96875 C 189.378906 201.113281 189.421875 201.390625 189.277344 201.589844 C 189.191406 201.710938 189.054688 201.773438 188.917969 201.773438 Z M 188.917969 201.773438 " fill-opacity="1" fill-rule="nonzero"/><path fill="#2e2e2e" d="M 173.003906 198.089844 C 172.929688 198.089844 172.851562 198.070312 172.78125 198.03125 C 160.582031 191.027344 145.800781 187.398438 128.851562 187.246094 C 128.605469 187.246094 128.40625 187.042969 128.410156 186.796875 C 128.414062 186.550781 128.582031 186.339844 128.859375 186.355469 C 145.964844 186.511719 160.890625 190.179688 173.226562 197.257812 C 173.441406 197.378906 173.515625 197.652344 173.390625 197.867188 C 173.308594 198.007812 173.160156 198.089844 173.003906 198.089844 Z M 173.003906 198.089844 " fill-opacity="1" fill-rule="nonzero"/><path fill="#2e2e2e" d="M 334.335938 155.71875 C 334.164062 155.71875 334 155.617188 333.925781 155.449219 C 333.828125 155.222656 333.933594 154.960938 334.160156 154.863281 C 346.386719 149.5625 353.761719 142.175781 357.367188 131.617188 C 357.445312 131.382812 357.699219 131.257812 357.929688 131.339844 C 358.164062 131.417969 358.289062 131.671875 358.207031 131.90625 C 354.519531 142.71875 346.988281 150.273438 334.511719 155.679688 C 334.457031 155.707031 334.394531 155.71875 334.335938 155.71875 Z M 334.335938 155.71875 " fill-opacity="1" fill-rule="nonzero"/><path fill="#7ed957" d="M 223.546875 312.519531 C 174.679688 338.199219 130.558594 287.394531 92.609375 264.265625 C 68.453125 249.542969 27.25 248.742188 17.207031 217.417969 C 13.980469 207.398438 13.863281 196.5 17.496094 186.582031 C 21.046875 176.910156 27.550781 168.601562 30.359375 158.617188 C 31.566406 154.324219 32.46875 149.847656 33.597656 145.488281 C 34.648438 141.367188 35.902344 137.34375 37.820312 133.644531 C 39.492188 130.378906 41.679688 127.367188 44.691406 124.773438 C 51.199219 119.164062 59.863281 115.183594 68.558594 115.890625 C 78.777344 116.722656 87.511719 122.132812 96.335938 126.820312 C 100.914062 129.238281 105.636719 131.6875 110.792969 132.554688 C 111.179688 132.613281 111.574219 132.652344 111.953125 132.683594 C 115.566406 133 121.726562 129.847656 125.667969 129.328125 C 131.316406 128.566406 137.261719 128.355469 142.867188 129.632812 C 156.976562 132.828125 159.132812 144.621094 156.265625 157.367188 C 177.929688 186.980469 199.203125 217.679688 226.835938 242.214844 C 233.695312 248.324219 241.050781 254.171875 245.824219 262.011719 C 249.496094 268.042969 250.570312 274.164062 249.78125 280.035156 C 247.945312 293.683594 236.015625 305.953125 223.546875 312.519531 Z M 223.546875 312.519531 " fill-opacity="1" fill-rule="nonzero"/><path fill="#2e2e2e" d="M 179.171875 241.53125 C 178.996094 241.53125 178.828125 241.425781 178.757812 241.25 C 178.667969 241.023438 178.777344 240.761719 179.003906 240.671875 C 183.890625 238.71875 188.972656 237.113281 193.886719 235.5625 C 199.410156 233.816406 205.121094 232.015625 210.539062 229.714844 C 210.765625 229.621094 211.027344 229.726562 211.125 229.953125 C 211.21875 230.179688 211.113281 230.441406 210.886719 230.535156 C 205.429688 232.851562 199.699219 234.660156 194.15625 236.410156 C 189.253906 237.957031 184.1875 239.558594 179.335938 241.5 C 179.28125 241.519531 179.226562 241.53125 179.171875 241.53125 Z M 179.171875 241.53125 " fill-opacity="1" fill-rule="nonzero"/><path fill="#2e2e2e" d="M 167.546875 235.988281 C 167.402344 235.988281 167.261719 235.917969 167.175781 235.789062 C 153.1875 214.996094 138.226562 192.925781 122.707031 171.765625 C 122.5625 171.566406 122.605469 171.285156 122.800781 171.140625 C 123 170.996094 123.28125 171.039062 123.425781 171.234375 C 138.957031 192.414062 153.921875 214.492188 167.917969 235.292969 C 168.054688 235.496094 168 235.773438 167.796875 235.910156 C 167.71875 235.960938 167.632812 235.988281 167.546875 235.988281 Z M 167.546875 235.988281 " fill-opacity="1" fill-rule="nonzero"/><path fill="#00bf63" d="M 139.179688 161.089844 C 137.542969 162.882812 134.757812 163.640625 132.238281 163.996094 C 125.328125 164.976562 118.421875 164.488281 111.492188 164.484375 C 104.304688 164.476562 97.054688 164.140625 89.984375 162.789062 C 79.640625 160.804688 69.613281 156.449219 60.878906 150.601562 C 54.722656 146.480469 46.078125 140.601562 49.386719 131.902344 C 51.210938 127.105469 56.289062 124.082031 61.179688 123.285156 C 69.890625 121.871094 78.46875 125.710938 86.023438 129.582031 C 94.414062 133.878906 102.582031 137.191406 111.558594 140.007812 C 119.101562 142.375 126.574219 145.109375 133.519531 148.925781 C 135.53125 150.03125 137.542969 151.265625 138.949219 153.082031 C 140.355469 154.898438 141.054688 157.421875 140.171875 159.542969 C 139.929688 160.128906 139.589844 160.640625 139.179688 161.089844 Z M 139.179688 161.089844 " fill-opacity="1" fill-rule="nonzero"/><g mask="url(#4738bd0c0f)"><g transform="matrix(1, 0, 0, 1, 47, 122)"><g clip-path="url(#ebe2a51034)"><g clip-path="url(#608c5ea6f4)"><path fill="#2e2e2e" d="M 92.179688 39.089844 C 90.542969 40.882812 87.757812 41.640625 85.238281 41.996094 C 78.328125 42.976562 71.421875 42.488281 64.492188 42.484375 C 57.304688 42.476562 50.054688 42.140625 42.984375 40.789062 C 32.640625 38.804688 22.613281 34.449219 13.878906 28.601562 C 7.722656 24.480469 -0.921875 18.601562 2.386719 9.902344 C 4.210938 5.105469 9.289062 2.082031 14.179688 1.285156 C 22.890625 -0.128906 31.46875 3.710938 39.023438 7.582031 C 47.414062 11.878906 55.582031 15.191406 64.558594 18.007812 C 72.101562 20.375 79.574219 23.109375 86.519531 26.925781 C 88.53125 28.03125 90.542969 29.265625 91.949219 31.082031 C 93.355469 32.898438 94.054688 35.421875 93.171875 37.542969 C 92.929688 38.128906 92.589844 38.640625 92.179688 39.089844 Z M 92.179688 39.089844 " fill-opacity="1" fill-rule="nonzero"/></g></g></g></g><path fill="#00bf63" d="M 103.230469 165.730469 C 103.230469 165.730469 96.617188 151.785156 102.429688 141.890625 C 108.242188 131.992188 117.445312 128.945312 130.019531 127.191406 C 142.59375 125.441406 164.148438 124.085938 156.265625 157.371094 C 156.265625 157.367188 134.746094 169.992188 103.230469 165.730469 Z M 103.230469 165.730469 " fill-opacity="1" fill-rule="nonzero"/><path fill="#c1ff72" d="M 139.960938 180.664062 C 139.101562 182.410156 137.972656 184.0625 136.953125 185.71875 C 136.207031 186.933594 135.582031 188.226562 134.847656 189.445312 C 134.402344 190.183594 134.269531 191.113281 134.589844 192.023438 C 135.027344 193.269531 136.222656 194.085938 137.542969 194.035156 C 141.746094 193.863281 149.902344 195.152344 159.230469 197.097656 C 156.351562 202.507812 153.777344 207.652344 152.160156 210.945312 C 151.449219 212.398438 150.914062 213.917969 150.914062 215.277344 C 150.914062 216.828125 151.609375 218.171875 153.539062 218.964844 C 153.945312 219.132812 154.390625 219.210938 154.847656 219.183594 C 158.804688 218.933594 166.121094 219.816406 174.53125 221.226562 C 171.480469 226.953125 168.792969 232.273438 167.210938 235.457031 C 166.464844 236.957031 167.085938 238.769531 168.59375 239.503906 L 168.679688 239.546875 C 170.171875 240.273438 171.96875 239.667969 172.707031 238.1875 C 174.789062 234.007812 177.769531 228.179688 180.90625 222.355469 C 189.542969 223.960938 198.699219 225.933594 206.246094 227.710938 C 207.863281 228.089844 209.476562 227.09375 209.867188 225.480469 L 209.890625 225.382812 C 210.28125 223.757812 209.28125 222.121094 207.652344 221.738281 C 202.511719 220.523438 193.488281 218.472656 184.03125 216.671875 C 187.015625 211.359375 189.917969 206.53125 192.125 203.59375 C 192.953125 202.496094 192.867188 200.945312 192.058594 199.859375 C 191.414062 198.996094 190.429688 198.445312 189.410156 198.089844 C 182.738281 195.757812 175.460938 194.414062 168.582031 192.824219 C 168.777344 192.871094 171.859375 187.261719 172.203125 186.714844 C 173.328125 184.917969 174.980469 183.445312 175.644531 181.371094 C 176.019531 180.199219 176.011719 179.207031 175.726562 178.351562 C 174.625 175.042969 169.371094 173.871094 166.253906 172.925781 C 161.871094 171.601562 157.472656 170.328125 153.054688 169.125 C 155.128906 165.496094 157.132812 162.25 158.8125 160.023438 C 159.722656 158.820312 159.601562 157.136719 158.535156 156.074219 L 158.472656 156.011719 C 157.179688 154.726562 155.039062 154.855469 153.945312 156.316406 C 151.804688 159.167969 149.347656 163.203125 146.925781 167.503906 C 136.820312 164.925781 126.472656 162.78125 120.183594 162.835938 C 118.097656 162.855469 116.636719 164.894531 117.328125 166.863281 C 117.761719 168.089844 118.925781 168.90625 120.226562 168.875 C 124.707031 168.765625 133.742188 170.5625 143.871094 173.101562 C 142.46875 175.730469 141.140625 178.320312 139.960938 180.664062 M 143.058594 188.222656 C 144.964844 184.324219 147.425781 179.441406 149.980469 174.683594 C 156.472656 176.421875 163.121094 178.359375 169.09375 180.21875 C 166.976562 183.328125 164.621094 187.292969 162.316406 191.429688 C 155.414062 189.960938 148.554688 188.730469 143.058594 188.222656 Z M 157.929688 213.125 C 159.941406 209.054688 162.652344 203.722656 165.484375 198.453125 C 171.988281 199.917969 178.742188 201.597656 184.917969 203.246094 C 182.636719 206.714844 180.101562 211.058594 177.636719 215.507812 C 170.34375 214.253906 163.257812 213.296875 157.929688 213.125 Z M 157.929688 213.125 " fill-opacity="1" fill-rule="nonzero"/><path fill="#2e2e2e" d="M 174.1875 237.609375 C 174.136719 237.609375 174.082031 237.597656 174.035156 237.582031 C 173.800781 237.496094 173.683594 237.238281 173.769531 237.007812 C 178.589844 223.90625 191.621094 203.558594 191.75 203.351562 C 191.882812 203.148438 192.160156 203.085938 192.367188 203.21875 C 192.574219 203.351562 192.632812 203.628906 192.503906 203.835938 C 192.371094 204.039062 179.390625 224.308594 174.605469 237.316406 C 174.539062 237.496094 174.371094 237.609375 174.1875 237.609375 Z M 174.1875 237.609375 " fill-opacity="1" fill-rule="nonzero"/><path fill="#2e2e2e" d="M 157.527344 215.683594 C 157.476562 215.683594 157.425781 215.675781 157.375 215.65625 C 157.144531 215.570312 157.023438 215.3125 157.109375 215.082031 C 161.929688 201.984375 174.960938 181.632812 175.09375 181.429688 C 175.226562 181.222656 175.503906 181.160156 175.710938 181.292969 C 175.917969 181.425781 175.976562 181.703125 175.84375 181.910156 C 175.710938 182.113281 162.734375 202.382812 157.945312 215.390625 C 157.878906 215.570312 157.710938 215.683594 157.527344 215.683594 Z M 157.527344 215.683594 " fill-opacity="1" fill-rule="nonzero"/><path fill="#2e2e2e" d="M 140.738281 194.398438 C 140.683594 194.398438 140.632812 194.390625 140.582031 194.371094 C 140.351562 194.285156 140.234375 194.03125 140.316406 193.796875 C 145.136719 180.699219 158.171875 160.347656 158.300781 160.144531 C 158.433594 159.9375 158.710938 159.878906 158.917969 160.011719 C 159.125 160.144531 159.183594 160.417969 159.050781 160.625 C 158.921875 160.828125 145.941406 181.097656 141.15625 194.105469 C 141.089844 194.285156 140.917969 194.398438 140.738281 194.398438 Z M 140.738281 194.398438 " fill-opacity="1" fill-rule="nonzero"/><path fill="#00bf63" d="M 244.171875 305.488281 C 243.773438 306.347656 243.371094 307.160156 242.980469 307.898438 C 240.496094 312.566406 235.136719 316.777344 230.664062 319.523438 C 222.363281 324.621094 212.300781 326.402344 202.703125 326.1875 C 201.113281 326.152344 199.523438 326.101562 197.925781 326.039062 C 189.023438 325.695312 180.113281 324.882812 171.371094 323.082031 C 162.851562 321.320312 155.542969 318.074219 147.648438 314.570312 C 131.890625 307.582031 116.222656 300.046875 102.289062 289.792969 C 100.347656 288.367188 98.457031 286.863281 96.675781 285.253906 C 88.417969 277.8125 77.792969 271.175781 66.6875 265.082031 C 54.300781 237.648438 23.8125 217.007812 7.09375 208.089844 C 9.421875 200.222656 12.210938 192.46875 15.679688 185.152344 C 20.679688 174.628906 33.117188 187.527344 37.664062 192.238281 C 40.867188 195.535156 44.472656 198.746094 48.9375 199.824219 C 50.816406 200.273438 52.789062 200.332031 54.585938 200.996094 C 58.660156 202.507812 61.753906 210.105469 63.839844 213.644531 C 67.164062 219.285156 70.179688 225.109375 73.046875 230.992188 C 73.890625 231.148438 74.675781 231.546875 75.488281 231.886719 C 76.746094 232.421875 77.976562 233 79.199219 233.605469 C 79.761719 233.871094 80.300781 234.175781 80.847656 234.464844 C 84.613281 235.882812 88.25 237.789062 91.671875 239.714844 C 100.53125 244.6875 108.847656 250.605469 116.445312 257.351562 C 120.222656 260.707031 123.816406 264.25 127.195312 268.007812 C 128.550781 269.496094 129.9375 271.019531 131.277344 272.59375 C 131.320312 272.625 131.378906 272.660156 131.421875 272.695312 C 133.519531 274.027344 135.578125 275.371094 137.6875 276.703125 C 138.941406 277.527344 140.203125 278.324219 141.464844 279.125 C 153.269531 286.546875 165.867188 292.753906 179.460938 296.09375 C 186.335938 297.78125 193.652344 299.316406 200.75 299.550781 C 206.207031 299.738281 213.492188 297.992188 214.835938 291.753906 C 215.046875 290.769531 215.949219 290.203125 216.925781 290.335938 C 221.453125 290.945312 226.007812 290.828125 230.496094 289.996094 C 232.671875 289.59375 234.792969 289.003906 236.863281 288.269531 C 240.273438 287.0625 247.046875 285.171875 247.589844 290.605469 C 248.039062 295.0625 246.214844 300.976562 244.171875 305.488281 Z M 244.171875 305.488281 " fill-opacity="1" fill-rule="nonzero"/><g mask="url(#1ccc26de73)"><g transform="matrix(1, 0, 0, 1, 6, 180)"><g clip-path="url(#e8587f317d)"><g clip-path="url(#3695e6458a)"><path fill="#2e2e2e" d="M 238.171875 125.488281 C 237.773438 126.347656 237.371094 127.160156 236.980469 127.898438 C 234.496094 132.566406 229.136719 136.777344 224.664062 139.523438 C 216.363281 144.621094 206.300781 146.402344 196.703125 146.1875 C 195.113281 146.152344 193.523438 146.101562 191.925781 146.039062 C 183.023438 145.695312 174.113281 144.882812 165.371094 143.082031 C 156.851562 141.320312 149.542969 138.074219 141.648438 134.570312 C 125.890625 127.582031 110.222656 120.046875 96.289062 109.792969 C 94.347656 108.367188 92.457031 106.863281 90.675781 105.253906 C 82.417969 97.8125 71.792969 91.175781 60.6875 85.082031 C 48.300781 57.648438 17.8125 37.007812 1.09375 28.089844 C 3.421875 20.222656 6.210938 12.46875 9.679688 5.152344 C 14.679688 -5.371094 27.117188 7.527344 31.664062 12.238281 C 34.867188 15.535156 38.472656 18.746094 42.9375 19.824219 C 44.816406 20.273438 46.789062 20.332031 48.585938 20.996094 C 52.660156 22.507812 55.753906 30.105469 57.839844 33.644531 C 61.164062 39.285156 64.179688 45.109375 67.046875 50.992188 C 67.890625 51.148438 68.675781 51.546875 69.488281 51.886719 C 70.746094 52.421875 71.976562 53 73.199219 53.605469 C 73.761719 53.871094 74.300781 54.175781 74.847656 54.464844 C 78.613281 55.882812 82.25 57.789062 85.671875 59.714844 C 94.53125 64.6875 102.847656 70.605469 110.445312 77.351562 C 114.222656 80.707031 117.816406 84.25 121.195312 88.007812 C 122.550781 89.496094 123.9375 91.019531 125.277344 92.59375 C 125.320312 92.625 125.378906 92.660156 125.421875 92.695312 C 127.519531 94.027344 129.578125 95.371094 131.6875 96.703125 C 132.941406 97.527344 134.203125 98.324219 135.464844 99.125 C 147.269531 106.546875 159.867188 112.753906 173.460938 116.09375 C 180.335938 117.78125 187.652344 119.316406 194.75 119.550781 C 200.207031 119.738281 207.492188 117.992188 208.835938 111.753906 C 209.046875 110.769531 209.949219 110.203125 210.925781 110.335938 C 215.453125 110.945312 220.007812 110.828125 224.496094 109.996094 C 226.671875 109.59375 228.792969 109.003906 230.863281 108.269531 C 234.273438 107.0625 241.046875 105.171875 241.589844 110.605469 C 242.039062 115.0625 240.214844 120.976562 238.171875 125.488281 Z M 238.171875 125.488281 " fill-opacity="1" fill-rule="nonzero"/></g></g></g></g><path fill="#00bf63" d="M 117.816406 202.445312 C 115.285156 215.953125 100.488281 218.546875 87.078125 216.03125 C 73.472656 213.476562 77.675781 196.585938 68.265625 181.523438 C 57.523438 164.324219 42.613281 154.535156 33.597656 145.492188 C 34.648438 141.367188 35.902344 137.34375 37.820312 133.648438 C 45.472656 148.828125 61.625 164.945312 84.253906 169.191406 C 90.65625 170.394531 97.609375 170.886719 105.164062 170.804688 C 105.527344 170.796875 105.871094 170.824219 106.210938 170.886719 C 110.464844 171.6875 119.914062 191.277344 117.816406 202.445312 Z M 117.816406 202.445312 " fill-opacity="1" fill-rule="nonzero"/><path fill="#00bf63" d="M 247.164062 264.445312 C 243.679688 272.308594 221.320312 279.800781 211.347656 277.929688 C 196.570312 275.15625 185.695312 262.714844 171.441406 260.039062 C 164.035156 258.652344 154.855469 259.914062 147.078125 258.453125 C 139.347656 257.003906 130.300781 250.238281 131.535156 243.664062 C 132.789062 236.980469 144.335938 232.667969 158.195312 235.269531 C 159.570312 235.527344 160.980469 235.851562 162.390625 236.253906 C 162.605469 236.320312 162.832031 236.375 163.042969 236.453125 C 175.289062 250.238281 187.933594 261.375 198.285156 263.703125 C 229.195312 270.640625 238.78125 257.28125 238.78125 257.28125 L 238.980469 254.558594 C 239.386719 254.597656 239.8125 254.652344 240.234375 254.730469 C 240.257812 254.734375 240.269531 254.738281 240.292969 254.742188 Z M 247.164062 264.445312 " fill-opacity="1" fill-rule="nonzero"/><path fill="#7ed957" d="M 66.6875 265.082031 C 35.667969 248.050781 0.917969 235.363281 3.476562 221.722656 C 3.507812 221.5625 3.539062 221.394531 3.578125 221.242188 C 4.625 216.867188 5.789062 212.464844 7.09375 208.089844 C 23.8125 217.007812 54.300781 237.652344 66.6875 265.082031 Z M 66.6875 265.082031 " fill-opacity="1" fill-rule="nonzero"/><path fill="#2e2e2e" d="M 109.601562 242.25 C 107.117188 242.25 104.765625 242.042969 102.558594 241.628906 C 85.691406 238.460938 82.644531 227.160156 78.433594 211.511719 C 73.597656 193.546875 67.574219 171.1875 38.121094 149.394531 C 37.921875 149.246094 37.878906 148.96875 38.027344 148.769531 C 38.171875 148.574219 38.453125 148.53125 38.648438 148.675781 C 68.355469 170.65625 74.679688 194.136719 79.292969 211.28125 C 83.421875 226.613281 86.40625 237.691406 102.722656 240.75 C 107.273438 241.605469 112.464844 241.558594 118.140625 240.609375 C 118.386719 240.566406 118.617188 240.730469 118.65625 240.972656 C 118.695312 241.214844 118.53125 241.445312 118.289062 241.488281 C 115.25 241.996094 112.347656 242.25 109.601562 242.25 Z M 109.601562 242.25 " fill-opacity="1" fill-rule="nonzero"/><path fill="#2e2e2e" d="M 74.914062 241.847656 C 74.703125 241.847656 74.515625 241.699219 74.472656 241.484375 C 72.808594 232.628906 62.140625 202.480469 50.707031 200.335938 C 50.058594 200.214844 49.402344 200.113281 48.742188 200.015625 C 48.070312 199.914062 47.394531 199.8125 46.726562 199.6875 C 41.933594 198.789062 38.699219 195.464844 35.273438 191.945312 C 32.566406 189.164062 29.765625 186.285156 25.964844 184.332031 C 25.746094 184.21875 25.660156 183.949219 25.773438 183.730469 C 25.886719 183.511719 26.152344 183.425781 26.371094 183.539062 C 30.304688 185.558594 33.15625 188.488281 35.914062 191.324219 C 39.234375 194.738281 42.375 197.964844 46.890625 198.8125 C 47.546875 198.933594 48.210938 199.035156 48.875 199.132812 C 49.542969 199.234375 50.214844 199.335938 50.871094 199.457031 C 63.597656 201.847656 74.066406 234.5 75.351562 241.320312 C 75.398438 241.5625 75.238281 241.796875 74.996094 241.839844 C 74.96875 241.847656 74.941406 241.847656 74.914062 241.847656 Z M 74.914062 241.847656 " fill-opacity="1" fill-rule="nonzero"/><path fill="#2e2e2e" d="M 110.289062 277.46875 C 110.214844 277.46875 110.144531 277.453125 110.078125 277.414062 C 88.113281 265.613281 75.011719 257.953125 61.105469 237.753906 C 60.964844 237.550781 61.019531 237.273438 61.21875 237.132812 C 61.421875 236.996094 61.699219 237.042969 61.839844 237.25 C 75.65625 257.316406 88.027344 264.554688 110.5 276.628906 C 110.714844 276.746094 110.796875 277.015625 110.679688 277.234375 C 110.601562 277.382812 110.445312 277.46875 110.289062 277.46875 Z M 110.289062 277.46875 " fill-opacity="1" fill-rule="nonzero"/><path fill="#2e2e2e" d="M 160.085938 306.320312 C 160.027344 306.320312 159.96875 306.308594 159.910156 306.285156 C 141.691406 298.53125 133.796875 290.433594 126.160156 282.601562 C 118.371094 274.609375 111.007812 267.058594 93.476562 259.824219 C 93.25 259.730469 93.140625 259.46875 93.234375 259.242188 C 93.328125 259.015625 93.589844 258.90625 93.816406 259 C 111.519531 266.304688 119.289062 274.273438 126.800781 281.980469 C 134.375 289.75 142.203125 297.785156 160.261719 305.46875 C 160.488281 305.5625 160.59375 305.824219 160.496094 306.050781 C 160.425781 306.21875 160.257812 306.320312 160.085938 306.320312 Z M 160.085938 306.320312 " fill-opacity="1" fill-rule="nonzero"/><path fill="#2e2e2e" d="M 201.542969 319.472656 C 199.351562 319.472656 197.144531 319.265625 194.941406 318.851562 C 181.726562 316.375 170.230469 307.070312 159.113281 298.074219 C 155.035156 294.773438 151.183594 291.65625 147.332031 288.945312 C 147.128906 288.804688 147.082031 288.527344 147.222656 288.324219 C 147.363281 288.125 147.640625 288.074219 147.84375 288.21875 C 151.722656 290.945312 155.585938 294.070312 159.675781 297.378906 C 170.707031 306.308594 182.113281 315.539062 195.105469 317.976562 C 199.097656 318.726562 203.101562 318.78125 207.007812 318.136719 C 207.253906 318.09375 207.484375 318.257812 207.519531 318.503906 C 207.5625 318.746094 207.398438 318.976562 207.152344 319.015625 C 205.300781 319.320312 203.429688 319.472656 201.542969 319.472656 Z M 201.542969 319.472656 " fill-opacity="1" fill-rule="nonzero"/><path fill="#2e2e2e" d="M 208.511719 309.984375 C 208.289062 309.984375 208.097656 309.816406 208.070312 309.589844 C 208.042969 309.34375 208.21875 309.125 208.460938 309.09375 C 214.550781 308.386719 218.03125 304.484375 219.746094 296.441406 C 219.796875 296.199219 220.039062 296.046875 220.273438 296.097656 C 220.515625 296.148438 220.667969 296.382812 220.617188 296.625 C 219.496094 301.886719 217.027344 308.996094 208.566406 309.980469 C 208.546875 309.980469 208.53125 309.984375 208.511719 309.984375 Z M 208.511719 309.984375 " fill-opacity="1" fill-rule="nonzero"/><path fill="#2e2e2e" d="M 219.03125 311.957031 C 218.902344 311.957031 218.777344 311.902344 218.6875 311.796875 C 218.53125 311.609375 218.554688 311.324219 218.742188 311.167969 C 223.011719 307.597656 225.445312 303.949219 226.183594 300.015625 C 226.484375 298.414062 226.503906 296.738281 226.238281 295.035156 C 226.199219 294.789062 226.367188 294.5625 226.609375 294.523438 C 226.855469 294.484375 227.082031 294.65625 227.121094 294.898438 C 227.398438 296.703125 227.378906 298.480469 227.058594 300.179688 C 226.28125 304.324219 223.746094 308.144531 219.316406 311.851562 C 219.230469 311.921875 219.128906 311.957031 219.03125 311.957031 Z M 219.03125 311.957031 " fill-opacity="1" fill-rule="nonzero"/><path fill="#2e2e2e" d="M 227.410156 310.804688 C 227.269531 310.804688 227.132812 310.742188 227.046875 310.621094 C 226.902344 310.421875 226.949219 310.140625 227.148438 310 C 231.445312 306.914062 234.25 302.449219 235.253906 297.097656 C 235.425781 296.171875 235.546875 295.203125 235.613281 294.21875 C 235.632812 293.976562 235.839844 293.785156 236.089844 293.804688 C 236.335938 293.820312 236.519531 294.035156 236.503906 294.28125 C 236.4375 295.296875 236.308594 296.300781 236.128906 297.261719 C 235.082031 302.847656 232.15625 307.5 227.667969 310.722656 C 227.589844 310.78125 227.5 310.804688 227.410156 310.804688 Z M 227.410156 310.804688 " fill-opacity="1" fill-rule="nonzero"/><path fill="#2e2e2e" d="M 237.8125 307.316406 C 237.734375 307.316406 237.652344 307.296875 237.578125 307.25 C 237.371094 307.117188 237.308594 306.839844 237.4375 306.632812 C 239.398438 303.515625 240.585938 300.609375 241.171875 297.484375 C 241.507812 295.699219 241.65625 293.808594 241.625 291.699219 C 241.621094 291.453125 241.816406 291.25 242.0625 291.25 C 242.3125 291.234375 242.511719 291.441406 242.515625 291.6875 C 242.546875 293.855469 242.394531 295.804688 242.046875 297.648438 C 241.441406 300.890625 240.214844 303.894531 238.191406 307.109375 C 238.109375 307.242188 237.964844 307.316406 237.8125 307.316406 Z M 237.8125 307.316406 " fill-opacity="1" fill-rule="nonzero"/><path fill="#2e2e2e" d="M 197.683594 293.621094 C 195.117188 293.621094 192.371094 293.335938 189.3125 292.761719 C 157.175781 286.734375 134.871094 270.972656 123.023438 245.914062 C 122.917969 245.691406 123.011719 245.425781 123.238281 245.320312 C 123.457031 245.210938 123.726562 245.308594 123.832031 245.53125 C 135.550781 270.316406 157.636719 285.914062 189.476562 291.886719 C 194.519531 292.832031 198.683594 292.976562 202.574219 292.34375 C 202.820312 292.300781 203.046875 292.472656 203.085938 292.714844 C 203.125 292.957031 202.960938 293.1875 202.714844 293.226562 C 201.097656 293.488281 199.429688 293.621094 197.683594 293.621094 Z M 197.683594 293.621094 " fill-opacity="1" fill-rule="nonzero"/><path fill="#2e2e2e" d="M 214.390625 267.800781 C 211.84375 267.800781 209.230469 267.550781 206.546875 267.046875 C 194.664062 264.816406 184.042969 258.078125 177.222656 252.816406 C 177.027344 252.667969 176.992188 252.386719 177.144531 252.191406 C 177.292969 251.996094 177.574219 251.960938 177.769531 252.113281 C 184.507812 257.3125 195.003906 263.972656 206.710938 266.167969 C 217.972656 268.28125 227.996094 265.851562 236.5 258.945312 C 236.691406 258.789062 236.972656 258.820312 237.128906 259.011719 C 237.28125 259.203125 237.253906 259.484375 237.0625 259.636719 C 230.371094 265.070312 222.769531 267.800781 214.390625 267.800781 Z M 214.390625 267.800781 " fill-opacity="1" fill-rule="nonzero"/><path fill="#2e2e2e" d="M 93.886719 219.011719 C 91.710938 219.011719 89.515625 218.8125 87.371094 218.410156 C 87.03125 218.347656 86.699219 218.273438 86.375 218.195312 C 86.136719 218.132812 85.992188 217.890625 86.050781 217.652344 C 86.109375 217.414062 86.355469 217.269531 86.59375 217.328125 C 86.898438 217.40625 87.214844 217.472656 87.535156 217.535156 C 93.539062 218.660156 100.199219 218.101562 105.351562 216.039062 C 109.660156 214.316406 115.085938 210.710938 116.46875 203.324219 C 117.96875 195.328125 114.789062 184.179688 108.167969 174.234375 C 108.03125 174.03125 108.085938 173.753906 108.292969 173.617188 C 108.496094 173.480469 108.773438 173.535156 108.910156 173.742188 C 114.199219 181.683594 119.1875 193.667969 117.347656 203.488281 C 115.886719 211.273438 110.195312 215.058594 105.683594 216.867188 C 102.144531 218.285156 98.050781 219.011719 93.886719 219.011719 Z M 93.886719 219.011719 " fill-opacity="1" fill-rule="nonzero"/><path fill="#2e2e2e" d="M 147.453125 156.792969 C 147.425781 156.792969 147.402344 156.789062 147.375 156.785156 C 147.132812 156.742188 146.96875 156.507812 147.015625 156.265625 C 148.230469 149.519531 147.976562 142.792969 146.242188 135.703125 C 146.183594 135.464844 146.332031 135.222656 146.570312 135.164062 C 146.808594 135.105469 147.050781 135.25 147.109375 135.488281 C 148.875 142.707031 149.128906 149.550781 147.890625 156.421875 C 147.855469 156.640625 147.664062 156.792969 147.453125 156.792969 Z M 147.453125 156.792969 " fill-opacity="1" fill-rule="nonzero"/><path fill="#2e2e2e" d="M 137.117188 158.707031 C 137.082031 158.707031 137.046875 158.703125 137.007812 158.695312 C 136.769531 158.632812 136.625 158.394531 136.683594 158.152344 C 136.832031 157.550781 136.964844 156.941406 137.078125 156.339844 C 138.402344 149.273438 137.179688 142.664062 135.808594 137.128906 C 135.75 136.890625 135.894531 136.648438 136.132812 136.589844 C 136.375 136.535156 136.617188 136.675781 136.675781 136.914062 C 138.070312 142.542969 139.3125 149.269531 137.953125 156.503906 C 137.839844 157.125 137.703125 157.75 137.550781 158.367188 C 137.5 158.570312 137.316406 158.707031 137.117188 158.707031 Z M 137.117188 158.707031 " fill-opacity="1" fill-rule="nonzero"/><path fill="#2e2e2e" d="M 125.328125 159.898438 C 125.328125 159.898438 125.328125 159.898438 125.324219 159.898438 C 125.078125 159.898438 124.878906 159.695312 124.882812 159.449219 C 124.90625 151.132812 124.171875 145.050781 122.421875 139.109375 C 122.351562 138.871094 122.488281 138.625 122.722656 138.554688 C 122.960938 138.484375 123.207031 138.621094 123.277344 138.855469 C 125.054688 144.886719 125.800781 151.046875 125.773438 159.453125 C 125.773438 159.699219 125.574219 159.898438 125.328125 159.898438 Z M 125.328125 159.898438 " fill-opacity="1" fill-rule="nonzero"/><path fill="#2e2e2e" d="M 116.167969 157.953125 C 115.949219 157.953125 115.757812 157.789062 115.726562 157.566406 C 115.140625 153.40625 114.277344 149.046875 113.09375 144.238281 C 113.03125 144 113.179688 143.757812 113.417969 143.699219 C 113.660156 143.640625 113.898438 143.785156 113.957031 144.023438 C 115.152344 148.863281 116.019531 153.25 116.609375 157.445312 C 116.644531 157.6875 116.476562 157.914062 116.230469 157.949219 C 116.207031 157.949219 116.1875 157.953125 116.167969 157.953125 Z M 116.167969 157.953125 " fill-opacity="1" fill-rule="nonzero"/><path fill="#2e2e2e" d="M 94.394531 172.460938 C 94.375 172.460938 94.351562 172.460938 94.332031 172.457031 C 92.625 172.207031 90.929688 171.921875 89.289062 171.613281 C 64.207031 166.90625 47.679688 156.078125 40.160156 139.425781 C 40.058594 139.203125 40.160156 138.9375 40.382812 138.835938 C 40.609375 138.734375 40.871094 138.835938 40.972656 139.058594 C 48.363281 155.429688 64.675781 166.089844 89.453125 170.738281 C 91.085938 171.042969 92.769531 171.324219 94.460938 171.574219 C 94.703125 171.613281 94.871094 171.839844 94.835938 172.082031 C 94.804688 172.304688 94.613281 172.460938 94.394531 172.460938 Z M 94.394531 172.460938 " fill-opacity="1" fill-rule="nonzero"/><path fill="#2e2e2e" d="M 158.394531 319.640625 C 158.34375 319.640625 158.292969 319.632812 158.242188 319.613281 C 143.765625 314.328125 129.765625 307.507812 116.625 299.339844 C 110.257812 295.378906 104.191406 290.820312 98.324219 286.414062 C 92.621094 282.128906 86.722656 277.695312 80.574219 273.835938 C 71.40625 268.085938 61.625 263.035156 52.164062 258.152344 L 48.492188 256.257812 C 38.035156 250.839844 28.125 245.007812 17.179688 238.492188 C 16.53125 238.109375 15.875 237.726562 15.210938 237.34375 C 11.667969 235.292969 8.007812 233.171875 5.332031 230.019531 C 0.34375 224.140625 3.371094 216.046875 5.800781 209.539062 C 6.0625 208.847656 6.3125 208.171875 6.546875 207.523438 C 6.628906 207.289062 6.886719 207.167969 7.117188 207.253906 C 7.351562 207.335938 7.46875 207.59375 7.386719 207.824219 C 7.152344 208.480469 6.898438 209.15625 6.636719 209.855469 C 4.285156 216.140625 1.363281 223.960938 6.011719 229.441406 C 8.585938 232.476562 12.179688 234.558594 15.65625 236.570312 C 16.324219 236.957031 16.984375 237.339844 17.636719 237.726562 C 28.566406 244.234375 38.464844 250.058594 48.902344 255.464844 L 52.570312 257.359375 C 62.050781 262.25 71.851562 267.308594 81.046875 273.082031 C 87.230469 276.960938 93.140625 281.402344 98.859375 285.699219 C 104.710938 290.09375 110.761719 294.640625 117.097656 298.582031 C 130.183594 306.71875 144.128906 313.511719 158.546875 318.773438 C 158.78125 318.859375 158.898438 319.117188 158.8125 319.347656 C 158.75 319.53125 158.578125 319.640625 158.394531 319.640625 Z M 158.394531 319.640625 " fill-opacity="1" fill-rule="nonzero"/><path fill="#2e2e2e" d="M 61.585938 257.011719 C 61.425781 257.011719 61.273438 256.929688 61.191406 256.777344 C 49.921875 235.980469 34.511719 221.160156 14.082031 211.472656 C 13.859375 211.367188 13.765625 211.101562 13.871094 210.878906 C 13.976562 210.65625 14.238281 210.5625 14.464844 210.667969 C 35.070312 220.441406 50.613281 235.382812 61.976562 256.355469 C 62.09375 256.570312 62.011719 256.839844 61.796875 256.957031 C 61.730469 256.996094 61.65625 257.011719 61.585938 257.011719 Z M 61.585938 257.011719 " fill-opacity="1" fill-rule="nonzero"/><path fill="#2e2e2e" d="M 48.84375 246.792969 C 48.703125 246.792969 48.5625 246.722656 48.476562 246.597656 C 40.515625 235 28.769531 225.324219 13.5625 217.835938 C 13.339844 217.726562 13.25 217.460938 13.359375 217.238281 C 13.46875 217.019531 13.734375 216.929688 13.957031 217.035156 C 29.300781 224.589844 41.164062 234.367188 49.210938 246.09375 C 49.351562 246.296875 49.296875 246.574219 49.09375 246.714844 C 49.019531 246.765625 48.929688 246.792969 48.84375 246.792969 Z M 48.84375 246.792969 " fill-opacity="1" fill-rule="nonzero"/><path fill="#2e2e2e" d="M 215.199219 278.601562 C 214.339844 278.601562 213.464844 278.582031 212.578125 278.546875 C 212.332031 278.539062 212.140625 278.332031 212.148438 278.085938 C 212.160156 277.839844 212.363281 277.644531 212.613281 277.65625 C 225.925781 278.1875 235.777344 274.722656 243.601562 266.769531 C 243.773438 266.59375 244.054688 266.59375 244.230469 266.765625 C 244.40625 266.9375 244.410156 267.21875 244.238281 267.398438 C 236.746094 275.007812 227.46875 278.601562 215.199219 278.601562 Z M 215.199219 278.601562 " fill-opacity="1" fill-rule="nonzero"/></svg>