<svg xmlns="http://www.w3.org/2000/svg" xmlns:xlink="http://www.w3.org/1999/xlink" width="500" zoomAndPan="magnify" viewBox="0 0 375 374.999991" height="500" preserveAspectRatio="xMidYMid meet" version="1.0"><defs><clipPath id="f1d3aa60c2"><path d="M 0 158.863281 L 375 158.863281 L 375 215.863281 L 0 215.863281 Z M 0 158.863281 " clip-rule="nonzero"/></clipPath></defs><g clip-path="url(#f1d3aa60c2)"><path fill="#000000" d="M 125.707031 165.835938 C 125.34375 165.289062 125.230469 165.113281 125.039062 164.824219 C 129.886719 164.1875 134.617188 163.535156 139.367188 162.96875 C 140.703125 162.808594 142.066406 162.921875 143.414062 162.867188 C 144.03125 162.84375 144.648438 162.695312 145.265625 162.640625 C 146.128906 162.574219 146.988281 162.574219 147.851562 162.480469 C 148.964844 162.367188 150.078125 162.230469 151.179688 162.054688 C 153.574219 161.675781 155.960938 161.230469 158.359375 160.878906 C 159.710938 160.683594 161.082031 160.621094 162.445312 160.507812 C 165.34375 160.265625 168.238281 159.871094 171.136719 159.847656 C 173.019531 159.832031 174.824219 159.113281 176.828125 159.726562 C 178.085938 160.113281 179.664062 159.300781 181.105469 159.273438 C 183.832031 159.21875 186.5625 159.378906 189.292969 159.378906 C 190.792969 159.378906 192.300781 159.203125 193.804688 159.152344 C 196.089844 159.058594 198.375 158.976562 200.664062 158.9375 C 202.402344 158.910156 204.144531 158.921875 205.882812 158.96875 C 208.132812 159.023438 210.382812 159.1875 212.628906 159.1875 C 214.527344 159.1875 216.417969 159.015625 218.316406 158.9375 C 219.046875 158.910156 219.785156 158.910156 220.519531 158.9375 C 222.308594 159.023438 224.109375 159.097656 225.898438 159.257812 C 226.640625 159.316406 227.347656 159.628906 228.078125 159.742188 C 228.667969 159.832031 229.277344 159.789062 229.871094 159.832031 C 232.570312 160.046875 235.265625 160.320312 237.964844 160.472656 C 239.769531 160.570312 241.585938 160.457031 243.382812 160.523438 C 243.925781 160.546875 244.445312 160.988281 244.992188 161.039062 C 245.5625 161.09375 246.171875 160.765625 246.730469 160.84375 C 248.535156 161.09375 250.320312 161.472656 252.117188 161.761719 C 253.132812 161.917969 254.160156 162.011719 255.191406 162.085938 C 256.761719 162.207031 258.332031 162.292969 259.902344 162.390625 C 261.972656 162.519531 264.117188 162.375 266.105469 162.851562 C 268.511719 163.4375 270.945312 163.542969 273.339844 163.914062 C 275.359375 164.234375 277.355469 164.679688 279.421875 164.886719 C 282.917969 165.226562 286.410156 165.757812 289.871094 166.417969 C 294.429688 167.289062 298.949219 168.34375 303.476562 169.378906 C 304.910156 169.703125 306.304688 170.226562 307.722656 170.613281 C 308.214844 170.75 308.765625 170.667969 309.269531 170.789062 C 311.601562 171.347656 313.910156 171.980469 316.25 172.519531 C 317.925781 172.90625 319.640625 173.140625 321.324219 173.535156 C 324.183594 174.210938 327.050781 174.882812 329.871094 175.695312 C 331.730469 176.226562 333.476562 177.207031 335.351562 177.585938 C 336.691406 177.859375 338.019531 177.886719 338.980469 179.019531 C 340.601562 177.867188 341.722656 180.300781 343.300781 179.625 C 343.445312 179.566406 343.78125 179.679688 343.871094 179.816406 C 345.128906 181.734375 347.453125 181.035156 349.144531 181.953125 C 351.289062 183.117188 353.644531 183.875 355.875 184.875 C 358.476562 186.042969 361.167969 187.097656 363.566406 188.59375 C 364.488281 189.160156 365.417969 189.519531 366.355469 189.957031 C 367.523438 190.496094 368.660156 191.089844 369.808594 191.65625 C 369.902344 191.703125 372.179688 193.667969 372.308594 193.765625 C 372.394531 193.828125 372.5625 193.765625 372.652344 193.828125 C 373.429688 194.257812 374.199219 194.714844 374.976562 195.15625 C 374.878906 195.3125 374.777344 195.480469 374.6875 195.640625 C 374.328125 195.425781 373.972656 195.214844 373.5 194.933594 L 373.5 196.195312 C 372.203125 195.351562 371.167969 194.507812 369.992188 193.992188 C 369.382812 193.726562 368.519531 194.03125 367.652344 194.367188 C 369.792969 194.859375 370.914062 196.390625 372.058594 198.105469 C 370.816406 200.488281 374.351562 200.441406 374.34375 202.726562 C 373.277344 202.929688 371.996094 203.179688 370.609375 203.453125 C 370.632812 203.605469 370.6875 203.96875 370.785156 204.71875 C 369.824219 204.097656 369.101562 203.644531 368.285156 203.121094 C 368.195312 203.542969 368.117188 203.886719 368.0625 204.136719 C 359.671875 201.34375 351.265625 198.546875 342.796875 195.722656 C 342.773438 195.945312 342.742188 196.210938 342.699219 196.6875 C 341.234375 195.753906 339.886719 194.890625 338.179688 193.789062 C 338.492188 194.351562 338.613281 194.570312 338.734375 194.78125 C 338.667969 194.917969 338.597656 195.046875 338.527344 195.183594 C 337.265625 194.425781 336.019531 193.636719 334.734375 192.917969 C 334.320312 192.6875 333.773438 192.453125 333.355469 192.539062 C 332.386719 192.726562 330 192.171875 328.980469 191.953125 C 328.011719 191.75 327.285156 190.929688 326.027344 191.226562 C 325.007812 191.46875 323.078125 191.105469 322.75 190.4375 C 321.988281 188.878906 321.1875 189.382812 320.113281 189.625 C 319.808594 189.691406 319.382812 189.117188 318.980469 188.902344 C 318.339844 188.570312 317.636719 188.226562 317.652344 189.390625 C 313.820312 188.601562 309.945312 187.855469 306.105469 186.976562 C 304.503906 186.613281 302.972656 185.929688 301.402344 185.421875 C 301.234375 185.367188 300.96875 185.648438 300.785156 185.605469 C 299.917969 185.398438 298.878906 185.367188 298.246094 184.851562 C 296.722656 183.59375 295.214844 183.238281 293.40625 184.285156 C 293.171875 183.699219 293.476562 182.25 292.203125 183.644531 C 291.820312 184.070312 290.359375 183.652344 289.445312 183.425781 C 288.085938 183.085938 286.792969 182.507812 285.441406 182.144531 C 284.726562 181.953125 283.949219 182 283.203125 181.945312 C 283.101562 181.695312 283.003906 181.445312 282.902344 181.195312 C 282.757812 181.644531 282.621094 182.097656 282.476562 182.546875 L 282.003906 182.28125 C 281.84375 181.894531 281.691406 181.515625 281.546875 181.164062 C 279.917969 182.449219 279.085938 180.363281 277.628906 180.613281 C 277.582031 181.636719 276.667969 181.332031 275.769531 181.160156 C 274.566406 180.921875 273.339844 180.832031 272.148438 180.535156 C 270.039062 180.011719 267.851562 180.210938 265.746094 179.761719 C 265.328125 179.671875 264.878906 179.445312 264.589844 179.140625 C 264.039062 178.5625 264.117188 178.554688 263.414062 179.171875 C 263.238281 179.324219 262.78125 179.238281 262.5 179.148438 C 261.449219 178.800781 260.425781 178.382812 259.367188 178.0625 C 259.253906 178.023438 258.992188 178.425781 258.765625 178.675781 C 256.113281 177.023438 252.949219 177.378906 249.894531 177.105469 C 249.320312 177.054688 248.78125 176.71875 248.207031 176.660156 C 246.796875 176.507812 245.390625 176.402344 243.972656 176.339844 C 242.378906 176.265625 240.777344 176.296875 239.191406 176.203125 C 237.410156 176.097656 235.632812 175.902344 233.855469 175.734375 C 232.613281 175.621094 231.371094 175.476562 230.128906 175.398438 C 229.765625 175.378906 229.382812 175.535156 228.542969 175.710938 C 229.277344 175.976562 229.535156 176.074219 230.015625 176.242188 C 228.820312 176.289062 227.722656 176.652344 227.523438 174.953125 C 226.179688 175.757812 224.96875 175.945312 223.527344 175.148438 C 222.765625 174.734375 221.546875 175.164062 220.535156 175.164062 C 219.894531 175.164062 219.261719 175.074219 218.238281 175 C 218.207031 175.035156 217.925781 175.394531 217.621094 175.78125 C 217.484375 175.679688 217.332031 175.621094 217.242188 175.515625 C 217.042969 175.269531 216.730469 174.769531 216.714844 174.777344 C 215.640625 175.429688 214.445312 174.484375 213.542969 174.890625 C 212.804688 175.226562 211.601562 174.230469 211.289062 175.652344 C 211.289062 175.671875 210.777344 175.695312 210.707031 175.582031 C 209.648438 173.953125 208.277344 175.25 207.050781 175.171875 C 206.355469 175.128906 205.664062 175.035156 205.03125 174.882812 C 204.335938 174.9375 203.628906 175.082031 202.949219 175.011719 C 201.5 174.875 200.0625 174.625 198.613281 174.453125 C 198.460938 174.4375 198.253906 174.605469 198.109375 174.726562 C 196.914062 175.726562 195.535156 175.46875 194.167969 175.308594 C 193.796875 175.265625 193.421875 175.15625 193.085938 175.082031 C 192.339844 175.148438 191.777344 175.285156 191.234375 175.226562 C 190.769531 175.179688 190.160156 176.273438 189.710938 175.042969 C 189.648438 174.882812 188.070312 175.285156 187.035156 175.453125 C 187.035156 175.453125 186.929688 175.105469 186.796875 174.664062 C 186.167969 175.105469 185.824219 176.417969 184.886719 175.140625 C 184.808594 175.042969 184.03125 175.332031 183.679688 175.582031 C 183.035156 176.039062 183.085938 176.066406 182.691406 175.257812 C 182.605469 175.074219 182.285156 174.882812 182.097656 174.898438 C 180.542969 175.027344 178.984375 175.234375 177.429688 175.355469 C 175.882812 175.476562 174.320312 175.507812 172.773438 175.621094 C 169.871094 175.839844 166.964844 176.105469 164.0625 176.324219 C 163.359375 176.378906 162.652344 176.332031 161.898438 176.332031 C 162.011719 176.546875 162.171875 176.847656 162.226562 176.964844 C 160.738281 176.863281 159.261719 176.683594 157.789062 176.707031 C 157.25 176.710938 157.539062 178.191406 156.257812 177.714844 C 155.554688 177.449219 154.597656 177.828125 153.765625 177.972656 C 153.179688 178.078125 152.394531 178.746094 152.515625 177.386719 C 152.234375 177.378906 151.820312 177.242188 151.699219 177.378906 C 151.019531 178.132812 150.457031 178.761719 149.269531 178.054688 C 148.902344 177.835938 148.078125 178.511719 147.4375 178.578125 C 146.890625 178.640625 146.320312 178.425781 145.601562 178.3125 C 145.257812 179.292969 144.054688 179.140625 143.027344 179.179688 C 142.066406 179.214844 140.875 180.21875 140.175781 178.683594 C 139.488281 179.988281 136.472656 180.285156 134.785156 179.207031 C 134.359375 180.339844 129.582031 181.058594 128.710938 180.390625 C 128.09375 180.664062 127.683594 180.96875 127.242188 181.015625 C 124.765625 181.289062 122.265625 181.410156 119.800781 181.75 C 118.011719 182 116.273438 182.605469 114.480469 182.878906 C 112.660156 183.152344 110.777344 183.0625 108.972656 183.410156 C 107.171875 183.753906 105.464844 184.535156 103.671875 184.957031 C 100.9375 185.605469 98.164062 186.113281 95.402344 186.679688 C 93.621094 187.046875 91.84375 187.453125 90.054688 187.773438 C 89.398438 187.886719 88.695312 187.789062 87.875 187.789062 C 87.875 187.773438 87.875 188.234375 87.789062 188.25 C 86.730469 188.441406 85.664062 188.617188 84.589844 188.691406 C 84.199219 188.722656 83.789062 188.472656 83.238281 188.296875 C 82.867188 189.964844 81.242188 189.511719 79.871094 189.707031 C 78.277344 189.933594 76.722656 190.375 75.128906 190.609375 C 74.3125 190.722656 73.582031 190.800781 72.933594 191.421875 C 72.734375 191.613281 72.074219 191.324219 71.691406 191.261719 C 70.382812 191.6875 69.023438 192.164062 67.644531 192.558594 C 66.433594 192.902344 65.152344 193.457031 63.964844 193.347656 C 62.292969 193.191406 61.082031 194.417969 59.382812 194.367188 C 58.527344 194.34375 57.097656 193.902344 56.3125 194.714844 C 55.207031 195.851562 53.4375 194.546875 52.46875 195.957031 C 52.332031 196.15625 51.738281 196.042969 51.320312 196.078125 C 51.257812 196.421875 51.195312 196.769531 51.136719 197.113281 C 49.445312 196.589844 47.972656 197.113281 46.539062 197.839844 C 46.015625 198.105469 45.550781 198.589844 45 198.71875 C 43.613281 199.039062 42.164062 199.078125 40.800781 199.457031 C 37.226562 200.441406 33.667969 201.511719 30.121094 202.613281 C 28.324219 203.171875 26.402344 203.605469 24.863281 204.597656 C 23.992188 205.160156 22.570312 204.789062 22.1875 206.109375 C 22.027344 206.046875 21.851562 206.011719 21.707031 205.933594 C 21.425781 205.789062 21.160156 205.625 20.707031 205.359375 C 21.320312 207.453125 19.472656 207.171875 18.675781 208.140625 C 18.550781 207.519531 18.484375 207.132812 18.347656 206.433594 C 17.539062 207.195312 16.914062 207.824219 16.234375 208.398438 C 15.890625 208.695312 15.496094 208.992188 15.070312 209.105469 C 14.214844 209.324219 13.246094 209.257812 12.46875 209.621094 C 11.890625 209.886719 11.546875 210.644531 10.960938 211.34375 C 10.707031 211.230469 10.175781 210.980469 9.375 210.605469 C 9.566406 211.207031 9.664062 211.519531 9.75 211.777344 C 8.070312 211.402344 7.257812 212.09375 6.921875 213.785156 C 6.539062 213.46875 6.234375 213.210938 6.042969 213.058594 C 4.199219 213.96875 2.316406 214.902344 0.441406 215.828125 C 0.289062 215.652344 0.136719 215.484375 -0.015625 215.3125 C 0.222656 214.886719 0.449219 214.460938 0.695312 214.042969 C 1.203125 213.179688 2.042969 212.535156 1.492188 211.199219 C 1.273438 210.660156 2.210938 209.652344 2.730469 208.640625 C 2.699219 208.589844 2.46875 208.203125 2.339844 207.984375 C 2.789062 207.445312 3.117188 207.035156 3.460938 206.648438 C 5.328125 204.523438 7.347656 202.621094 9.886719 201.246094 C 12.972656 199.585938 15.898438 197.644531 18.988281 196.003906 C 22.097656 194.359375 25.265625 192.816406 28.515625 191.460938 C 31.5 190.214844 34.671875 189.417969 37.589844 187.949219 C 39.054688 187.210938 40.746094 186.921875 42.316406 186.394531 C 43.75 185.914062 45.175781 185.40625 46.578125 184.859375 C 49.292969 183.804688 51.957031 182.636719 54.695312 181.652344 C 57.667969 180.574219 60.671875 179.550781 63.71875 178.683594 C 65.6875 178.125 67.757812 177.949219 69.757812 177.480469 C 70.707031 177.257812 71.570312 176.644531 72.515625 176.402344 C 75.496094 175.621094 78.507812 174.945312 81.492188 174.210938 C 83.542969 173.707031 85.570312 173.148438 87.621094 172.660156 C 91.730469 171.691406 95.855469 170.757812 99.96875 169.792969 C 101.90625 169.339844 103.820312 168.808594 105.761719 168.40625 C 107.980469 167.949219 110.230469 167.65625 112.453125 167.214844 C 114.453125 166.820312 116.417969 166.273438 118.414062 165.886719 C 119.65625 165.644531 120.921875 164.960938 122.210938 165.773438 C 122.234375 165.789062 122.316406 165.773438 122.339844 165.742188 C 123.277344 164.644531 124.3125 164.824219 125.664062 165.863281 Z M 151.378906 164.917969 C 152.132812 165.378906 152.890625 165.84375 154.023438 166.53125 C 153.703125 165.84375 153.589844 165.585938 153.558594 165.523438 C 154.582031 165.289062 155.519531 165.074219 156.882812 164.765625 C 155.914062 164.25 155.328125 163.9375 154.742188 163.632812 C 154.191406 164.171875 153.355469 164.628906 153.117188 164.414062 C 152.105469 163.492188 151.792969 164.203125 151.410156 164.945312 C 150.722656 164.789062 150.046875 164.636719 149.335938 164.46875 C 148.757812 165.992188 147.667969 164.550781 146.746094 164.78125 C 146.539062 165.066406 146.28125 165.441406 145.824219 166.070312 C 147.117188 166.136719 148.207031 166.199219 149.140625 166.25 C 149.453125 166.007812 149.710938 165.757812 150.007812 165.589844 C 150.449219 165.332031 150.921875 165.136719 151.386719 164.910156 Z M 36.074219 191.253906 C 36.84375 191.648438 37.628906 192.332031 38.203125 190.960938 C 38.292969 190.738281 39.101562 190.558594 39.144531 190.625 C 39.777344 191.648438 40.535156 190.867188 41.074219 190.679688 C 44 189.632812 46.890625 188.472656 49.800781 187.347656 C 49.625 186.785156 49.445312 186.179688 49.253906 185.558594 C 47.628906 186.171875 46.042969 186.785156 44.453125 187.371094 C 42.972656 187.917969 41.457031 188.371094 40.007812 189.003906 C 38.613281 189.609375 37.292969 190.398438 35.945312 191.105469 C 34.230469 190.320312 32.421875 191.367188 32.027344 193.683594 C 32.882812 192.976562 33.527344 192.4375 34.421875 191.703125 C 34.734375 191.648438 35.800781 193.105469 36.074219 191.261719 Z M 280.929688 167.167969 C 280.578125 167.269531 280.230469 167.472656 279.917969 167.433594 C 277.019531 167.070312 274.117188 166.707031 271.226562 166.242188 C 268.179688 165.757812 265.152344 165.089844 262.097656 164.644531 C 259.246094 164.226562 256.355469 164.015625 253.492188 163.664062 C 252.460938 163.542969 251.464844 163.195312 250.433594 163.109375 C 248.339844 162.929688 246.226562 162.859375 244.125 162.722656 C 239.929688 162.449219 235.738281 162.085938 231.539062 161.917969 C 229.574219 161.84375 227.636719 161.53125 225.578125 162.09375 C 224.117188 162.496094 222.332031 161.667969 220.6875 161.503906 C 220.0625 161.441406 219.398438 161.714844 218.644531 161.859375 C 218.621094 161.84375 218.324219 161.496094 218.011719 161.480469 C 214.445312 161.34375 210.867188 161.222656 207.300781 161.160156 C 204.527344 161.109375 201.746094 161.136719 198.972656 161.136719 C 197.1875 161.136719 195.410156 161.117188 193.628906 161.167969 C 191.957031 161.222656 190.265625 161.214844 188.628906 161.496094 C 186.097656 161.933594 183.375 160.601562 180.992188 162.335938 C 180.882812 162.414062 180.6875 162.359375 180.535156 162.359375 C 179.894531 162.34375 179.261719 162.3125 178.621094 162.308594 C 178.359375 162.308594 178.109375 162.351562 177.851562 162.34375 C 177.523438 162.34375 177.1875 162.3125 176.859375 162.292969 C 176.859375 162.101562 176.464844 161.785156 176.328125 161.875 C 175.457031 162.445312 173.871094 162.511719 174.503906 164.226562 C 176.007812 163.929688 177.492188 163.632812 179.101562 163.316406 C 180.070312 163.496094 181.265625 163.890625 182.46875 163.914062 C 183.542969 163.929688 184.625 163.542969 185.90625 163.292969 C 186.179688 163.398438 187.050781 163.914062 187.195312 163.753906 C 188.527344 162.328125 189.839844 162.953125 191.210938 163.582031 C 191.449219 163.695312 191.761719 163.679688 192.042969 163.671875 C 195.382812 163.625 198.726562 163.625 202.066406 163.511719 C 204.230469 163.4375 206.386719 163.179688 208.550781 163.027344 C 208.871094 163.003906 209.191406 163.125 209.519531 163.15625 C 210.128906 163.210938 210.738281 163.246094 211.355469 163.292969 L 211.320312 163.132812 C 212.125 163.359375 212.933594 163.589844 213.527344 163.753906 C 213.863281 163.179688 214.070312 162.832031 214.277344 162.480469 L 214.558594 162.609375 C 214.488281 162.921875 214.429688 163.226562 214.414062 163.292969 L 220 163.292969 C 219.976562 163.339844 219.953125 163.375 219.921875 163.421875 C 220.785156 163.527344 221.644531 163.632812 222.597656 163.753906 L 222.597656 162.253906 C 222.363281 162.496094 222.125 162.738281 221.890625 162.980469 C 222.570312 163.40625 223.253906 163.832031 223.933594 164.265625 C 224.078125 164.144531 224.214844 164.015625 224.359375 163.890625 C 224.671875 163.625 224.984375 163.359375 225.394531 163.011719 C 225.441406 163.453125 225.472656 163.785156 225.511719 164.1875 C 226.355469 164.027344 227.132812 163.878906 228.070312 163.703125 C 228.453125 164.265625 230.257812 164.703125 230.976562 164.007812 C 231.90625 163.101562 232.402344 163.253906 232.675781 164.414062 C 233.164062 164.371094 233.574219 164.277344 233.972656 164.300781 C 235.207031 164.394531 236.441406 164.515625 237.675781 164.660156 C 238.832031 164.796875 239.992188 164.984375 241.152344 165.136719 C 242.195312 165.273438 243.230469 165.441406 244.285156 165.523438 C 246.128906 165.667969 248.003906 165.972656 249.824219 165.796875 C 251.441406 165.644531 253.1875 167.34375 254.6875 165.492188 C 254.742188 165.425781 255.234375 165.5625 255.234375 165.613281 C 255.296875 166.972656 256.332031 166.394531 256.996094 166.488281 C 259.109375 166.78125 261.25 166.949219 263.339844 167.359375 C 265.5625 167.800781 267.886719 167.464844 270.046875 168.351562 C 270.257812 168.4375 270.808594 168.238281 270.867188 168.058594 C 271.234375 166.941406 271.699219 168.140625 272.117188 167.996094 C 272.269531 167.941406 272.554688 168.488281 272.820312 168.535156 C 274.527344 168.839844 276.25 169.105469 277.972656 169.324219 C 279.230469 169.484375 280.503906 169.558594 281.59375 169.65625 C 281.890625 169.40625 282.1875 169.25 282.355469 169.003906 C 282.582031 168.664062 282.722656 168.261719 282.894531 167.882812 C 282.53125 167.828125 282.164062 167.714844 281.804688 167.746094 C 281.523438 167.769531 281.25 167.972656 280.800781 168.171875 C 280.859375 167.753906 280.898438 167.480469 280.945312 167.140625 Z M 346.472656 185.832031 C 346.539062 185.769531 346.828125 185.496094 347.117188 185.214844 C 347.257812 185.558594 347.402344 185.90625 347.53125 186.25 C 347.699219 186.6875 347.867188 187.128906 348.0625 187.660156 C 348.742188 186.46875 349.007812 186.003906 349.183594 185.703125 C 349.542969 186.003906 349.839844 186.261719 350.144531 186.515625 C 350.160156 185.875 350.070312 185.179688 349.710938 184.996094 C 347.742188 183.988281 345.777344 182.925781 343.671875 182.304688 C 343.070312 182.128906 342.492188 182 341.921875 181.683594 C 341.632812 181.515625 341.144531 181.695312 340.390625 181.75 C 339.878906 181.582031 338.941406 181.273438 337.988281 180.960938 C 338.421875 182.707031 340.632812 184.277344 342.636719 184.570312 C 343.871094 184.753906 345.046875 185.347656 346.472656 185.824219 Z M 163.492188 163.625 C 163.492188 163.761719 163.460938 164.308594 163.429688 164.886719 C 165.160156 164.75 166.699219 164.621094 168.230469 164.5 C 168.230469 164.332031 168.230469 164.164062 168.230469 164.007812 C 168.519531 164.1875 168.8125 164.371094 169.199219 164.613281 C 169.296875 164.164062 169.367188 163.832031 169.558594 162.960938 C 170.023438 163.824219 170.304688 164.339844 170.6875 165.046875 C 171.320312 163.496094 171 162.777344 169.71875 162.882812 C 169.589844 162.890625 169.453125 162.777344 169.3125 162.769531 C 168.757812 162.730469 168.203125 162.707031 167.644531 162.703125 C 167.089844 162.703125 166.523438 162.703125 165.96875 162.738281 C 165.671875 162.753906 165.367188 162.816406 165.089844 162.921875 C 164.664062 163.082031 164.261719 163.285156 163.5 163.632812 Z M 136.617188 167.914062 C 137.894531 167.527344 139.144531 167.160156 140.382812 166.78125 C 141.234375 166.515625 141.289062 166.207031 140.59375 165.265625 C 138.902344 166.804688 136.144531 165.660156 134.542969 167.554688 C 135.183594 168.40625 136.433594 165.8125 136.617188 167.914062 Z M 71.074219 179.285156 C 70.882812 179.847656 70.695312 180.382812 70.457031 181.066406 C 71.089844 181.015625 71.761719 180.960938 72.757812 180.878906 C 72.148438 180.4375 71.914062 180.261719 71.675781 180.097656 C 73.046875 180.097656 74.238281 180.035156 75.039062 178.5625 C 73.542969 178.835938 72.277344 179.066406 71.074219 179.285156 Z M 145.578125 166.09375 C 145.488281 165.992188 145.390625 165.894531 145.296875 165.804688 C 144.527344 165.636719 143.765625 165.417969 142.980469 165.324219 C 142.613281 165.28125 141.988281 165.371094 141.882812 165.589844 C 141.644531 166.078125 141.660156 166.691406 141.570312 167.253906 L 142.371094 167.367188 C 142.539062 165.984375 143.628906 166.699219 144.320312 166.507812 C 144.742188 166.394531 145.152344 166.242188 145.570312 166.109375 Z M 314.710938 174.359375 C 314.574219 174.453125 314.445312 174.542969 314.304688 174.625 C 314.640625 175.324219 314.976562 176.03125 315.3125 176.726562 C 315.753906 176.492188 316.570312 176.273438 316.585938 176.007812 C 316.683594 174.648438 315.082031 175.269531 314.710938 174.359375 Z M 156.457031 165.128906 C 157.910156 164.894531 158.917969 164.726562 159.921875 164.558594 C 159.9375 164.40625 159.953125 164.25 159.96875 164.097656 C 159.199219 163.847656 158.421875 163.589844 157.621094 163.332031 C 157.316406 163.800781 157.035156 164.226562 156.449219 165.128906 Z M 49.480469 186.195312 C 50.257812 186.542969 50.839844 186.800781 51.425781 187.066406 C 51.625 186.324219 51.796875 185.664062 52.089844 184.550781 C 50.984375 185.246094 50.320312 185.664062 49.480469 186.195312 Z M 15.402344 200.648438 C 15.304688 200.488281 15.214844 200.320312 15.113281 200.160156 C 14.039062 200.640625 12.964844 201.117188 11.796875 201.632812 C 12.195312 202.058594 12.476562 202.429688 12.53125 202.40625 C 13.507812 201.84375 14.453125 201.246094 15.402344 200.648438 Z M 16.144531 200.117188 C 16.144531 200.117188 16.035156 200.183594 16.035156 200.222656 C 16.035156 200.261719 16.097656 200.296875 16.128906 200.335938 C 16.167969 200.296875 16.234375 200.265625 16.234375 200.230469 C 16.234375 200.191406 16.171875 200.152344 16.144531 200.117188 Z M 16.144531 200.117188 " fill-opacity="1" fill-rule="nonzero"/></g></svg>