<svg xmlns="http://www.w3.org/2000/svg" xmlns:xlink="http://www.w3.org/1999/xlink" width="500" zoomAndPan="magnify" viewBox="0 0 375 374.999991" height="500" preserveAspectRatio="xMidYMid meet" version="1.0"><defs><g/><clipPath id="36f5799f83"><path d="M 86.246094 343.292969 L 133.640625 343.292969 L 133.640625 365.625 L 86.246094 365.625 Z M 86.246094 343.292969 " clip-rule="nonzero"/></clipPath><clipPath id="066651cc7f"><path d="M 241.359375 343.292969 L 288.753906 343.292969 L 288.753906 365.625 L 241.359375 365.625 Z M 241.359375 343.292969 " clip-rule="nonzero"/></clipPath></defs><path fill="#cdcdcd" d="M 133.320312 343.441406 C 133.320312 343.441406 65.347656 164.988281 62.394531 157.230469 C 59.4375 149.472656 56.972656 132.640625 73.804688 130.179688 C 90.636719 127.71875 99.625 133.175781 108.492188 135.722656 C 117.359375 138.269531 125.859375 132.070312 133.453125 118.320312 C 141.046875 104.566406 135.230469 86.050781 135.230469 86.050781 C 135.230469 86.050781 138.9375 76.679688 135.21875 63.351562 C 130.488281 46.394531 121.003906 29.28125 108.90625 27.964844 C 108.90625 27.964844 85.058594 9.410156 61.90625 21.191406 C 38.753906 32.96875 0.078125 92.121094 9.398438 139.90625 C 18.710938 187.6875 86.441406 360.308594 86.441406 360.308594 L 133.320312 343.441406 " fill-opacity="1" fill-rule="nonzero"/><g clip-path="url(#36f5799f83)"><path fill="#8f8f8f" d="M 133.320312 343.441406 C 133.320312 343.441406 135.867188 355.304688 116.039062 362.859375 C 96.207031 370.410156 86.441406 360.308594 86.441406 360.308594 L 133.320312 343.441406 " fill-opacity="1" fill-rule="nonzero"/></g><path fill="#ededed" d="M 38.292969 132.847656 C 45.191406 136.667969 122.644531 346.519531 122.644531 346.519531 L 103.679688 353.742188 C 103.679688 353.742188 4.511719 114.125 38.292969 132.847656 " fill-opacity="1" fill-rule="nonzero"/><path fill="#3c3a52" d="M 60.015625 73.242188 C 70.359375 69.300781 76.066406 86.871094 67.441406 90.15625 C 58.824219 93.4375 52.253906 76.199219 60.015625 73.242188 " fill-opacity="1" fill-rule="nonzero"/><path fill="#3c3a52" d="M 102.460938 34.367188 C 117.980469 28.457031 140.925781 80.921875 123.683594 87.488281 C 106.441406 94.058594 84.355469 41.261719 102.460938 34.367188 " fill-opacity="1" fill-rule="nonzero"/><path fill="#ededed" d="M 92.9375 30.097656 C 96.636719 26.78125 80.335938 15.15625 68.515625 25.582031 C 56.691406 36.007812 83.371094 38.675781 92.9375 30.097656 " fill-opacity="1" fill-rule="nonzero"/><path fill="#cdcdcd" d="M 241.679688 343.441406 C 241.679688 343.441406 309.652344 164.988281 312.609375 157.230469 C 315.5625 149.472656 318.027344 132.640625 301.195312 130.179688 C 284.363281 127.71875 275.375 133.175781 266.507812 135.722656 C 257.640625 138.269531 249.140625 132.070312 241.546875 118.320312 C 233.953125 104.566406 239.769531 86.050781 239.769531 86.050781 C 239.769531 86.050781 236.0625 76.679688 239.78125 63.351562 C 244.511719 46.394531 253.996094 29.28125 266.09375 27.964844 C 266.09375 27.964844 289.941406 9.410156 313.09375 21.191406 C 336.246094 32.96875 374.921875 92.121094 365.601562 139.90625 C 356.289062 187.6875 288.558594 360.308594 288.558594 360.308594 L 241.679688 343.441406 " fill-opacity="1" fill-rule="nonzero"/><g clip-path="url(#066651cc7f)"><path fill="#8f8f8f" d="M 241.679688 343.441406 C 241.679688 343.441406 239.132812 355.304688 258.960938 362.859375 C 278.792969 370.410156 288.558594 360.308594 288.558594 360.308594 L 241.679688 343.441406 " fill-opacity="1" fill-rule="nonzero"/></g><path fill="#ededed" d="M 336.707031 132.847656 C 329.808594 136.667969 252.351562 346.519531 252.351562 346.519531 L 271.320312 353.742188 C 271.320312 353.742188 370.488281 114.125 336.707031 132.847656 " fill-opacity="1" fill-rule="nonzero"/><path fill="#3c3a52" d="M 314.984375 73.242188 C 304.640625 69.300781 298.933594 86.871094 307.558594 90.15625 C 316.175781 93.4375 322.746094 76.199219 314.984375 73.242188 " fill-opacity="1" fill-rule="nonzero"/><path fill="#3c3a52" d="M 272.539062 34.367188 C 257.019531 28.457031 234.074219 80.921875 251.316406 87.488281 C 268.558594 94.058594 290.644531 41.261719 272.539062 34.367188 " fill-opacity="1" fill-rule="nonzero"/><path fill="#ededed" d="M 282.0625 30.097656 C 278.363281 26.78125 294.664062 15.15625 306.484375 25.582031 C 318.308594 36.007812 291.628906 38.675781 282.0625 30.097656 " fill-opacity="1" fill-rule="nonzero"/><g fill="#cdcdcd" fill-opacity="1"><g transform="translate(89.231204, 118.855516)"><g><path d="M 3.53125 3.859375 L 3.53125 3.6875 L 3.75 3.6875 C 4.101562 3.6875 4.410156 3.617188 4.671875 3.484375 C 4.929688 3.347656 5.0625 3.03125 5.0625 2.53125 L 5.0625 0.125 C 3.75 0.03125 2.722656 -0.378906 1.984375 -1.109375 C 1.242188 -1.835938 0.875 -2.898438 0.875 -4.296875 C 0.875 -5.691406 1.222656 -6.75 1.921875 -7.46875 C 2.628906 -8.195312 3.675781 -8.609375 5.0625 -8.703125 L 5.0625 -10.890625 C 5.0625 -11.359375 4.925781 -11.65625 4.65625 -11.78125 C 4.394531 -11.914062 4.09375 -11.984375 3.75 -11.984375 L 3.53125 -11.984375 L 3.53125 -12.15625 L 6.4375 -12.15625 L 6.4375 -8.703125 C 7.738281 -8.597656 8.753906 -8.179688 9.484375 -7.453125 C 10.222656 -6.734375 10.59375 -5.679688 10.59375 -4.296875 C 10.59375 -2.898438 10.238281 -1.835938 9.53125 -1.109375 C 8.832031 -0.378906 7.800781 0.03125 6.4375 0.125 L 6.4375 2.53125 C 6.4375 3.03125 6.5625 3.347656 6.8125 3.484375 C 7.070312 3.617188 7.382812 3.6875 7.75 3.6875 L 7.953125 3.6875 L 7.953125 3.859375 Z M 5.0625 -0.046875 L 5.0625 -8.53125 C 4.15625 -8.414062 3.5 -8.023438 3.09375 -7.359375 C 2.6875 -6.691406 2.484375 -5.671875 2.484375 -4.296875 C 2.484375 -2.910156 2.6875 -1.882812 3.09375 -1.21875 C 3.5 -0.550781 4.15625 -0.160156 5.0625 -0.046875 Z M 6.4375 -0.046875 C 7.332031 -0.160156 7.976562 -0.550781 8.375 -1.21875 C 8.78125 -1.882812 8.984375 -2.910156 8.984375 -4.296875 C 8.984375 -5.671875 8.78125 -6.691406 8.375 -7.359375 C 7.976562 -8.023438 7.332031 -8.414062 6.4375 -8.53125 Z M 6.4375 -0.046875 "/></g></g></g></svg>