<svg xmlns="http://www.w3.org/2000/svg" xmlns:xlink="http://www.w3.org/1999/xlink" width="500" zoomAndPan="magnify" viewBox="0 0 375 374.999991" height="500" preserveAspectRatio="xMidYMid meet" version="1.0"><defs><g/></defs><path fill="#fdd888" d="M 343.75 325.222656 C 343.75 348.117188 325 366.847656 302.082031 366.847656 L 72.917969 366.847656 C 50 366.847656 31.25 348.117188 31.25 325.222656 L 31.25 148.304688 C 31.25 125.410156 50 106.675781 72.917969 106.675781 L 302.082031 106.675781 C 325 106.675781 343.75 125.410156 343.75 148.304688 Z M 343.75 325.222656 " fill-opacity="1" fill-rule="nonzero"/><path fill="#fdd888" d="M 375 117.082031 C 375 139.976562 356.25 158.710938 333.332031 158.710938 L 41.667969 158.710938 C 18.75 158.710938 0 139.976562 0 117.082031 C 0 94.1875 18.75 75.453125 41.667969 75.453125 L 333.332031 75.453125 C 356.25 75.453125 375 94.1875 375 117.082031 Z M 375 117.082031 " fill-opacity="1" fill-rule="nonzero"/><path fill="#fcab40" d="M 31.25 158.710938 L 343.75 158.710938 L 343.75 179.523438 L 31.25 179.523438 Z M 31.25 158.710938 " fill-opacity="1" fill-rule="nonzero"/><path fill="#da2f47" d="M 197.917969 33.828125 L 177.082031 33.828125 C 159.824219 33.828125 145.832031 47.804688 145.832031 65.046875 L 145.832031 366.847656 L 229.167969 366.847656 L 229.167969 65.046875 C 229.167969 47.8125 215.175781 33.828125 197.917969 33.828125 Z M 197.917969 33.828125 " fill-opacity="1" fill-rule="nonzero"/><path fill="#da2f47" d="M 166.667969 75.453125 C 178.125 75.453125 179.824219 70.085938 170.425781 63.519531 L 100.40625 14.542969 C 91.011719 7.976562 78.6875 10.734375 73 20.671875 L 52 57.386719 C 46.3125 67.328125 51.042969 75.453125 62.5 75.453125 Z M 208.332031 75.453125 C 196.875 75.453125 195.175781 70.085938 204.574219 63.519531 L 274.605469 14.542969 C 283.988281 7.976562 296.324219 10.734375 302.011719 20.671875 L 323.011719 57.378906 C 328.6875 67.328125 323.957031 75.453125 312.5 75.453125 Z M 208.332031 75.453125 " fill-opacity="1" fill-rule="nonzero"/><g fill="#fdd888" fill-opacity="1"><g transform="translate(275.72521, 218.693174)"><g><path d="M 5.734375 0.15625 C 5.035156 0.15625 4.476562 -0.0390625 4.0625 -0.4375 C 3.65625 -0.832031 3.382812 -1.4375 3.25 -2.25 L 3.21875 -2.25 L 3.21875 0 L 0.28125 0 L 0.28125 -0.15625 L 0.421875 -0.15625 C 0.890625 -0.15625 1.222656 -0.25 1.421875 -0.4375 C 1.628906 -0.632812 1.734375 -0.953125 1.734375 -1.390625 L 1.734375 -10.75 C 1.734375 -11.195312 1.628906 -11.515625 1.421875 -11.703125 C 1.222656 -11.898438 0.890625 -12 0.421875 -12 L 0.375 -12 L 0.375 -12.15625 L 3.234375 -12.15625 L 3.234375 -9.21875 C 3.234375 -8.9375 3.234375 -8.53125 3.234375 -8 C 3.234375 -7.476562 3.222656 -6.929688 3.203125 -6.359375 L 3.234375 -6.359375 C 3.378906 -7.160156 3.65625 -7.753906 4.0625 -8.140625 C 4.46875 -8.535156 5.035156 -8.734375 5.765625 -8.734375 C 7.878906 -8.734375 8.9375 -7.253906 8.9375 -4.296875 C 8.9375 -2.835938 8.660156 -1.726562 8.109375 -0.96875 C 7.566406 -0.21875 6.773438 0.15625 5.734375 0.15625 Z M 5.453125 -0.078125 C 6.148438 -0.078125 6.644531 -0.398438 6.9375 -1.046875 C 7.238281 -1.703125 7.390625 -2.789062 7.390625 -4.3125 C 7.390625 -5.820312 7.238281 -6.894531 6.9375 -7.53125 C 6.644531 -8.175781 6.144531 -8.5 5.4375 -8.5 C 4.65625 -8.5 4.09375 -8.144531 3.75 -7.4375 C 3.40625 -6.738281 3.234375 -5.691406 3.234375 -4.296875 C 3.234375 -2.867188 3.410156 -1.804688 3.765625 -1.109375 C 4.128906 -0.421875 4.691406 -0.078125 5.453125 -0.078125 Z M 5.453125 -0.078125 "/></g></g></g></svg>