<svg xmlns="http://www.w3.org/2000/svg" xmlns:xlink="http://www.w3.org/1999/xlink" width="500" zoomAndPan="magnify" viewBox="0 0 375 374.999991" height="500" preserveAspectRatio="xMidYMid meet" version="1.0"><defs><g/><clipPath id="2d612fdd3c"><path d="M 156 168 L 361.59375 168 L 361.59375 374 L 156 374 Z M 156 168 " clip-rule="nonzero"/></clipPath></defs><path fill="#ffd607" d="M 210.574219 8.492188 C 210.957031 10.632812 211.128906 12.8125 211.128906 14.957031 C 211.128906 36.492188 193.660156 53.917969 172.144531 53.917969 C 150.632812 53.917969 133.199219 36.492188 133.199219 14.957031 C 133.199219 12.8125 133.371094 10.632812 133.75 8.492188 " fill-opacity="1" fill-rule="nonzero"/><path fill="#ffd607" d="M 76.539062 36.839844 L 26.144531 86.414062 C 21.160156 91.324219 22.441406 99.828125 27.5625 104.5625 L 76.539062 150.230469 Z M 76.539062 36.839844 " fill-opacity="1" fill-rule="nonzero"/><path fill="#ffd607" d="M 273.910156 36.839844 L 273.910156 150.230469 L 324.789062 102.800781 C 328.835938 99.03125 329.839844 92.359375 325.898438 88.488281 Z M 273.910156 36.839844 " fill-opacity="1" fill-rule="nonzero"/><path fill="#ffd607" d="M 259.105469 175.332031 C 253.050781 175.367188 247.101562 179.03125 241.707031 185.980469 C 233.992188 181.691406 227.039062 180.722656 221.4375 183.109375 C 216.179688 185.355469 212.269531 190.578125 209.953125 198.320312 C 201.925781 197.558594 195.632812 199.289062 191.585938 203.332031 C 187.261719 207.65625 185.601562 214.464844 186.707031 223.210938 C 178.234375 225.667969 172.628906 229.882812 170.347656 235.519531 C 168.238281 240.84375 169.136719 247.308594 173.011719 254.394531 C 166.785156 259.546875 163.566406 265.214844 163.566406 270.921875 C 163.566406 277.003906 167.199219 283.019531 174.1875 288.414062 C 169.898438 296.15625 168.929688 303.105469 171.351562 308.671875 C 173.597656 313.925781 178.789062 317.867188 186.535156 320.148438 C 185.808594 328.203125 187.539062 334.460938 191.585938 338.539062 C 195.875 342.828125 202.6875 344.488281 211.472656 343.382812 C 213.894531 351.851562 218.117188 357.484375 223.789062 359.734375 C 229.113281 361.84375 235.550781 360.941406 242.640625 357.070312 C 247.828125 363.292969 253.464844 366.507812 259.207031 366.507812 C 265.296875 366.507812 271.28125 362.878906 276.710938 355.894531 C 284.425781 360.183594 291.375 361.152344 296.980469 358.765625 C 302.238281 356.484375 306.144531 351.296875 308.429688 343.554688 C 310.054688 343.691406 311.578125 343.761719 313.0625 343.691406 C 313.445312 343.691406 313.789062 343.691406 314.136719 343.65625 C 319.53125 343.277344 323.789062 341.546875 326.832031 338.539062 C 331.121094 334.21875 332.816406 327.410156 331.707031 318.664062 C 340.183594 316.207031 345.785156 311.992188 348.035156 306.355469 C 350.179688 301.03125 349.28125 294.566406 345.40625 287.480469 C 351.632812 282.328125 354.847656 276.660156 354.847656 270.921875 C 354.847656 264.835938 351.21875 258.855469 344.230469 253.425781 C 348.484375 245.71875 349.488281 238.769531 347.066406 233.203125 C 344.816406 227.914062 339.628906 224.007812 331.847656 221.726562 C 332.609375 213.671875 330.878906 207.378906 326.832031 203.332031 C 322.542969 199.046875 315.726562 197.386719 306.941406 198.492188 C 304.519531 189.988281 300.300781 184.386719 294.628906 182.140625 C 289.300781 180 282.867188 180.929688 275.742188 184.769531 C 270.589844 178.582031 264.949219 175.332031 259.207031 175.332031 C 259.171875 175.332031 259.140625 175.332031 259.105469 175.332031 Z M 259.105469 175.332031 " fill-opacity="1" fill-rule="nonzero"/><path fill="#000000" d="M 113.238281 1.851562 C 106.253906 1.851562 99.542969 4.617188 94.597656 9.527344 C 70.417969 33.761719 45.929688 57.6875 21.507812 81.710938 C 13.414062 89.699219 15.488281 102.386719 23.0625 109.4375 L 69.933594 153.101562 L 69.933594 263.589844 C 69.933594 276.484375 80.550781 287.097656 93.453125 287.097656 L 142.917969 287.097656 C 146.585938 287.097656 149.558594 284.089844 149.558594 280.425781 C 149.558594 276.761719 146.585938 273.824219 142.917969 273.789062 L 93.453125 273.789062 C 87.679688 273.789062 83.214844 269.363281 83.214844 263.589844 L 83.214844 39.605469 L 103.96875 18.929688 C 106.425781 16.476562 109.78125 15.128906 113.238281 15.128906 L 126.589844 15.128906 C 126.660156 40.15625 147.136719 60.554688 172.179688 60.554688 C 197.257812 60.554688 217.699219 40.15625 217.769531 15.128906 L 236.757812 15.128906 C 240.253906 15.128906 243.609375 16.476562 246.097656 18.929688 L 267.269531 39.640625 L 267.269531 158.253906 C 267.300781 161.917969 270.277344 164.855469 273.945312 164.855469 C 277.609375 164.855469 280.585938 161.882812 280.585938 158.253906 L 280.585938 52.777344 L 321.261719 93.191406 C 322.09375 94.019531 321.886719 96.472656 320.292969 97.960938 L 289.855469 126.308594 C 287.191406 128.796875 287.019531 132.980469 289.542969 135.679688 C 292.035156 138.375 296.253906 138.511719 298.917969 135.988281 L 329.355469 107.675781 C 335.894531 101.589844 337.625 90.699219 330.636719 83.753906 C 305.765625 58.757812 280.621094 34.074219 255.402344 9.425781 C 250.421875 4.585938 243.710938 1.851562 236.757812 1.851562 Z M 139.875 15.128906 L 204.488281 15.128906 C 204.417969 32.96875 190.0625 47.28125 172.179688 47.28125 C 154.296875 47.28125 139.941406 32.96875 139.875 15.128906 Z M 69.933594 52.707031 L 69.933594 134.953125 L 32.125 99.722656 C 29.464844 97.269531 28.980469 92.984375 30.847656 91.152344 Z M 69.933594 52.707031 " fill-opacity="1" fill-rule="nonzero"/><path fill="#000000" d="M 212.339844 224.042969 C 220.777344 215.605469 234.648438 215.605469 243.089844 224.042969 C 251.5625 232.476562 251.53125 246.375 243.089844 254.808594 C 234.648438 263.246094 220.777344 263.246094 212.339844 254.808594 C 203.863281 246.375 203.863281 232.476562 212.339844 224.042969 Z M 221.714844 233.410156 C 218.359375 236.796875 218.359375 242.054688 221.714844 245.40625 C 225.101562 248.761719 230.324219 248.761719 233.714844 245.40625 C 237.070312 242.054688 237.070312 236.796875 233.714844 233.445312 C 230.324219 230.058594 225.066406 230.058594 221.714844 233.410156 Z M 221.714844 233.410156 " fill-opacity="1" fill-rule="nonzero"/><path fill="#000000" d="M 275.363281 287.066406 C 283.835938 278.628906 297.707031 278.628906 306.144531 287.066406 C 314.585938 295.5 314.585938 309.398438 306.144531 317.832031 C 297.707031 326.269531 283.835938 326.269531 275.363281 317.832031 C 266.921875 309.398438 266.921875 295.5 275.363281 287.066406 Z M 284.769531 296.433594 C 281.414062 299.820312 281.414062 305.074219 284.769531 308.429688 C 288.160156 311.78125 293.382812 311.78125 296.773438 308.429688 C 300.128906 305.074219 300.128906 299.820312 296.773438 296.46875 C 293.382812 293.078125 288.125 293.078125 284.769531 296.433594 Z M 284.769531 296.433594 " fill-opacity="1" fill-rule="nonzero"/><path fill="#000000" d="M 286.085938 215.46875 L 221.125 319.355469 C 219.1875 322.464844 220.121094 326.542969 223.234375 328.480469 C 226.347656 330.453125 230.464844 329.484375 232.402344 326.371094 L 297.359375 222.519531 C 299.296875 219.410156 298.328125 215.328125 295.214844 213.359375 C 291.617188 211.214844 287.640625 212.769531 286.085938 215.46875 Z M 286.085938 215.46875 " fill-opacity="1" fill-rule="nonzero"/><path fill="#000000" d="M 107.253906 191.40625 C 103.589844 191.40625 100.613281 194.378906 100.613281 198.042969 L 100.613281 247.34375 C 100.613281 251.007812 103.589844 253.980469 107.253906 253.980469 C 110.921875 253.980469 113.898438 251.007812 113.898438 247.34375 L 113.898438 198.042969 C 113.898438 194.378906 110.921875 191.40625 107.253906 191.40625 Z M 107.253906 191.40625 " fill-opacity="1" fill-rule="nonzero"/><path fill="#000000" d="M 114.277344 174.984375 C 114.277344 178.855469 111.128906 182.003906 107.253906 182.003906 C 103.382812 182.003906 100.234375 178.855469 100.234375 174.984375 C 100.234375 171.113281 103.382812 168 107.253906 168 C 111.128906 168 114.277344 171.113281 114.277344 174.984375 Z M 114.277344 174.984375 " fill-opacity="1" fill-rule="nonzero"/><g clip-path="url(#2d612fdd3c)"><path fill="#000000" d="M 240.183594 178.476562 C 232.851562 175.46875 225.449219 174.15625 219.050781 176.921875 C 212.683594 179.652344 208.636719 185.355469 205.765625 192.0625 C 198.433594 192.234375 191.65625 193.894531 186.914062 198.667969 C 181.832031 203.714844 180.273438 211.078125 180.378906 219.027344 C 173.046875 222.070312 166.886719 226.390625 164.328125 232.824219 C 161.734375 239.289062 162.910156 246.167969 165.609375 252.976562 C 160.59375 258.265625 156.960938 264.246094 156.960938 270.921875 C 156.960938 278.109375 161.042969 284.402344 166.75 289.96875 C 163.707031 297.296875 162.425781 304.695312 165.261719 311.300781 C 167.925781 317.453125 173.597656 321.496094 180.308594 324.402344 C 180.515625 331.695312 182.175781 338.472656 186.914062 343.207031 C 192 348.289062 199.367188 349.84375 207.289062 349.742188 C 210.332031 357.070312 214.691406 363.226562 221.332031 365.886719 C 227.558594 368.375 234.476562 367.234375 241.257812 364.503906 C 246.546875 369.550781 252.53125 373.148438 259.242188 373.148438 C 266.4375 373.148438 272.734375 369.066406 278.265625 363.398438 C 285.601562 366.40625 293.035156 367.683594 299.644531 364.847656 C 305.628906 362.292969 309.605469 356.792969 312.476562 350.328125 C 319.394531 350.121094 327.351562 347.289062 331.570312 343.207031 C 336.65625 338.125 338.210938 330.796875 338.105469 322.84375 C 345.441406 319.804688 351.597656 315.480469 354.261719 308.808594 C 356.75 302.585938 355.574219 295.671875 352.84375 288.898438 C 357.894531 283.609375 361.523438 277.625 361.523438 270.921875 C 361.523438 263.765625 357.410156 257.4375 351.734375 251.90625 C 354.78125 244.578125 356.058594 237.144531 353.292969 230.78125 C 350.558594 224.421875 344.886719 220.34375 338.140625 217.472656 C 337.96875 210.179688 336.308594 203.367188 331.570312 198.632812 C 326.484375 193.585938 319.117188 191.996094 311.195312 192.097656 C 308.152344 184.769531 303.792969 178.648438 297.359375 176.058594 C 290.890625 173.5 284.007812 174.640625 277.230469 177.371094 C 271.902344 172.324219 265.953125 168.691406 259.242188 168.691406 C 251.703125 168.691406 245.164062 172.390625 240.183594 178.476562 Z M 270.691406 189.019531 C 272.699219 191.441406 276.191406 192.132812 278.957031 190.613281 C 284.976562 187.328125 289.199219 187.085938 292.207031 188.296875 C 295.390625 189.574219 298.503906 193.03125 300.578125 200.324219 C 301.511719 203.472656 304.554688 205.476562 307.839844 205.0625 C 315.347656 204.128906 319.738281 205.613281 322.160156 208.035156 C 324.445312 210.316406 325.898438 214.292969 325.273438 221.101562 C 325.066406 224.769531 327.9375 227.535156 330.011719 228.085938 C 336.550781 230.023438 339.734375 232.824219 341.046875 235.898438 C 342.363281 238.941406 342.121094 243.609375 338.453125 250.246094 C 336.863281 253.082031 337.589844 256.675781 340.183594 258.683594 C 346.167969 263.3125 348.242188 267.496094 348.242188 270.921875 C 348.242188 274.167969 346.445312 278.007812 341.1875 282.363281 C 338.765625 284.402344 338.074219 287.859375 339.59375 290.660156 C 342.878906 296.640625 343.121094 300.894531 341.914062 303.902344 C 340.632812 307.082031 337.171875 310.191406 329.910156 312.265625 C 326.761719 313.164062 324.722656 316.242188 325.136719 319.492188 C 326.105469 326.996094 324.617188 331.417969 322.160156 333.839844 C 317.804688 337.367188 314.273438 336.847656 309.085938 336.949219 C 305.9375 336.640625 303 338.609375 302.097656 341.652344 C 300.164062 348.222656 297.359375 351.367188 294.386719 352.644531 C 291.203125 353.996094 286.570312 353.753906 279.960938 350.085938 C 277.089844 348.53125 273.492188 349.257812 271.488281 351.851562 C 266.851562 357.832031 262.667969 359.871094 259.242188 359.871094 C 255.992188 359.871094 252.152344 358.074219 247.792969 352.851562 C 245.789062 350.398438 242.292969 349.742188 239.527344 351.261719 C 233.507812 354.511719 229.289062 354.753906 226.175781 353.511719 C 223.0625 352.265625 219.984375 348.808594 217.875 341.546875 C 216.972656 338.402344 213.894531 336.398438 210.644531 336.8125 C 203.136719 337.746094 198.746094 336.257812 196.289062 333.839844 C 194.007812 331.558594 192.554688 327.546875 193.210938 320.769531 C 193.417969 317.105469 190.789062 314.410156 188.472656 313.789062 C 181.933594 311.851562 178.753906 309.015625 177.4375 305.976562 C 176.125 302.898438 176.367188 298.265625 180.03125 291.628906 C 181.625 288.757812 180.863281 285.199219 178.304688 283.191406 C 172.320312 278.527344 170.242188 274.378906 170.242188 270.921875 C 170.242188 267.703125 172.042969 263.867188 177.300781 259.511719 C 179.722656 257.472656 180.378906 254.015625 178.855469 251.214844 C 175.605469 245.234375 175.363281 240.980469 176.609375 237.871094 C 177.851562 234.792969 181.3125 231.683594 188.574219 229.574219 C 191.722656 228.675781 193.765625 225.632812 193.347656 222.382812 C 192.382812 214.878906 193.867188 210.457031 196.324219 208.035156 C 198.605469 205.753906 202.585938 204.300781 209.398438 204.921875 C 212.546875 205.199219 215.488281 203.230469 216.386719 200.1875 C 218.289062 193.652344 221.125 190.472656 224.203125 189.160156 C 227.246094 187.847656 231.917969 188.085938 238.523438 191.785156 C 241.394531 193.34375 244.992188 192.617188 247 190.023438 C 251.597656 184.078125 255.75 182.003906 259.105469 182.003906 C 262.496094 181.96875 266.332031 183.765625 270.691406 189.019531 Z M 270.691406 189.019531 " fill-opacity="1" fill-rule="nonzero"/></g><g fill="#ffd607" fill-opacity="1"><g transform="translate(248.923054, 216.137916)"><g><path d="M 3.4375 0.15625 C 2.613281 0.15625 1.96875 -0.0507812 1.5 -0.46875 C 1.03125 -0.894531 0.796875 -1.472656 0.796875 -2.203125 C 0.796875 -3.023438 1.097656 -3.640625 1.703125 -4.046875 C 2.304688 -4.453125 3.222656 -4.675781 4.453125 -4.71875 L 5.78125 -4.765625 L 5.78125 -5.96875 C 5.78125 -6.5625 5.742188 -7.050781 5.671875 -7.4375 C 5.609375 -7.820312 5.46875 -8.109375 5.25 -8.296875 C 5.039062 -8.484375 4.71875 -8.578125 4.28125 -8.578125 C 3.664062 -8.578125 3.269531 -8.382812 3.09375 -8 C 2.914062 -7.613281 2.828125 -7.007812 2.828125 -6.1875 C 2.378906 -6.1875 2.039062 -6.257812 1.8125 -6.40625 C 1.582031 -6.5625 1.46875 -6.8125 1.46875 -7.15625 C 1.46875 -7.539062 1.597656 -7.847656 1.859375 -8.078125 C 2.117188 -8.304688 2.460938 -8.472656 2.890625 -8.578125 C 3.328125 -8.679688 3.816406 -8.734375 4.359375 -8.734375 C 5.335938 -8.734375 6.066406 -8.523438 6.546875 -8.109375 C 7.035156 -7.691406 7.28125 -6.976562 7.28125 -5.96875 L 7.28125 -1.1875 C 7.28125 -0.800781 7.351562 -0.53125 7.5 -0.375 C 7.65625 -0.226562 7.910156 -0.15625 8.265625 -0.15625 L 8.3125 -0.15625 L 8.3125 0 L 5.90625 0 L 5.90625 -1.6875 L 5.875 -1.6875 C 5.695312 -1.039062 5.390625 -0.570312 4.953125 -0.28125 C 4.523438 0.0078125 4.019531 0.15625 3.4375 0.15625 Z M 3.765625 -0.0625 C 4.160156 -0.0625 4.507812 -0.160156 4.8125 -0.359375 C 5.113281 -0.566406 5.347656 -0.84375 5.515625 -1.1875 C 5.691406 -1.53125 5.78125 -1.894531 5.78125 -2.28125 L 5.78125 -4.59375 L 4.75 -4.546875 C 3.84375 -4.503906 3.21875 -4.296875 2.875 -3.921875 C 2.53125 -3.546875 2.359375 -2.914062 2.359375 -2.03125 C 2.359375 -0.71875 2.828125 -0.0625 3.765625 -0.0625 Z M 3.765625 -0.0625 "/></g></g></g></svg>