<svg xmlns="http://www.w3.org/2000/svg" xmlns:xlink="http://www.w3.org/1999/xlink" width="500" zoomAndPan="magnify" viewBox="0 0 375 374.999991" height="500" preserveAspectRatio="xMidYMid meet" version="1.0"><defs><g/><clipPath id="713f623014"><path d="M 6.328125 90 L 186 90 L 186 372 L 6.328125 372 Z M 6.328125 90 " clip-rule="nonzero"/></clipPath><clipPath id="bf29c3ac28"><path d="M 6.328125 0 L 352 0 L 352 193 L 6.328125 193 Z M 6.328125 0 " clip-rule="nonzero"/></clipPath><clipPath id="6cc9ea134c"><path d="M 6.328125 0 L 365 0 L 365 372 L 6.328125 372 Z M 6.328125 0 " clip-rule="nonzero"/></clipPath></defs><g clip-path="url(#713f623014)"><path fill="#f8b64c" d="M 181.894531 180.277344 L 15.71875 90.8125 C 15.59375 90.746094 15.464844 90.746094 15.335938 90.683594 C 15.015625 90.554688 14.699219 90.492188 14.378906 90.363281 C 13.929688 90.234375 13.417969 90.109375 12.972656 90.042969 C 12.84375 90.109375 12.78125 90.042969 12.652344 90.042969 C 12.332031 90.042969 12.078125 90.171875 11.757812 90.234375 C 11.375 90.300781 10.929688 90.363281 10.542969 90.492188 C 10.035156 90.683594 9.585938 90.9375 9.203125 91.195312 C 8.949219 91.324219 8.757812 91.449219 8.5625 91.640625 C 8.054688 92.089844 7.667969 92.601562 7.351562 93.113281 C 7.285156 93.238281 7.160156 93.304688 7.09375 93.367188 C 7.09375 93.429688 7.09375 93.429688 7.03125 93.496094 C 6.710938 94.132812 6.519531 94.773438 6.457031 95.476562 C 6.457031 95.605469 6.390625 95.796875 6.390625 95.921875 C 6.390625 96.117188 6.265625 96.242188 6.265625 96.433594 L 6.265625 275.371094 C 6.265625 277.734375 7.542969 279.90625 9.648438 280.992188 L 175.25 370.078125 C 175.507812 370.207031 175.761719 370.332031 176.015625 370.460938 C 176.207031 370.589844 176.398438 370.652344 176.65625 370.78125 C 177.292969 371.035156 178.0625 371.226562 178.828125 371.226562 C 181.257812 371.226562 183.300781 369.820312 184.386719 367.777344 C 184.449219 367.585938 184.640625 367.457031 184.707031 367.265625 C 184.898438 366.882812 184.898438 366.371094 184.960938 365.925781 C 185.023438 365.539062 185.21875 365.15625 185.21875 364.773438 L 185.28125 185.902344 C 185.28125 183.539062 184.003906 181.363281 181.894531 180.277344 Z M 181.894531 180.277344 " fill-opacity="1" fill-rule="nonzero"/></g><path stroke-linecap="round" transform="matrix(6.388889, 0, 0, 6.390542, -19.227425, -18.594985)" fill="none" stroke-linejoin="round" d="M 31 59.99975 L 31 59.98997 " stroke="#000000" stroke-width="2" stroke-opacity="1" stroke-miterlimit="10"/><path stroke-linecap="round" transform="matrix(6.388889, 0, 0, 6.390542, -19.227425, -18.594985)" fill="none" stroke-linejoin="round" d="M 31 59.99975 L 31 59.98997 " stroke="#000000" stroke-width="2" stroke-opacity="1" stroke-miterlimit="10"/><path fill="#ffd164" d="M 351.328125 95.921875 C 351.328125 95.730469 351.265625 95.605469 351.199219 95.414062 C 351.074219 94.773438 350.945312 94.132812 350.625 93.496094 C 350.625 93.429688 350.625 93.367188 350.5625 93.367188 C 350.496094 93.175781 350.304688 93.113281 350.242188 92.984375 C 349.921875 92.472656 349.539062 92.023438 349.15625 91.640625 C 348.898438 91.386719 348.582031 91.195312 348.261719 91.003906 C 347.878906 90.8125 347.558594 90.554688 347.113281 90.425781 C 346.664062 90.300781 346.21875 90.234375 345.769531 90.171875 C 345.515625 90.171875 345.257812 90.042969 345.003906 90.042969 C 344.875 90.042969 344.8125 90.109375 344.746094 90.109375 C 344.300781 90.109375 343.851562 90.234375 343.46875 90.363281 C 343.085938 90.492188 342.640625 90.554688 342.257812 90.746094 C 342.191406 90.8125 342.0625 90.8125 342 90.8125 L 175.890625 180.277344 C 173.84375 181.363281 172.503906 183.539062 172.503906 185.902344 L 172.4375 364.835938 C 172.4375 367.523438 174.035156 369.757812 176.335938 370.71875 C 177.101562 371.035156 177.996094 371.226562 178.890625 371.226562 C 179.976562 371.226562 181 370.972656 181.894531 370.460938 L 231.601562 343.621094 L 231.917969 343.429688 L 232.113281 343.300781 C 232.175781 343.238281 232.238281 343.171875 232.304688 343.171875 C 232.941406 342.789062 233.582031 342.34375 234.027344 341.769531 C 234.09375 341.703125 234.15625 341.574219 234.21875 341.511719 C 234.667969 340.9375 234.988281 340.296875 235.179688 339.660156 C 235.242188 339.53125 235.242188 339.402344 235.242188 339.210938 C 235.371094 338.699219 235.5625 338.253906 235.5625 337.675781 C 235.5625 337.484375 235.496094 337.359375 235.433594 337.167969 C 235.433594 337.039062 235.371094 336.976562 235.371094 336.847656 C 235.304688 336.144531 235.050781 335.503906 234.730469 334.800781 C 234.730469 334.738281 234.730469 334.675781 234.667969 334.609375 C 234.601562 334.484375 234.476562 334.417969 234.410156 334.355469 C 234.09375 333.84375 233.707031 333.394531 233.261719 332.949219 C 233.070312 332.757812 232.8125 332.566406 232.558594 332.4375 C 232.175781 332.183594 231.726562 331.988281 231.34375 331.796875 C 231.023438 331.671875 230.707031 331.542969 230.386719 331.480469 C 230.195312 331.414062 230.066406 331.351562 229.875 331.289062 C 226.871094 330.839844 223.613281 330.902344 220.546875 330.902344 C 217.542969 330.96875 212.050781 330.96875 211.027344 330.328125 C 210.582031 328.859375 212.242188 323.808594 213.199219 321.0625 C 215.179688 315.183594 217.226562 309.113281 215.371094 303.488281 C 213.582031 298.183594 208.535156 294.542969 203.617188 291.089844 C 201.125 289.300781 196.523438 286.042969 196.140625 284.699219 C 196.460938 283.167969 201.125 279.84375 203.617188 278.054688 C 208.535156 274.539062 213.582031 270.960938 215.371094 265.59375 C 217.160156 260.03125 215.117188 253.960938 213.199219 248.082031 C 212.304688 245.335938 210.582031 240.222656 210.835938 239.070312 C 212.050781 238.113281 217.480469 238.175781 220.484375 238.242188 C 226.679688 238.304688 233.003906 238.367188 237.667969 234.980469 C 242.269531 231.59375 244.1875 225.585938 246.039062 219.707031 C 246.933594 216.894531 248.59375 211.59375 249.488281 210.824219 C 250.957031 210.824219 255.113281 213.894531 257.539062 215.683594 C 262.585938 219.390625 267.761719 223.285156 273.703125 223.285156 C 279.644531 223.285156 284.882812 219.453125 289.929688 215.683594 C 292.359375 213.894531 296.449219 210.824219 297.597656 210.699219 C 298.875 211.527344 300.535156 216.832031 301.429688 219.707031 C 303.285156 225.585938 305.136719 231.59375 309.800781 234.980469 C 314.464844 238.367188 320.789062 238.304688 326.988281 238.242188 C 329.925781 238.242188 335.484375 238.175781 336.441406 238.816406 C 336.953125 240.222656 335.226562 245.398438 334.332031 248.144531 C 332.351562 254.027344 330.371094 260.160156 332.160156 265.71875 C 333.695312 270.257812 337.464844 273.453125 341.296875 276.265625 C 343.214844 277.671875 345.832031 277.863281 347.941406 276.777344 C 350.050781 275.6875 351.390625 273.453125 351.390625 271.089844 L 351.390625 96.433594 C 351.457031 96.242188 351.390625 96.117188 351.328125 95.921875 Z M 351.328125 95.921875 " fill-opacity="1" fill-rule="nonzero"/><path fill="#f8b64c" d="M 351.328125 267.765625 C 348.898438 266.039062 344.8125 263.101562 344.300781 261.757812 C 343.789062 260.222656 345.449219 255.238281 346.472656 252.234375 C 348.773438 245.398438 351.328125 237.601562 346.917969 231.53125 C 342.449219 225.394531 334.332031 225.460938 326.988281 225.523438 C 323.855469 225.585938 318.679688 225.585938 317.402344 224.691406 C 316.1875 223.796875 314.59375 218.6875 313.699219 215.9375 C 311.523438 208.972656 309.035156 201.046875 301.75 198.683594 C 294.660156 196.382812 288.140625 201.238281 282.390625 205.457031 C 279.644531 207.503906 275.492188 210.507812 273.832031 210.507812 C 272.105469 210.507812 267.953125 207.4375 265.269531 205.457031 C 259.519531 201.175781 253.003906 196.382812 245.910156 198.683594 C 238.628906 201.046875 236.136719 208.972656 233.964844 215.9375 C 233.132812 218.6875 231.472656 223.796875 230.257812 224.691406 C 228.980469 225.585938 223.804688 225.523438 220.675781 225.523438 C 213.390625 225.460938 205.148438 225.394531 200.742188 231.53125 C 196.332031 237.601562 198.890625 245.398438 201.1875 252.234375 C 202.210938 255.238281 203.871094 260.222656 203.363281 261.757812 C 202.851562 263.164062 198.761719 266.039062 196.332031 267.828125 C 190.328125 272.109375 183.492188 276.96875 183.492188 284.699219 C 183.492188 292.433594 190.328125 297.289062 196.332031 301.570312 C 198.761719 303.296875 202.851562 306.234375 203.363281 307.578125 C 203.871094 309.113281 202.210938 314.097656 201.1875 317.101562 C 198.890625 323.9375 196.332031 331.734375 200.742188 337.804688 C 205.214844 343.941406 213.328125 343.875 220.675781 343.8125 C 223.804688 343.75 228.980469 343.75 230.257812 344.644531 C 231.472656 345.539062 233.070312 350.652344 233.964844 353.398438 C 236.136719 360.363281 238.628906 368.289062 245.910156 370.652344 C 247.1875 371.035156 248.402344 371.226562 249.617188 371.226562 C 255.238281 371.226562 260.476562 367.328125 265.207031 363.878906 C 267.953125 361.835938 272.105469 358.832031 273.832031 358.832031 C 275.554688 358.832031 279.707031 361.898438 282.390625 363.878906 C 288.140625 368.160156 294.722656 372.953125 301.75 370.652344 C 309.035156 368.289062 311.523438 360.363281 313.699219 353.398438 C 314.527344 350.652344 316.1875 345.539062 317.402344 344.644531 C 318.679688 343.75 323.855469 343.8125 326.988281 343.8125 C 334.269531 343.875 342.511719 343.941406 346.917969 337.804688 C 351.328125 331.734375 348.773438 323.9375 346.472656 317.101562 C 345.449219 314.097656 343.789062 309.113281 344.300781 307.578125 C 344.8125 306.171875 348.898438 303.296875 351.328125 301.507812 C 357.332031 297.226562 364.167969 292.367188 364.167969 284.636719 C 364.167969 276.902344 357.332031 272.046875 351.328125 267.765625 Z M 351.328125 267.765625 " fill-opacity="1" fill-rule="nonzero"/><path fill="#ffffff" d="M 274.726562 263.226562 C 274.726562 250.703125 264.503906 240.476562 251.980469 240.476562 C 239.457031 240.476562 229.238281 250.703125 229.238281 263.226562 C 229.238281 275.753906 239.457031 285.976562 251.980469 285.976562 C 264.503906 285.976562 274.726562 275.753906 274.726562 263.226562 Z M 242.015625 263.226562 C 242.015625 257.730469 246.488281 253.257812 251.980469 253.257812 C 257.476562 253.257812 261.949219 257.730469 261.949219 263.226562 C 261.949219 268.722656 257.476562 273.195312 251.980469 273.195312 C 246.488281 273.195312 242.015625 268.722656 242.015625 263.226562 Z M 242.015625 263.226562 " fill-opacity="1" fill-rule="nonzero"/><path fill="#ffffff" d="M 295.105469 283.613281 C 282.582031 283.613281 272.363281 293.839844 272.363281 306.363281 C 272.363281 318.890625 282.582031 329.113281 295.105469 329.113281 C 307.628906 329.113281 317.851562 318.890625 317.851562 306.363281 C 317.851562 293.839844 307.691406 283.613281 295.105469 283.613281 Z M 295.105469 316.332031 C 289.613281 316.332031 285.140625 311.859375 285.140625 306.363281 C 285.140625 300.867188 289.613281 296.394531 295.105469 296.394531 C 300.601562 296.394531 305.074219 300.867188 305.074219 306.363281 C 305.074219 311.859375 300.601562 316.332031 295.105469 316.332031 Z M 295.105469 316.332031 " fill-opacity="1" fill-rule="nonzero"/><path fill="#ffffff" d="M 306.605469 251.851562 C 304.113281 249.359375 300.089844 249.359375 297.597656 251.851562 L 238.054688 311.414062 C 235.5625 313.90625 235.5625 317.929688 238.054688 320.421875 C 239.332031 321.703125 240.929688 322.277344 242.589844 322.277344 C 244.25 322.277344 245.847656 321.636719 247.125 320.421875 L 306.605469 260.863281 C 309.097656 258.371094 309.097656 254.34375 306.605469 251.851562 Z M 306.605469 251.851562 " fill-opacity="1" fill-rule="nonzero"/><g clip-path="url(#bf29c3ac28)"><path fill="#ffe17d" d="M 351.199219 95.21875 C 351.136719 94.773438 351.007812 94.390625 350.816406 94.007812 C 350.753906 93.816406 350.753906 93.621094 350.625 93.367188 C 350.5625 93.175781 350.371094 93.113281 350.242188 92.921875 C 349.988281 92.535156 349.730469 92.28125 349.476562 91.960938 C 349.15625 91.640625 348.835938 91.386719 348.453125 91.128906 C 348.324219 91.003906 348.199219 90.875 348.070312 90.8125 L 286.480469 57.582031 C 286.289062 57.453125 286.097656 57.386719 285.96875 57.324219 L 181.894531 1.34375 C 180.042969 0.320312 177.742188 0.320312 175.824219 1.34375 L 9.648438 90.8125 C 9.457031 90.875 9.394531 91.066406 9.203125 91.128906 C 8.820312 91.386719 8.5 91.640625 8.179688 91.960938 C 7.863281 92.28125 7.605469 92.535156 7.414062 92.921875 C 7.285156 93.113281 7.160156 93.175781 7.03125 93.367188 C 6.902344 93.558594 6.902344 93.75 6.839844 94.007812 C 6.648438 94.390625 6.519531 94.835938 6.457031 95.21875 C 6.457031 95.605469 6.390625 96.050781 6.390625 96.433594 C 6.390625 96.816406 6.457031 97.265625 6.519531 97.648438 C 6.582031 98.03125 6.710938 98.480469 6.902344 98.863281 C 6.96875 99.054688 6.96875 99.308594 7.09375 99.503906 C 7.222656 99.757812 7.414062 99.949219 7.605469 100.140625 C 7.734375 100.269531 7.796875 100.460938 7.925781 100.589844 C 8.4375 101.164062 8.949219 101.609375 9.648438 101.996094 C 9.648438 101.996094 9.714844 102.058594 9.714844 102.058594 L 175.890625 191.527344 C 176.847656 192.039062 177.871094 192.292969 178.890625 192.292969 C 179.914062 192.292969 181 192.039062 181.894531 191.527344 L 348.007812 102.058594 C 348.199219 101.996094 348.261719 101.804688 348.453125 101.675781 C 348.835938 101.417969 349.15625 101.164062 349.476562 100.84375 C 349.792969 100.523438 350.050781 100.207031 350.304688 99.886719 C 350.433594 99.695312 350.5625 99.628906 350.6875 99.4375 C 350.816406 99.246094 350.816406 99.054688 350.882812 98.863281 C 351.074219 98.480469 351.199219 98.03125 351.265625 97.585938 C 351.265625 97.265625 351.328125 96.816406 351.328125 96.433594 C 351.328125 96.050781 351.265625 95.667969 351.199219 95.21875 Z M 351.199219 95.21875 " fill-opacity="1" fill-rule="nonzero"/></g><path fill="#f0454e" d="M 289.546875 61.796875 C 289.484375 61.414062 289.355469 61.09375 289.164062 60.777344 C 289.035156 60.519531 289.035156 60.265625 288.910156 60.007812 C 288.84375 59.816406 288.652344 59.753906 288.523438 59.625 C 288.332031 59.304688 288.015625 59.050781 287.757812 58.792969 C 287.4375 58.476562 287.121094 58.15625 286.671875 57.898438 C 286.542969 57.835938 286.480469 57.707031 286.351562 57.644531 L 234.410156 29.652344 C 233.964844 29.398438 233.515625 29.269531 233.007812 29.140625 C 232.496094 29.015625 231.917969 28.949219 231.410156 28.949219 L 231.34375 28.949219 C 231.21875 28.949219 231.089844 29.015625 230.960938 29.015625 C 230.515625 29.015625 230.132812 29.140625 229.746094 29.269531 C 229.300781 29.398438 228.851562 29.460938 228.46875 29.71875 C 228.34375 29.78125 228.277344 29.78125 228.148438 29.84375 L 70.089844 120.972656 C 68.109375 122.125 66.894531 124.234375 66.894531 126.535156 L 66.894531 202.773438 C 66.894531 205.328125 68.429688 207.695312 70.855469 208.652344 C 73.21875 209.675781 75.96875 209.101562 77.820312 207.3125 L 95.324219 189.929688 L 114.875 237.15625 C 115.898438 239.582031 118.261719 241.117188 120.753906 241.117188 C 121.136719 241.117188 121.582031 241.050781 122.03125 240.988281 C 125.035156 240.414062 127.140625 237.792969 127.140625 234.726562 L 127.140625 160.851562 L 286.542969 68.765625 C 286.542969 68.765625 286.609375 68.699219 286.609375 68.699219 C 287.246094 68.316406 287.757812 67.804688 288.207031 67.292969 C 288.398438 67.101562 288.523438 66.910156 288.652344 66.65625 C 288.78125 66.527344 288.910156 66.398438 288.972656 66.207031 C 289.101562 66.015625 289.035156 65.824219 289.164062 65.632812 C 289.355469 65.183594 289.546875 64.671875 289.613281 64.226562 C 289.675781 63.90625 289.675781 63.585938 289.675781 63.203125 C 289.675781 62.757812 289.613281 62.308594 289.546875 61.796875 Z M 289.546875 61.796875 " fill-opacity="1" fill-rule="nonzero"/><g clip-path="url(#6cc9ea134c)"><path fill="#000000" d="M 351.390625 267.894531 L 351.390625 96.433594 C 351.390625 94.070312 350.113281 91.898438 348.007812 90.8125 L 286.351562 57.582031 C 286.160156 57.515625 285.96875 57.386719 285.84375 57.324219 L 181.894531 1.34375 C 179.976562 0.320312 177.742188 0.320312 175.824219 1.34375 L 9.648438 90.8125 C 7.605469 91.898438 6.328125 94.070312 6.328125 96.433594 L 6.328125 275.371094 C 6.328125 277.734375 7.605469 279.90625 9.714844 280.992188 L 175.890625 370.460938 C 177.804688 371.484375 180.042969 371.484375 181.957031 370.460938 L 230.066406 344.515625 C 235.496094 351.546875 235.113281 367.523438 245.910156 370.652344 C 256.132812 374.359375 265.589844 361.324219 273.832031 358.765625 C 282.074219 361.324219 291.59375 374.359375 301.75 370.589844 C 312.292969 367.523438 312.417969 351.929688 317.402344 344.578125 C 325.707031 342.023438 340.851562 346.753906 346.917969 337.742188 C 353.628906 329.179688 344.363281 316.269531 344.300781 307.515625 C 344.8125 306.109375 348.898438 303.234375 351.328125 301.441406 C 368.257812 291.027344 368.386719 278.4375 351.390625 267.894531 Z M 201.125 252.234375 C 202.148438 255.238281 203.808594 260.222656 203.296875 261.757812 C 199.335938 267.0625 188.601562 271.597656 185.28125 278.183594 L 185.28125 189.738281 L 338.679688 107.171875 L 338.679688 226.417969 C 332.800781 224.628906 322.449219 226.609375 317.402344 224.691406 C 312.417969 217.34375 312.355469 201.75 301.75 198.683594 C 291.59375 194.976562 282.074219 208.011719 273.832031 210.507812 C 272.105469 210.507812 267.953125 207.4375 265.269531 205.457031 C 250.0625 192.738281 238.757812 197.023438 233.964844 215.9375 C 233.132812 218.6875 231.472656 223.796875 230.257812 224.691406 C 228.980469 225.585938 223.804688 225.523438 220.675781 225.523438 C 201.0625 224.246094 193.777344 233.894531 201.125 252.234375 Z M 270.253906 63.394531 L 122.925781 148.519531 L 84.144531 127.621094 L 231.535156 42.5625 Z M 114.363281 158.421875 L 114.363281 202.582031 L 103.4375 176.253906 C 102.609375 174.273438 100.882812 172.867188 98.773438 172.417969 C 96.667969 172.035156 94.558594 172.675781 93.023438 174.144531 L 79.609375 187.4375 L 79.609375 139.761719 Z M 178.828125 14.253906 L 218.246094 35.46875 L 70.917969 120.527344 L 26.132812 96.433594 Z M 172.4375 354.164062 L 19.105469 271.535156 L 19.105469 107.105469 L 66.894531 132.859375 L 66.894531 202.773438 C 66.894531 205.328125 68.429688 207.695312 70.855469 208.652344 C 73.21875 209.675781 75.96875 209.101562 77.820312 207.3125 L 95.324219 189.929688 L 114.875 237.15625 C 115.898438 239.582031 118.261719 241.117188 120.753906 241.117188 C 121.136719 241.117188 121.582031 241.050781 122.03125 240.988281 C 125.035156 240.414062 127.140625 237.792969 127.140625 234.726562 L 127.140625 165.324219 L 172.4375 189.738281 Z M 178.828125 178.617188 L 136.085938 155.609375 L 283.414062 70.488281 L 331.585938 96.433594 Z M 185.21875 354.164062 L 185.21875 291.15625 C 188.539062 297.738281 199.273438 302.273438 203.234375 307.578125 C 203.746094 309.113281 202.082031 314.097656 201.0625 317.101562 C 197.355469 326.109375 195.949219 338.828125 206.9375 342.40625 Z M 343.917969 291.15625 C 324.046875 303.742188 333.121094 312.691406 336.632812 330.199219 C 329.351562 332.566406 316.445312 328.921875 309.800781 334.355469 C 302.898438 338.828125 301.75 352.3125 297.980469 358.511719 C 290.824219 356.019531 282.328125 345.601562 273.765625 346.050781 C 265.460938 345.601562 256.582031 355.636719 249.9375 358.574219 C 245.464844 352.503906 244.890625 338.957031 237.734375 334.355469 C 231.152344 329.113281 218.183594 332.246094 211.09375 330.519531 C 211.15625 322.851562 218.503906 311.730469 215.4375 303.679688 C 213.328125 295.628906 200.550781 290.644531 196.207031 284.828125 C 196.589844 283.292969 201.1875 280.035156 203.679688 278.308594 C 223.550781 265.71875 214.476562 256.773438 210.964844 239.261719 C 218.246094 236.898438 231.152344 240.542969 237.796875 235.109375 C 244.699219 230.636719 245.847656 217.152344 249.617188 210.953125 C 256.773438 213.445312 265.269531 223.863281 273.832031 223.414062 C 282.136719 223.863281 291.015625 213.828125 297.660156 210.890625 C 302.132812 216.960938 302.707031 230.507812 309.863281 235.109375 C 316.316406 240.351562 329.414062 237.28125 336.507812 238.945312 C 336.441406 246.613281 329.09375 257.730469 332.160156 265.785156 C 334.332031 273.964844 346.984375 278.628906 351.390625 284.765625 C 350.816406 286.234375 346.34375 289.429688 343.917969 291.15625 Z M 343.917969 291.15625 " fill-opacity="1" fill-rule="nonzero"/></g><path fill="#000000" d="M 274.726562 263.226562 C 273.957031 233.257812 230.066406 233.257812 229.300781 263.226562 C 230.066406 293.199219 273.894531 293.199219 274.726562 263.226562 Z M 242.015625 263.226562 C 242.269531 250.128906 261.691406 250.128906 261.882812 263.226562 C 261.691406 276.265625 242.269531 276.265625 242.015625 263.226562 Z M 242.015625 263.226562 " fill-opacity="1" fill-rule="nonzero"/><path fill="#000000" d="M 295.105469 283.613281 C 265.140625 284.378906 265.140625 328.285156 295.105469 329.050781 C 325.070312 328.285156 325.070312 284.445312 295.105469 283.613281 Z M 295.105469 316.332031 C 282.007812 316.078125 282.007812 296.652344 295.105469 296.457031 C 308.203125 296.652344 308.203125 316.078125 295.105469 316.332031 Z M 295.105469 316.332031 " fill-opacity="1" fill-rule="nonzero"/><path fill="#000000" d="M 306.605469 251.851562 C 304.113281 249.359375 300.089844 249.359375 297.597656 251.851562 L 238.054688 311.414062 C 235.5625 313.90625 235.5625 317.929688 238.054688 320.421875 C 240.542969 322.914062 244.570312 322.914062 247.0625 320.421875 L 306.605469 260.863281 C 309.097656 258.371094 309.097656 254.34375 306.605469 251.851562 Z M 306.605469 251.851562 " fill-opacity="1" fill-rule="nonzero"/><g fill="#000000" fill-opacity="1"><g transform="translate(251.24281, 206.661358)"><g><path d="M 2 0.109375 C 1.425781 0.109375 1.140625 -0.25 1.140625 -0.96875 C 1.140625 -1.695312 1.425781 -2.0625 2 -2.0625 C 2.570312 -2.0625 2.859375 -1.695312 2.859375 -0.96875 C 2.859375 -0.25 2.570312 0.109375 2 0.109375 Z M 2 0.109375 "/></g></g></g></svg>