<svg xmlns="http://www.w3.org/2000/svg" xmlns:xlink="http://www.w3.org/1999/xlink" width="500" zoomAndPan="magnify" viewBox="0 0 375 374.999991" height="500" preserveAspectRatio="xMidYMid meet" version="1.0"><defs><g/></defs><path fill="#545454" d="M 155.875 323.300781 C 152.609375 321.066406 140.863281 307.320312 140.300781 305.082031 C 138.808594 299.132812 143.277344 282.917969 158.351562 239.574219 C 159.476562 236.351562 160.394531 233.496094 160.394531 233.238281 C 160.394531 232.980469 158.167969 235.015625 155.449219 237.765625 C 149.230469 244.046875 143.433594 247.875 136.917969 250 C 123.339844 254.421875 112.945312 250.164062 105.015625 236.929688 C 104.476562 236.03125 103.164062 234.226562 102.101562 232.917969 C 98.503906 228.488281 96.816406 222.351562 96.222656 211.523438 L 95.847656 204.660156 L 92.46875 210.292969 C 85.074219 222.621094 74.75 234.847656 67.046875 240.402344 C 53.453125 250.207031 37.503906 250.957031 24.414062 242.410156 C 18.660156 238.65625 9.457031 229.417969 6.902344 224.832031 C 1.8125 215.703125 0.105469 206.566406 0.105469 188.503906 C 0.105469 173.160156 0.917969 165.042969 4.054688 149.042969 C 7.949219 129.175781 16.042969 107.273438 24.78125 92.957031 C 32.695312 79.980469 43.328125 68.234375 52.734375 62.074219 C 55.671875 60.148438 59.554688 57.523438 61.363281 56.234375 C 70.039062 50.054688 79.941406 49.191406 88.9375 53.832031 C 90.566406 54.667969 94.183594 56.507812 96.972656 57.910156 C 100.957031 59.914062 103.027344 61.445312 106.609375 65.023438 C 116.949219 75.355469 121.484375 88.753906 121.492188 108.988281 L 121.492188 117.414062 L 124.710938 112.652344 C 126.484375 110.035156 129.972656 105.835938 132.464844 103.324219 C 136.320312 99.4375 137.90625 98.304688 143.136719 95.714844 L 149.273438 92.671875 L 154.691406 92.671875 C 159.382812 92.671875 160.539062 92.875 163.320312 94.179688 C 165.085938 95.007812 167.628906 96.78125 168.972656 98.125 C 170.316406 99.46875 172.890625 101.453125 174.691406 102.539062 C 176.496094 103.625 179.835938 106.460938 182.117188 108.847656 C 185.4375 112.3125 186.828125 114.347656 189.054688 118.996094 C 190.589844 122.191406 192.277344 126.582031 192.808594 128.753906 C 193.335938 130.921875 193.894531 133.078125 194.042969 133.542969 C 194.335938 134.4375 198.238281 126.566406 198.949219 123.652344 C 199.726562 120.472656 201.910156 117.9375 205.320312 116.265625 C 208.3125 114.796875 209.109375 114.660156 214.789062 114.664062 C 224.132812 114.667969 231.1875 116.964844 239.023438 122.546875 C 241.203125 124.101562 244.832031 126.613281 247.085938 128.128906 C 253.320312 132.324219 258.414062 138.117188 261.628906 144.679688 C 264.871094 151.296875 264.628906 150.972656 265.355469 149.671875 C 267.761719 145.375 274.050781 140.847656 281.003906 138.402344 C 285.191406 136.929688 286.625 136.707031 292.019531 136.679688 C 300.867188 136.632812 303.875 137.6875 308.542969 142.476562 C 319.566406 153.785156 318.867188 158.800781 305.644531 163.203125 C 303.148438 164.035156 300.523438 165.296875 299.8125 166.007812 C 298.171875 167.648438 298.414062 169.054688 301.636719 176.671875 C 309.753906 195.851562 311.535156 212.882812 306.441406 222.65625 C 305.792969 223.894531 305.265625 224.96875 305.265625 225.046875 C 305.265625 225.125 307.035156 225.089844 309.199219 224.964844 C 312.652344 224.769531 313.433594 224.921875 315.65625 226.222656 C 317.042969 227.039062 318.511719 228.171875 318.914062 228.738281 C 319.316406 229.308594 320.421875 230.175781 321.375 230.667969 C 323.882812 231.960938 327.15625 235.808594 328.855469 239.457031 C 330.886719 243.824219 331.253906 250.761719 329.621094 253.957031 C 327.511719 258.09375 324.269531 259.820312 318.621094 259.820312 C 311.199219 259.820312 305.058594 254.945312 300.519531 245.445312 C 297.75 239.652344 297.199219 237.308594 297.894531 234.3125 C 298.164062 233.148438 298.324219 232.199219 298.25 232.199219 C 298.179688 232.199219 296.105469 233.410156 293.644531 234.886719 C 284.914062 240.136719 274.460938 243.304688 267.683594 242.761719 C 259.351562 242.09375 248.417969 234.242188 241.289062 223.808594 L 238.585938 219.851562 L 235.605469 222.5 C 228.523438 228.808594 217.160156 233.636719 204.25 235.828125 C 202.355469 236.152344 202.074219 236.445312 201.089844 239.125 C 198.476562 246.242188 195.148438 256.5625 191.429688 269.066406 C 186.734375 284.875 183.0625 294.480469 177.777344 304.800781 C 173.390625 313.367188 171.335938 316.59375 168.058594 320.046875 C 163.683594 324.660156 159.484375 325.785156 155.867188 323.304688 L 155.875 323.304688 Z M 162.59375 322.140625 C 170.332031 318.136719 181.378906 296.164062 189.394531 268.824219 C 194.207031 252.410156 199.761719 236.097656 200.917969 234.976562 C 201.417969 234.492188 204.238281 233.628906 207.183594 233.058594 C 216.910156 231.179688 224.613281 228.089844 231.183594 223.433594 C 235.796875 220.164062 237.625 217.6875 237.625 214.71875 C 237.625 210.839844 239.851562 207.746094 243.3125 206.8125 C 245.8125 206.140625 247.203125 204.15625 252.191406 194.144531 C 257.613281 183.257812 261.742188 169.621094 261.78125 162.46875 C 261.804688 160.242188 262.085938 157.367188 262.429688 156.085938 C 262.941406 154.1875 262.882812 153.21875 262.109375 150.835938 C 260.449219 145.714844 257.304688 140.390625 253.542969 136.328125 C 248.195312 130.550781 247.417969 130.355469 249.726562 135.375 C 252.625 141.671875 253.082031 143.867188 253.03125 151.300781 C 252.992188 156.878906 252.722656 158.953125 251.484375 163.136719 C 247.433594 176.863281 236.632812 192.949219 224.210938 203.757812 C 218.238281 208.957031 209.832031 214.664062 204.769531 216.957031 C 200.136719 219.058594 191.90625 221.484375 189.40625 221.484375 L 187.542969 221.484375 L 185.28125 228.390625 C 173.40625 264.65625 169 277.960938 167.035156 283.492188 C 164.261719 291.308594 158.90625 302.816406 156.460938 306.21875 C 154.492188 308.960938 151.164062 311.117188 148.898438 311.117188 C 148.089844 311.117188 147.425781 311.324219 147.425781 311.578125 C 147.425781 311.828125 149.785156 314.492188 152.667969 317.496094 C 158.292969 323.351562 159.316406 323.832031 162.59375 322.140625 Z M 324.417969 256.515625 C 330.035156 253.601562 330.117188 244.527344 324.597656 236.53125 C 323.78125 235.347656 322.714844 234.167969 322.226562 233.910156 C 321.476562 233.507812 321.335938 233.878906 321.3125 236.351562 C 321.253906 242.761719 316.210938 247.625 309.585938 247.671875 C 307.679688 247.6875 305.394531 247.472656 304.507812 247.199219 C 302.960938 246.71875 302.925781 246.75 303.585938 247.984375 C 304.65625 249.984375 308.585938 254.046875 310.738281 255.378906 C 315.347656 258.226562 320.324219 258.640625 324.417969 256.515625 Z M 137.429688 247.792969 C 145.023438 244.886719 152.199219 239.132812 159.335938 230.222656 C 161.074219 228.050781 162.753906 225.769531 163.0625 225.148438 C 163.375 224.527344 168.378906 209.820312 174.1875 192.460938 C 179.992188 175.105469 186.515625 155.953125 188.679688 149.902344 C 193.136719 137.445312 193.15625 137.222656 190.546875 128.214844 C 187.824219 118.820312 183.488281 111.859375 177.054688 106.558594 C 175.523438 105.292969 174.171875 104.355469 174.054688 104.472656 C 173.9375 104.589844 174.242188 105.855469 174.726562 107.285156 C 178.570312 118.609375 176.527344 138.613281 168.855469 164.773438 C 165.699219 175.523438 161.289062 186.53125 155.046875 199.21875 C 144.816406 220.015625 134.785156 232.421875 123.789062 237.894531 C 119.914062 239.820312 115.246094 240.332031 110.566406 239.34375 L 108.371094 238.878906 L 110.242188 241.242188 C 112.597656 244.214844 116.441406 247.066406 120.085938 248.542969 C 124.121094 250.179688 132.097656 249.832031 137.429688 247.792969 Z M 51.144531 245.660156 C 54.785156 244.894531 61.265625 241.980469 64.921875 239.46875 C 73.269531 233.726562 83.167969 221.839844 91.914062 207.058594 C 96.386719 199.5 96.757812 198.515625 97.597656 191.949219 C 100.257812 171.183594 107.238281 147.144531 116.132812 128.105469 C 118.429688 123.191406 118.738281 122.035156 119.296875 116.125 C 120.492188 103.5625 118.515625 88.964844 114.339844 79.503906 C 111.449219 72.964844 104.351562 64.238281 100.046875 61.933594 C 98.605469 61.164062 98.65625 61.535156 100.34375 64.085938 C 102.148438 66.808594 104.371094 73.195312 105.117188 77.789062 C 107.523438 92.613281 103.570312 120.160156 94.980469 148.480469 C 83.074219 187.726562 72.226562 210.429688 58.398438 225.042969 C 52.0625 231.742188 43.246094 236.988281 35.921875 238.421875 C 32.488281 239.09375 24.960938 238.925781 22.5625 238.121094 C 21.742188 237.84375 21.894531 238.148438 23.125 239.230469 C 25.453125 241.277344 30.90625 244.039062 34.964844 245.222656 C 38.902344 246.371094 46.75 246.582031 51.144531 245.660156 Z M 279.90625 238.960938 C 287.640625 236.332031 296.300781 231.355469 300.679688 227.015625 C 305.304688 222.433594 306.949219 217.648438 306.957031 208.761719 C 306.957031 199.03125 305.148438 191.226562 299.816406 178.136719 C 294.8125 165.84375 295.417969 164.289062 306.632812 160.601562 C 308.941406 159.84375 311.34375 158.574219 312.523438 157.496094 C 314.464844 155.714844 314.496094 155.613281 313.839844 153.484375 C 313.464844 152.28125 312.6875 150.6875 312.105469 149.9375 L 311.050781 148.578125 L 310.117188 150.503906 C 308.773438 153.269531 307.179688 154.199219 301.09375 155.78125 C 295.179688 157.320312 287.871094 160.175781 286.097656 161.640625 C 285.09375 162.472656 285.039062 162.820312 285.601562 164.820312 C 285.949219 166.054688 288.222656 171.039062 290.652344 175.898438 C 295.722656 186.019531 297.15625 189.914062 297.972656 195.769531 C 299.203125 204.636719 296.210938 213.171875 289.535156 219.828125 C 285.257812 224.09375 281.472656 226.394531 275.113281 228.605469 C 271.058594 230.011719 269.832031 230.175781 262.992188 230.1875 C 256.09375 230.203125 254.96875 230.058594 250.941406 228.644531 C 248.496094 227.78125 246.398438 227.179688 246.273438 227.304688 C 245.867188 227.707031 253.078125 234.121094 256.464844 236.367188 C 262.097656 240.105469 264.167969 240.703125 270.601562 240.4375 C 274.414062 240.28125 277.425781 239.804688 279.90625 238.960938 Z M 35.140625 215.195312 C 37.320312 214.144531 37.566406 213.835938 37.277344 212.53125 C 35.601562 204.953125 35.042969 198.851562 35.011719 187.941406 C 34.957031 165.859375 39.367188 145.757812 48.515625 126.363281 C 55.945312 110.621094 66.960938 96.320312 78.40625 87.550781 C 82.96875 84.054688 83.121094 83.695312 81.964844 79.09375 C 81.253906 76.28125 79.273438 74.351562 77.089844 74.351562 C 76.316406 74.351562 73.242188 75.503906 70.261719 76.910156 C 65.734375 79.046875 64.0625 80.234375 60.140625 84.097656 C 50.871094 93.222656 45.273438 101.03125 39.433594 112.964844 C 31.65625 128.867188 26.6875 145.859375 23.605469 167.085938 C 22.21875 176.632812 22.195312 200.261719 23.566406 206.128906 C 24.644531 210.746094 26.847656 215.484375 28.332031 216.386719 C 29.585938 217.144531 31.984375 216.726562 35.140625 215.195312 Z M 122.648438 210.414062 C 126.605469 205.433594 129.203125 201.085938 134.070312 191.277344 C 142.667969 173.960938 148.644531 155.855469 151.941406 137.152344 C 153.238281 129.796875 154.003906 119.328125 153.417969 116.988281 C 153.078125 115.640625 152.792969 115.503906 150.3125 115.503906 L 147.578125 115.503906 L 142.710938 123.535156 C 130.476562 143.742188 121.371094 171.652344 118.386719 198.089844 C 117.527344 205.703125 117.285156 214.269531 117.910156 214.890625 C 118.480469 215.464844 119.105469 214.875 122.648438 210.414062 Z M 43.214844 208.378906 C 52.53125 197.207031 60.832031 179.980469 68.960938 154.964844 C 77.324219 129.210938 81.070312 113.003906 82.644531 95.773438 C 83.542969 85.90625 83.582031 85.988281 79.5 89.261719 C 58.792969 105.859375 44.882812 131.566406 38.761719 164.546875 C 37.359375 172.09375 37.242188 173.871094 37.230469 187.660156 C 37.230469 201.109375 37.847656 209.507812 39.007812 211.476562 C 39.546875 212.390625 40.390625 211.765625 43.214844 208.378906 Z M 263.503906 206.800781 C 271.808594 205.757812 275.988281 202.558594 275.117188 197.910156 C 274.910156 196.800781 272.660156 191.824219 270.113281 186.84375 C 267.570312 181.867188 264.871094 176.273438 264.113281 174.410156 C 263.15625 172.0625 262.671875 171.375 262.527344 172.15625 C 261.996094 175.011719 258.117188 186.207031 255.980469 191.042969 C 254.679688 193.988281 252.304688 198.679688 250.699219 201.472656 C 247.847656 206.429688 247.808594 206.554688 249.042969 206.910156 C 251.066406 207.5 258.394531 207.441406 263.503906 206.800781 Z M 210.902344 184.355469 C 218.378906 177.957031 219.042969 176.882812 222.089844 166.242188 C 224.195312 158.886719 227.929688 148.195312 230.066406 143.386719 C 230.210938 143.0625 229.421875 141.742188 228.316406 140.449219 C 226.054688 137.804688 220.390625 134.746094 216.894531 134.277344 C 214.695312 133.980469 214.621094 134.027344 214.246094 135.871094 C 212.957031 142.21875 208.957031 155.503906 200.378906 181.925781 C 198.230469 188.539062 196.472656 194.199219 196.472656 194.5 C 196.472656 195.308594 205.617188 188.875 210.902344 184.355469 Z M 227.6875 163.417969 C 231.179688 156.664062 232.710938 149.964844 231.476562 146.816406 C 231.140625 145.949219 230.667969 146.714844 229.261719 150.394531 C 227.519531 154.949219 224.078125 165.925781 223.316406 169.339844 L 222.941406 171.03125 L 224.078125 169.621094 C 224.699219 168.84375 226.328125 166.054688 227.6875 163.417969 Z M 333.738281 235.089844 C 332.492188 234.523438 330.675781 233.152344 329.695312 232.035156 C 327.773438 229.84375 324.238281 224.078125 323.617188 222.117188 C 323.40625 221.453125 322.511719 220.535156 321.632812 220.078125 C 316.6875 217.523438 316.480469 213.714844 320.488281 198.902344 C 322.035156 193.183594 324.84375 182.546875 326.730469 175.257812 C 328.621094 167.972656 331.648438 156.429688 333.464844 149.609375 C 335.28125 142.789062 338.441406 130.632812 340.484375 122.601562 C 342.53125 114.570312 344.785156 106.832031 345.496094 105.40625 C 347.074219 102.234375 350.148438 100.304688 353.640625 100.292969 C 356.953125 100.277344 358.460938 101.191406 363.09375 106.007812 C 367.867188 110.972656 370.097656 114.152344 372.835938 119.914062 L 374.894531 124.242188 L 374.867188 133.824219 C 374.84375 142.675781 374.65625 144.375 372.4375 156.09375 C 367.4375 182.496094 364.195312 196.433594 360.78125 206.246094 C 355.886719 220.308594 348.292969 231.628906 341.636719 234.792969 C 338.261719 236.394531 336.734375 236.453125 333.738281 235.089844 Z M 342.933594 231.484375 C 350.253906 226.234375 357.5625 211.902344 362.175781 193.75 C 366.488281 176.78125 371.953125 148.664062 373 138.050781 C 374.042969 127.507812 372.1875 120.648438 366.089844 112.476562 L 363.621094 109.167969 L 363.253906 116.421875 C 362.273438 135.878906 349.8125 178.496094 337.699219 203.816406 C 332.964844 213.710938 330.882812 216.738281 326.734375 219.773438 L 325.363281 220.773438 L 326.878906 223.875 C 328.738281 227.675781 332.53125 232.078125 334.839844 233.121094 C 337.265625 234.214844 339.863281 233.6875 342.933594 231.484375 Z M 342.933594 231.484375 " fill-opacity="1" fill-rule="nonzero"/><g fill="#545454" fill-opacity="1"><g transform="translate(178.642251, 217.750767)"><g><path d="M 3.4375 0.15625 C 2.613281 0.15625 1.96875 -0.0507812 1.5 -0.46875 C 1.03125 -0.894531 0.796875 -1.472656 0.796875 -2.203125 C 0.796875 -3.023438 1.097656 -3.640625 1.703125 -4.046875 C 2.304688 -4.453125 3.222656 -4.675781 4.453125 -4.71875 L 5.78125 -4.765625 L 5.78125 -5.96875 C 5.78125 -6.5625 5.742188 -7.050781 5.671875 -7.4375 C 5.609375 -7.820312 5.46875 -8.109375 5.25 -8.296875 C 5.039062 -8.484375 4.71875 -8.578125 4.28125 -8.578125 C 3.664062 -8.578125 3.269531 -8.382812 3.09375 -8 C 2.914062 -7.613281 2.828125 -7.007812 2.828125 -6.1875 C 2.378906 -6.1875 2.039062 -6.257812 1.8125 -6.40625 C 1.582031 -6.5625 1.46875 -6.8125 1.46875 -7.15625 C 1.46875 -7.539062 1.597656 -7.847656 1.859375 -8.078125 C 2.117188 -8.304688 2.460938 -8.472656 2.890625 -8.578125 C 3.328125 -8.679688 3.816406 -8.734375 4.359375 -8.734375 C 5.335938 -8.734375 6.066406 -8.523438 6.546875 -8.109375 C 7.035156 -7.691406 7.28125 -6.976562 7.28125 -5.96875 L 7.28125 -1.1875 C 7.28125 -0.800781 7.351562 -0.53125 7.5 -0.375 C 7.65625 -0.226562 7.910156 -0.15625 8.265625 -0.15625 L 8.3125 -0.15625 L 8.3125 0 L 5.90625 0 L 5.90625 -1.6875 L 5.875 -1.6875 C 5.695312 -1.039062 5.390625 -0.570312 4.953125 -0.28125 C 4.523438 0.0078125 4.019531 0.15625 3.4375 0.15625 Z M 3.765625 -0.0625 C 4.160156 -0.0625 4.507812 -0.160156 4.8125 -0.359375 C 5.113281 -0.566406 5.347656 -0.84375 5.515625 -1.1875 C 5.691406 -1.53125 5.78125 -1.894531 5.78125 -2.28125 L 5.78125 -4.59375 L 4.75 -4.546875 C 3.84375 -4.503906 3.21875 -4.296875 2.875 -3.921875 C 2.53125 -3.546875 2.359375 -2.914062 2.359375 -2.03125 C 2.359375 -0.71875 2.828125 -0.0625 3.765625 -0.0625 Z M 3.765625 -0.0625 "/></g></g></g></svg>