<svg xmlns="http://www.w3.org/2000/svg" xmlns:xlink="http://www.w3.org/1999/xlink" width="500" zoomAndPan="magnify" viewBox="0 0 375 374.999991" height="500" preserveAspectRatio="xMidYMid meet" version="1.0"><defs><g/></defs><path fill="#ffffff" d="M 171.363281 195.695312 C 156.859375 193.570312 149.914062 189.191406 149.914062 189.191406 C 149.914062 189.191406 147.386719 175.28125 149.398438 154.96875 C 150.976562 139.054688 159.246094 131.765625 162.753906 122.742188 C 164.839844 123.605469 166.96875 124.292969 169.113281 124.796875 C 167.097656 123.589844 164.515625 122.027344 163.886719 118.914062 C 164.164062 117.566406 164.328125 116.15625 164.328125 114.65625 C 164.328125 100.914062 161.714844 89.867188 154.425781 76.511719 C 153.308594 74.460938 152.328125 72.144531 151.445312 69.695312 C 151.445312 69.695312 155.234375 71.941406 165.378906 73.511719 C 163.871094 73.039062 162.519531 72.558594 161.171875 72.097656 C 157.519531 70.851562 154.582031 68.132812 153.027344 64.601562 C 149.625 56.882812 143.730469 42.015625 143.730469 31.699219 C 143.730469 28.195312 164.714844 23.574219 169.421875 22.460938 C 172.082031 21.832031 173.476562 21.113281 174.1875 20.605469 C 173.894531 20.261719 173.632812 19.898438 173.410156 19.5 C 173.296875 19.28125 173.203125 19.054688 173.121094 18.832031 C 172.882812 19.121094 172.609375 19.394531 172.292969 19.667969 C 171.652344 20.214844 170.742188 20.425781 165.910156 21.398438 C 159.859375 22.609375 141.453125 26.296875 141.453125 30.820312 C 141.453125 39.597656 144.027344 63.09375 151.683594 75.746094 C 159.808594 89.171875 162.550781 98.738281 162.550781 113.664062 C 162.550781 120.957031 159.121094 126.65625 155.492188 132.691406 C 151.695312 139 147.394531 146.15625 146.253906 156.542969 C 144.25 174.832031 147 188.011719 147.539062 190.339844 C 148.285156 190.980469 153.011719 194.375 171.363281 195.695312 " fill-opacity="1" fill-rule="nonzero"/><path fill="#ffffff" d="M 202.109375 18.832031 C 202.023438 19.058594 201.929688 19.28125 201.820312 19.503906 C 201.597656 19.898438 201.332031 20.265625 201.039062 20.609375 C 201.753906 21.113281 203.148438 21.832031 205.804688 22.460938 C 210.511719 23.574219 231.496094 28.195312 231.496094 31.699219 C 231.496094 42.015625 225.601562 56.882812 222.195312 64.601562 C 220.644531 68.132812 217.707031 70.851562 214.054688 72.097656 C 212.707031 72.558594 211.355469 73.039062 209.847656 73.511719 C 219.992188 71.941406 223.78125 69.695312 223.78125 69.695312 C 222.898438 72.144531 221.917969 74.460938 220.800781 76.511719 C 213.507812 89.867188 210.898438 100.914062 210.898438 114.65625 C 210.898438 116.15625 211.058594 117.566406 211.335938 118.914062 C 210.710938 122.027344 208.128906 123.589844 206.113281 124.796875 C 208.257812 124.292969 210.386719 123.605469 212.472656 122.742188 C 215.976562 131.765625 224.25 139.054688 225.828125 154.96875 C 227.839844 175.28125 225.3125 189.191406 225.3125 189.191406 C 225.3125 189.191406 218.367188 193.566406 203.875 195.691406 C 221.921875 194.390625 226.792969 191.078125 227.691406 190.304688 C 228.25 187.875 230.960938 174.699219 228.96875 156.542969 C 227.828125 146.15625 223.527344 139 219.734375 132.691406 C 216.101562 126.65625 212.675781 120.957031 212.675781 113.664062 C 212.675781 98.738281 215.417969 89.171875 223.539062 75.746094 C 231.195312 63.09375 233.773438 39.597656 233.773438 30.820312 C 233.773438 26.296875 215.363281 22.609375 209.316406 21.398438 C 204.480469 20.425781 203.566406 20.214844 202.933594 19.667969 C 202.613281 19.394531 202.34375 19.121094 202.109375 18.832031 " fill-opacity="1" fill-rule="nonzero"/><path fill="#ffffff" d="M 198.527344 22.5625 C 198.234375 22.71875 197.941406 22.875 197.640625 22.996094 C 194.320312 24.351562 190.914062 24.546875 187.613281 24.589844 C 184.3125 24.542969 180.902344 24.347656 177.582031 22.992188 C 177.28125 22.867188 176.980469 22.707031 176.683594 22.546875 C 178.347656 23.859375 181.53125 25.171875 187.613281 25.171875 C 193.675781 25.171875 196.859375 23.863281 198.527344 22.5625 " fill-opacity="1" fill-rule="nonzero"/><path fill="#ffffff" d="M 173.949219 17.371094 C 174.105469 17.660156 174.285156 17.925781 174.480469 18.171875 C 174.722656 17.710938 175.121094 16.910156 175.589844 15.71875 C 176.390625 13.699219 175.273438 9.769531 176.546875 10.511719 C 177.828125 11.257812 180.964844 12.105469 185.910156 12.214844 C 187.550781 12.246094 189.011719 12.183594 190.328125 12.054688 C 188.175781 12.152344 186.007812 12.101562 183.859375 11.726562 C 181.492188 11.324219 179.160156 10.5625 177.132812 9.316406 C 179.417969 9.957031 181.707031 10.335938 184.011719 10.472656 C 186.304688 10.605469 188.621094 10.53125 190.921875 10.351562 C 193.203125 10.160156 195.5 9.867188 197.539062 9.050781 C 198.539062 8.632812 199.488281 8.058594 200.050781 7.179688 C 200.066406 7.160156 200.070312 7.136719 200.082031 7.117188 C 200.011719 6.96875 199.921875 6.824219 199.828125 6.683594 C 198.527344 8.378906 193.558594 9.644531 187.613281 9.644531 C 181.667969 9.644531 176.699219 8.378906 175.398438 6.683594 C 174.71875 7.722656 174.585938 8.925781 174.585938 10.179688 C 174.585938 13.839844 174.484375 15.914062 173.949219 17.371094 " fill-opacity="1" fill-rule="nonzero"/><path fill="#ffffff" d="M 156.628906 189.527344 C 155.914062 189.351562 155.195312 189.179688 154.496094 188.945312 C 153.800781 188.707031 153.082031 188.476562 152.492188 188.023438 C 153.636719 189 155.121094 189.445312 156.53125 189.910156 C 157.964844 190.324219 159.417969 190.6875 160.886719 190.972656 C 163.820312 191.539062 166.785156 191.890625 169.753906 192.1875 C 175.695312 192.75 181.660156 192.867188 187.613281 192.949219 C 193.566406 192.871094 199.527344 192.75 205.46875 192.191406 C 208.4375 191.894531 211.402344 191.539062 214.339844 190.976562 C 215.804688 190.6875 217.261719 190.328125 218.695312 189.914062 C 220.101562 189.445312 221.589844 189 222.734375 188.023438 C 222.144531 188.476562 221.421875 188.707031 220.730469 188.945312 C 220.027344 189.179688 219.3125 189.351562 218.59375 189.523438 C 217.148438 189.828125 215.691406 190.074219 214.222656 190.25 C 211.292969 190.664062 208.339844 190.882812 205.382812 191.039062 C 199.46875 191.355469 193.542969 191.492188 187.613281 191.449219 C 181.683594 191.496094 175.753906 191.355469 169.839844 191.042969 C 166.886719 190.886719 163.933594 190.664062 161.003906 190.25 C 159.535156 190.078125 158.078125 189.828125 156.628906 189.527344 " fill-opacity="1" fill-rule="nonzero"/><path fill="#ffffff" d="M 205.839844 340.335938 C 204.625 338.914062 203.320312 337.597656 201.878906 336.441406 C 199.871094 334.804688 197.609375 333.523438 195.191406 332.699219 C 192.769531 331.871094 190.207031 331.507812 187.613281 331.476562 C 185.019531 331.503906 182.453125 331.871094 180.03125 332.699219 C 177.613281 333.523438 175.355469 334.804688 173.34375 336.441406 C 171.882812 337.609375 170.5625 338.941406 169.339844 340.382812 C 174.125 335.476562 179.992188 331.988281 187.613281 331.988281 C 195.207031 331.988281 201.058594 335.453125 205.839844 340.335938 " fill-opacity="1" fill-rule="nonzero"/><path fill="#ffffff" d="M 137.785156 370.753906 C 138.457031 371.226562 140.476562 372.027344 144.789062 372.027344 C 148.445312 372.027344 151.984375 366.757812 155.664062 360.527344 C 157.40625 356.242188 159.089844 351.894531 161.210938 347.683594 C 163.707031 342.6875 166.847656 337.796875 171.300781 333.96875 C 173.515625 332.058594 176.140625 330.566406 178.933594 329.578125 C 181.730469 328.585938 184.683594 328.136719 187.613281 328.082031 C 190.539062 328.132812 193.496094 328.582031 196.296875 329.574219 C 199.085938 330.5625 201.707031 332.058594 203.925781 333.964844 C 208.378906 337.796875 211.523438 342.683594 214.019531 347.679688 C 216.144531 351.902344 217.832031 356.261719 219.578125 360.550781 C 223.25 366.773438 226.785156 372.027344 230.4375 372.027344 C 234.75 372.027344 236.769531 371.226562 237.4375 370.753906 C 236.832031 370.121094 234.886719 369.105469 231.734375 369.105469 C 226.167969 369.105469 224.160156 362.546875 221.621094 354.234375 C 221.003906 352.21875 220.351562 350.097656 219.625 347.941406 C 217.824219 343.96875 215.777344 340.113281 213.234375 336.609375 C 210.222656 332.496094 206.585938 328.78125 202.15625 326.316406 C 197.75 323.824219 192.675781 322.671875 187.613281 322.703125 C 182.546875 322.671875 177.476562 323.824219 173.070312 326.320312 C 168.636719 328.78125 165.003906 332.496094 161.988281 336.613281 C 159.445312 340.125 157.394531 343.980469 155.59375 347.960938 C 154.867188 350.113281 154.21875 352.226562 153.601562 354.234375 C 151.0625 362.546875 149.054688 369.105469 143.492188 369.105469 C 140.339844 369.105469 138.394531 370.121094 137.785156 370.753906 " fill-opacity="1" fill-rule="nonzero"/><path fill="#ffffff" d="M 160.359375 336.761719 C 160.550781 336.464844 160.722656 336.15625 160.917969 335.863281 C 163.851562 331.507812 167.675781 327.640625 172.304688 324.976562 C 176.929688 322.296875 182.304688 321.019531 187.613281 321.011719 C 192.921875 321.023438 198.296875 322.296875 202.917969 324.980469 C 207.550781 327.640625 211.371094 331.511719 214.300781 335.867188 C 214.511719 336.171875 214.691406 336.496094 214.894531 336.808594 C 209.988281 327.9375 202.136719 320.683594 187.613281 320.683594 C 173.117188 320.683594 165.265625 327.910156 160.359375 336.761719 " fill-opacity="1" fill-rule="nonzero"/><path fill="#373737" d="M 187.242188 255.597656 L 187.09375 281.199219 L 186.917969 294 C 186.808594 298.265625 186.746094 302.53125 186.605469 306.800781 C 186.457031 302.53125 186.398438 298.265625 186.289062 294 L 186.113281 281.199219 L 185.96875 255.597656 C 186.019531 247.0625 186.011719 238.53125 186.117188 229.996094 C 186.21875 221.464844 186.339844 212.929688 186.605469 204.398438 C 186.867188 212.929688 186.988281 221.464844 187.089844 229.996094 C 187.195312 238.53125 187.1875 247.0625 187.242188 255.597656 Z M 175.398438 6.683594 C 176.699219 8.378906 181.667969 9.644531 187.613281 9.644531 C 193.558594 9.644531 198.527344 8.378906 199.828125 6.683594 C 199.921875 6.824219 200.011719 6.96875 200.082031 7.117188 C 200.070312 7.136719 200.066406 7.160156 200.050781 7.179688 C 199.488281 8.058594 198.539062 8.632812 197.539062 9.050781 C 195.5 9.867188 193.203125 10.160156 190.921875 10.351562 C 188.621094 10.53125 186.304688 10.605469 184.011719 10.472656 C 181.707031 10.335938 179.417969 9.957031 177.132812 9.316406 C 179.160156 10.5625 181.492188 11.324219 183.859375 11.726562 C 186.007812 12.101562 188.175781 12.152344 190.328125 12.054688 C 189.011719 12.183594 187.550781 12.246094 185.910156 12.214844 C 180.964844 12.105469 177.828125 11.257812 176.546875 10.511719 C 175.273438 9.769531 176.390625 13.699219 175.589844 15.71875 C 175.121094 16.910156 174.722656 17.710938 174.480469 18.171875 C 174.285156 17.925781 174.105469 17.660156 173.949219 17.371094 C 174.484375 15.914062 174.585938 13.839844 174.585938 10.179688 C 174.585938 8.925781 174.71875 7.722656 175.398438 6.683594 Z M 187.613281 191.449219 C 193.542969 191.492188 199.46875 191.355469 205.382812 191.039062 C 208.339844 190.882812 211.292969 190.664062 214.222656 190.25 C 215.691406 190.074219 217.148438 189.828125 218.59375 189.523438 C 219.3125 189.351562 220.027344 189.179688 220.730469 188.945312 C 221.421875 188.707031 222.144531 188.476562 222.734375 188.023438 C 221.589844 189 220.101562 189.445312 218.695312 189.914062 C 217.261719 190.328125 215.804688 190.6875 214.339844 190.976562 C 211.402344 191.539062 208.4375 191.894531 205.46875 192.191406 C 199.527344 192.75 193.566406 192.871094 187.613281 192.949219 C 181.660156 192.867188 175.695312 192.75 169.753906 192.1875 C 166.785156 191.890625 163.820312 191.539062 160.886719 190.972656 C 159.417969 190.6875 157.964844 190.324219 156.53125 189.910156 C 155.121094 189.445312 153.636719 189 152.492188 188.023438 C 153.082031 188.476562 153.800781 188.707031 154.496094 188.945312 C 155.195312 189.179688 155.914062 189.351562 156.628906 189.527344 C 158.078125 189.828125 159.535156 190.078125 161.003906 190.25 C 163.933594 190.664062 166.886719 190.886719 169.839844 191.042969 C 175.753906 191.355469 181.683594 191.496094 187.613281 191.449219 Z M 177.582031 22.992188 C 180.902344 24.347656 184.3125 24.542969 187.613281 24.589844 C 190.914062 24.546875 194.320312 24.351562 197.640625 22.996094 C 197.941406 22.875 198.234375 22.71875 198.527344 22.5625 C 196.859375 23.863281 193.675781 25.171875 187.613281 25.171875 C 181.53125 25.171875 178.347656 23.859375 176.683594 22.546875 C 176.980469 22.707031 177.28125 22.867188 177.582031 22.992188 Z M 233.773438 30.820312 C 233.773438 39.597656 231.195312 63.09375 223.539062 75.746094 C 215.417969 89.171875 212.675781 98.738281 212.675781 113.664062 C 212.675781 120.957031 216.101562 126.65625 219.734375 132.691406 C 223.527344 139 227.828125 146.15625 228.96875 156.542969 C 230.960938 174.699219 228.25 187.875 227.691406 190.304688 C 226.792969 191.078125 221.921875 194.390625 203.875 195.691406 C 218.367188 193.566406 225.3125 189.191406 225.3125 189.191406 C 225.3125 189.191406 227.839844 175.28125 225.828125 154.96875 C 224.25 139.054688 215.976562 131.765625 212.472656 122.742188 C 210.386719 123.605469 208.257812 124.292969 206.113281 124.796875 C 208.128906 123.589844 210.710938 122.027344 211.335938 118.914062 C 211.058594 117.566406 210.898438 116.15625 210.898438 114.65625 C 210.898438 100.914062 213.507812 89.867188 220.800781 76.511719 C 221.917969 74.460938 222.898438 72.144531 223.78125 69.695312 C 223.78125 69.695312 219.992188 71.941406 209.847656 73.511719 C 211.355469 73.039062 212.707031 72.558594 214.054688 72.097656 C 217.707031 70.851562 220.644531 68.132812 222.195312 64.601562 C 225.601562 56.882812 231.496094 42.015625 231.496094 31.699219 C 231.496094 28.195312 210.511719 23.574219 205.804688 22.460938 C 203.148438 21.832031 201.753906 21.113281 201.039062 20.609375 C 201.332031 20.265625 201.597656 19.898438 201.820312 19.503906 C 201.929688 19.28125 202.023438 19.058594 202.109375 18.832031 C 202.34375 19.121094 202.613281 19.394531 202.933594 19.667969 C 203.566406 20.214844 204.480469 20.425781 209.316406 21.398438 C 215.363281 22.609375 233.773438 26.296875 233.773438 30.820312 Z M 146.253906 156.542969 C 147.394531 146.15625 151.695312 139 155.492188 132.691406 C 159.121094 126.65625 162.550781 120.957031 162.550781 113.664062 C 162.550781 98.738281 159.808594 89.171875 151.683594 75.746094 C 144.027344 63.09375 141.453125 39.597656 141.453125 30.820312 C 141.453125 26.296875 159.859375 22.609375 165.910156 21.398438 C 170.742188 20.425781 171.652344 20.214844 172.292969 19.667969 C 172.609375 19.394531 172.882812 19.121094 173.121094 18.832031 C 173.203125 19.054688 173.296875 19.28125 173.410156 19.5 C 173.632812 19.898438 173.894531 20.261719 174.1875 20.605469 C 173.476562 21.113281 172.082031 21.832031 169.421875 22.460938 C 164.714844 23.574219 143.730469 28.195312 143.730469 31.699219 C 143.730469 42.015625 149.625 56.882812 153.027344 64.601562 C 154.582031 68.132812 157.519531 70.851562 161.171875 72.097656 C 162.519531 72.558594 163.871094 73.039062 165.378906 73.511719 C 155.234375 71.941406 151.445312 69.695312 151.445312 69.695312 C 152.328125 72.144531 153.308594 74.460938 154.425781 76.511719 C 161.714844 89.867188 164.328125 100.914062 164.328125 114.65625 C 164.328125 116.15625 164.164062 117.566406 163.886719 118.914062 C 164.515625 122.027344 167.097656 123.589844 169.113281 124.796875 C 166.96875 124.292969 164.839844 123.605469 162.753906 122.742188 C 159.246094 131.765625 150.976562 139.054688 149.398438 154.96875 C 147.386719 175.28125 149.914062 189.191406 149.914062 189.191406 C 149.914062 189.191406 156.859375 193.570312 171.363281 195.695312 C 153.011719 194.375 148.285156 190.980469 147.539062 190.339844 C 147 188.011719 144.25 174.832031 146.253906 156.542969 Z M 153.601562 354.234375 C 154.21875 352.226562 154.867188 350.113281 155.59375 347.960938 C 157.394531 343.980469 159.445312 340.125 161.988281 336.613281 C 165.003906 332.496094 168.636719 328.78125 173.070312 326.320312 C 177.476562 323.824219 182.546875 322.671875 187.613281 322.703125 C 192.675781 322.671875 197.75 323.824219 202.15625 326.316406 C 206.585938 328.78125 210.222656 332.496094 213.234375 336.609375 C 215.777344 340.113281 217.824219 343.96875 219.625 347.941406 C 220.351562 350.097656 221.003906 352.21875 221.621094 354.234375 C 224.160156 362.546875 226.167969 369.105469 231.734375 369.105469 C 234.886719 369.105469 236.832031 370.121094 237.4375 370.753906 C 236.769531 371.226562 234.75 372.027344 230.4375 372.027344 C 226.785156 372.027344 223.25 366.773438 219.578125 360.550781 C 217.832031 356.261719 216.144531 351.902344 214.019531 347.679688 C 211.523438 342.683594 208.378906 337.796875 203.925781 333.964844 C 201.707031 332.058594 199.085938 330.5625 196.296875 329.574219 C 193.496094 328.582031 190.539062 328.132812 187.613281 328.082031 C 184.683594 328.136719 181.730469 328.585938 178.933594 329.578125 C 176.140625 330.566406 173.515625 332.058594 171.300781 333.96875 C 166.847656 337.796875 163.707031 342.6875 161.210938 347.683594 C 159.089844 351.894531 157.40625 356.242188 155.664062 360.527344 C 151.984375 366.757812 148.445312 372.027344 144.789062 372.027344 C 140.476562 372.027344 138.457031 371.226562 137.785156 370.753906 C 138.394531 370.121094 140.339844 369.105469 143.492188 369.105469 C 149.054688 369.105469 151.0625 362.546875 153.601562 354.234375 Z M 187.613281 320.683594 C 202.136719 320.683594 209.988281 327.9375 214.894531 336.808594 C 214.691406 336.496094 214.511719 336.171875 214.300781 335.867188 C 211.371094 331.511719 207.550781 327.640625 202.917969 324.980469 C 198.296875 322.296875 192.921875 321.023438 187.613281 321.011719 C 182.304688 321.019531 176.929688 322.296875 172.304688 324.976562 C 167.675781 327.640625 163.851562 331.507812 160.917969 335.863281 C 160.722656 336.15625 160.550781 336.464844 160.359375 336.761719 C 165.265625 327.910156 173.117188 320.683594 187.613281 320.683594 Z M 187.613281 331.988281 C 179.992188 331.988281 174.125 335.476562 169.339844 340.382812 C 170.5625 338.941406 171.882812 337.609375 173.34375 336.441406 C 175.355469 334.804688 177.613281 333.523438 180.03125 332.699219 C 182.453125 331.871094 185.019531 331.503906 187.613281 331.476562 C 190.207031 331.507812 192.769531 331.871094 195.191406 332.699219 C 197.609375 333.523438 199.871094 334.804688 201.878906 336.441406 C 203.320312 337.597656 204.625 338.914062 205.839844 340.335938 C 201.058594 335.453125 195.207031 331.988281 187.613281 331.988281 Z M 231.734375 366.222656 C 222.222656 366.222656 226.109375 323.707031 194.480469 318.351562 L 194.480469 317.101562 C 196.039062 316.488281 197 315.664062 197 314.761719 C 197 313.722656 195.738281 312.789062 193.75 312.160156 C 194.019531 311.898438 194.183594 311.617188 194.183594 311.316406 C 194.183594 310.382812 192.714844 309.578125 190.585938 309.183594 L 190.585938 199.601562 C 224.402344 199.265625 229.914062 193.261719 230.683594 192.03125 L 230.820312 191.808594 L 230.886719 191.558594 C 231.039062 190.972656 234.621094 176.882812 232.347656 156.171875 C 231.125 145.046875 226.621094 137.554688 222.644531 130.945312 C 219.121094 125.082031 216.074219 120.015625 216.074219 113.664062 C 216.074219 99.269531 218.597656 90.480469 226.449219 77.5 C 235.351562 62.785156 237.171875 36.9375 237.171875 30.820312 C 237.171875 24.082031 223.742188 20.824219 209.984375 18.070312 C 207.949219 17.664062 205.65625 17.203125 205.003906 16.972656 C 204.363281 16.394531 204.039062 15.757812 204.039062 10.179688 C 204.039062 1.234375 196.144531 0 187.613281 0 C 179.082031 0 171.1875 1.234375 171.1875 10.179688 C 171.1875 15.757812 170.863281 16.394531 170.21875 16.972656 C 169.570312 17.203125 167.277344 17.664062 165.242188 18.070312 C 151.484375 20.824219 138.050781 24.082031 138.050781 30.820312 C 138.050781 36.9375 139.871094 62.785156 148.773438 77.5 C 156.628906 90.480469 159.148438 99.269531 159.148438 113.664062 C 159.148438 120.015625 156.105469 125.082031 152.578125 130.945312 C 148.605469 137.554688 144.097656 145.046875 142.878906 156.171875 C 140.605469 176.882812 144.183594 190.972656 144.339844 191.558594 L 144.402344 191.808594 L 144.542969 192.03125 C 145.3125 193.261719 150.824219 199.265625 184.640625 199.601562 L 184.640625 309.183594 C 182.511719 309.578125 181.039062 310.382812 181.039062 311.316406 C 181.039062 311.617188 181.207031 311.898438 181.476562 312.160156 C 179.488281 312.789062 178.226562 313.722656 178.226562 314.761719 C 178.226562 315.664062 179.1875 316.488281 180.746094 317.101562 L 180.746094 318.351562 C 149.117188 323.707031 153.003906 366.222656 143.492188 366.222656 C 133.339844 366.222656 129.921875 374.914062 144.789062 374.914062 C 146.179688 374.980469 147.582031 374.53125 148.773438 373.757812 C 148.988281 373.621094 149.183594 373.464844 149.378906 373.3125 C 158.941406 366.59375 165.15625 340.625 181.917969 335.699219 C 182.613281 336.730469 183.585938 337.554688 184.726562 338.082031 L 184.726562 343.109375 C 184.726562 344.703125 186.019531 345.992188 187.613281 345.992188 C 189.207031 345.992188 190.496094 344.703125 190.496094 343.109375 L 190.496094 338.082031 C 191.636719 337.554688 192.609375 336.730469 193.308594 335.699219 C 210.054688 340.621094 216.277344 366.550781 225.820312 373.300781 C 226.027344 373.457031 226.226562 373.617188 226.449219 373.757812 C 227.640625 374.53125 229.046875 374.980469 230.4375 374.914062 C 245.304688 374.914062 241.882812 366.222656 231.734375 366.222656 " fill-opacity="1" fill-rule="nonzero"/><path fill="#ffffff" d="M 186.117188 229.996094 C 186.011719 238.53125 186.019531 247.0625 185.96875 255.597656 L 186.113281 281.199219 L 186.289062 294 C 186.398438 298.265625 186.457031 302.53125 186.605469 306.800781 C 186.746094 302.53125 186.808594 298.265625 186.917969 294 L 187.09375 281.199219 L 187.242188 255.597656 C 187.1875 247.0625 187.195312 238.53125 187.089844 229.996094 C 186.988281 221.464844 186.867188 212.929688 186.605469 204.398438 C 186.339844 212.929688 186.21875 221.464844 186.117188 229.996094 " fill-opacity="1" fill-rule="nonzero"/><g fill="#373737" fill-opacity="1"><g transform="translate(184.253138, 168.779975)"><g><path d="M 0.4375 0 L 0.4375 -0.15625 L 0.640625 -0.15625 C 1.109375 -0.15625 1.441406 -0.25 1.640625 -0.4375 C 1.847656 -0.632812 1.953125 -0.953125 1.953125 -1.390625 L 1.953125 -8.421875 L 0.5 -8.421875 L 0.5 -8.578125 L 1.953125 -8.578125 L 1.953125 -9.375 C 1.953125 -10.320312 2.203125 -11.046875 2.703125 -11.546875 C 3.203125 -12.054688 3.957031 -12.3125 4.96875 -12.3125 C 5.65625 -12.3125 6.171875 -12.207031 6.515625 -12 C 6.859375 -11.800781 7.03125 -11.535156 7.03125 -11.203125 C 7.03125 -10.910156 6.90625 -10.6875 6.65625 -10.53125 C 6.40625 -10.375 6.09375 -10.296875 5.71875 -10.296875 C 5.71875 -10.984375 5.640625 -11.460938 5.484375 -11.734375 C 5.328125 -12.015625 5.054688 -12.15625 4.671875 -12.15625 C 4.222656 -12.15625 3.90625 -11.957031 3.71875 -11.5625 C 3.539062 -11.175781 3.453125 -10.492188 3.453125 -9.515625 L 3.453125 -8.578125 L 5.71875 -8.578125 L 5.71875 -8.421875 L 3.453125 -8.421875 L 3.453125 -1.46875 C 3.453125 -1 3.550781 -0.660156 3.75 -0.453125 C 3.957031 -0.253906 4.296875 -0.15625 4.765625 -0.15625 L 5.375 -0.15625 L 5.375 0 Z M 0.4375 0 "/></g></g></g><g fill="#373737" fill-opacity="1"><g transform="translate(190.155726, 168.779975)"><g><path d="M 0.4375 0 L 0.4375 -0.15625 L 0.640625 -0.15625 C 1.109375 -0.15625 1.441406 -0.25 1.640625 -0.4375 C 1.847656 -0.632812 1.953125 -0.953125 1.953125 -1.390625 L 1.953125 -8.421875 L 0.5 -8.421875 L 0.5 -8.578125 L 1.953125 -8.578125 L 1.953125 -9.375 C 1.953125 -10.320312 2.203125 -11.046875 2.703125 -11.546875 C 3.203125 -12.054688 3.957031 -12.3125 4.96875 -12.3125 C 5.65625 -12.3125 6.171875 -12.207031 6.515625 -12 C 6.859375 -11.800781 7.03125 -11.535156 7.03125 -11.203125 C 7.03125 -10.910156 6.90625 -10.6875 6.65625 -10.53125 C 6.40625 -10.375 6.09375 -10.296875 5.71875 -10.296875 C 5.71875 -10.984375 5.640625 -11.460938 5.484375 -11.734375 C 5.328125 -12.015625 5.054688 -12.15625 4.671875 -12.15625 C 4.222656 -12.15625 3.90625 -11.957031 3.71875 -11.5625 C 3.539062 -11.175781 3.453125 -10.492188 3.453125 -9.515625 L 3.453125 -8.578125 L 5.71875 -8.578125 L 5.71875 -8.421875 L 3.453125 -8.421875 L 3.453125 -1.46875 C 3.453125 -1 3.550781 -0.660156 3.75 -0.453125 C 3.957031 -0.253906 4.296875 -0.15625 4.765625 -0.15625 L 5.375 -0.15625 L 5.375 0 Z M 0.4375 0 "/></g></g></g></svg>