<svg xmlns="http://www.w3.org/2000/svg" xmlns:xlink="http://www.w3.org/1999/xlink" width="500" zoomAndPan="magnify" viewBox="0 0 375 374.999991" height="500" preserveAspectRatio="xMidYMid meet" version="1.0"><defs><clipPath id="3054c6b980"><path d="M 303 111.132812 L 323 111.132812 L 323 138.882812 L 303 138.882812 Z M 303 111.132812 " clip-rule="nonzero"/></clipPath><clipPath id="44d23929a0"><path d="M 260.878906 117 L 273 117 L 273 138.882812 L 260.878906 138.882812 Z M 260.878906 117 " clip-rule="nonzero"/></clipPath><clipPath id="90039ce3be"><path d="M 331 122 L 341.878906 122 L 341.878906 134 L 331 134 Z M 331 122 " clip-rule="nonzero"/></clipPath><clipPath id="2f4b8c1c79"><path d="M 0 5.859375 L 364 5.859375 L 364 368.859375 L 0 368.859375 Z M 0 5.859375 " clip-rule="nonzero"/></clipPath><clipPath id="ea07b7f5cf"><path d="M 75 272 L 314 272 L 314 368.859375 L 75 368.859375 Z M 75 272 " clip-rule="nonzero"/></clipPath><clipPath id="d4f60cbdc1"><path d="M 59 271 L 319 271 L 319 368.859375 L 59 368.859375 Z M 59 271 " clip-rule="nonzero"/></clipPath><clipPath id="fd8da1060a"><path d="M 259 5.859375 L 375 5.859375 L 375 131 L 259 131 Z M 259 5.859375 " clip-rule="nonzero"/></clipPath></defs><path fill="#027a85" d="M 283.523438 128.199219 C 283.507812 128.246094 283.492188 128.277344 283.476562 128.308594 C 282.824219 130.097656 281.882812 131.738281 280.828125 133.320312 C 280.683594 133.542969 280.507812 133.765625 280.300781 133.941406 C 279.566406 134.644531 278.5625 134.613281 277.890625 133.832031 C 277.621094 133.527344 277.445312 133.175781 277.316406 132.792969 C 276.980469 131.882812 276.839844 130.941406 276.789062 129.984375 C 276.742188 129.1875 276.773438 128.40625 276.839844 127.605469 C 276.839844 127.542969 276.839844 127.464844 276.855469 127.398438 C 276.789062 127.398438 276.789062 127.449219 276.773438 127.480469 C 275.929688 129.296875 275.164062 131.132812 274.796875 133.113281 C 274.699219 133.589844 274.636719 134.085938 274.554688 134.566406 C 274.507812 134.835938 274.445312 135.089844 274.285156 135.316406 C 273.773438 136.046875 272.722656 136 272.273438 135.21875 C 272.148438 134.996094 272.097656 134.738281 272.066406 134.484375 C 271.957031 133.128906 271.957031 131.757812 272.066406 130.398438 C 272.257812 128.292969 272.59375 126.203125 273.054688 124.128906 C 273.230469 123.347656 273.472656 122.597656 273.773438 121.863281 C 273.871094 121.621094 273.980469 121.382812 274.140625 121.175781 C 274.269531 121 274.429688 120.855469 274.636719 120.777344 C 275.128906 120.585938 275.625 120.871094 275.722656 121.398438 C 275.753906 121.605469 275.738281 121.8125 275.6875 122.023438 C 275.464844 123.121094 275.226562 124.222656 275.003906 125.324219 C 274.90625 125.804688 274.828125 126.296875 274.730469 126.777344 C 274.714844 126.839844 274.699219 126.90625 274.714844 126.96875 C 274.796875 126.921875 274.8125 126.855469 274.828125 126.792969 C 275.355469 125.753906 275.878906 124.734375 276.472656 123.730469 C 276.695312 123.347656 276.933594 122.964844 277.1875 122.582031 C 277.398438 122.261719 277.605469 121.925781 277.796875 121.589844 C 277.90625 121.382812 278.066406 121.207031 278.289062 121.082031 C 278.863281 120.777344 279.566406 121.03125 279.839844 121.671875 C 279.980469 122.003906 279.980469 122.371094 279.949219 122.722656 C 279.886719 123.363281 279.773438 123.984375 279.695312 124.605469 C 279.519531 125.867188 279.328125 127.128906 279.265625 128.390625 C 279.214844 129.523438 279.246094 130.671875 279.488281 131.789062 C 279.503906 131.882812 279.488281 132.011719 279.582031 132.042969 C 279.679688 132.058594 279.726562 131.949219 279.789062 131.882812 C 280.8125 130.8125 281.691406 129.617188 282.40625 128.324219 C 282.597656 127.957031 282.757812 127.574219 282.886719 127.191406 C 282.949219 127 283.0625 126.839844 283.285156 126.808594 C 283.382812 126.792969 283.363281 126.714844 283.363281 126.648438 C 283.332031 126.1875 283.285156 125.722656 283.253906 125.261719 C 283.191406 124.273438 283.207031 123.28125 283.347656 122.292969 C 283.382812 122.117188 283.414062 121.941406 283.492188 121.765625 C 283.636719 121.445312 283.90625 121.253906 284.210938 121.273438 C 284.515625 121.289062 284.753906 121.496094 284.863281 121.832031 C 284.960938 122.164062 284.976562 122.5 285.007812 122.835938 C 285.105469 124.367188 285.25 125.882812 285.503906 127.398438 C 285.597656 128.023438 285.726562 128.644531 285.855469 129.265625 C 285.871094 129.296875 285.855469 129.347656 285.902344 129.378906 C 285.949219 129.363281 285.949219 129.332031 285.964844 129.296875 C 286.796875 127.097656 287.722656 124.941406 288.535156 122.738281 C 288.742188 122.195312 288.933594 121.65625 289.125 121.113281 C 289.238281 120.824219 289.316406 120.523438 289.363281 120.21875 C 289.363281 120.21875 289.363281 120.203125 289.363281 120.203125 C 289.414062 119.964844 289.589844 119.820312 289.796875 119.835938 C 290.003906 119.851562 290.164062 120.027344 290.164062 120.265625 C 290.179688 120.570312 290.132812 120.855469 290.050781 121.144531 C 289.765625 122.371094 289.398438 123.585938 289.0625 124.796875 C 288.421875 127.191406 287.800781 129.585938 287.164062 131.964844 C 287.066406 132.332031 286.972656 132.699219 286.828125 133.046875 C 286.730469 133.289062 286.621094 133.511719 286.445312 133.6875 C 285.933594 134.199219 285.152344 134.148438 284.707031 133.574219 C 284.53125 133.335938 284.433594 133.0625 284.355469 132.777344 C 284.132812 131.929688 283.988281 131.085938 283.84375 130.238281 C 283.730469 129.601562 283.636719 128.980469 283.539062 128.339844 C 283.574219 128.308594 283.574219 128.246094 283.523438 128.199219 Z M 283.523438 128.199219 " fill-opacity="1" fill-rule="nonzero"/><g clip-path="url(#3054c6b980)"><path fill="#027a85" d="M 315.28125 124.144531 C 315.21875 124.191406 315.21875 124.253906 315.183594 124.320312 C 314.386719 126.058594 313.605469 127.78125 312.726562 129.472656 C 312.25 130.414062 311.691406 131.324219 311.050781 132.171875 C 310.8125 132.472656 310.574219 132.761719 310.285156 133.03125 C 310.109375 133.191406 309.917969 133.351562 309.679688 133.449219 C 309.058594 133.71875 308.449219 133.496094 308.179688 132.871094 C 308.066406 132.617188 308.019531 132.332031 307.988281 132.042969 C 307.957031 131.722656 307.941406 131.390625 307.925781 131.054688 C 307.859375 131.085938 307.84375 131.132812 307.828125 131.179688 C 307.542969 131.773438 307.238281 132.363281 306.902344 132.9375 C 306.679688 133.304688 306.425781 133.671875 306.121094 133.972656 C 306.023438 134.070312 305.929688 134.148438 305.816406 134.230469 C 305.242188 134.628906 304.558594 134.566406 304.03125 134.101562 C 303.773438 133.863281 303.582031 133.558594 303.457031 133.238281 C 303.183594 132.617188 303.089844 131.980469 303.058594 131.308594 C 303.007812 130.175781 303.199219 129.058594 303.503906 127.972656 C 303.933594 126.441406 304.558594 125.003906 305.515625 123.730469 C 305.832031 123.296875 306.183594 122.898438 306.601562 122.546875 C 306.808594 122.371094 307.046875 122.230469 307.300781 122.148438 C 308.132812 121.878906 308.851562 122.484375 308.722656 123.332031 C 308.675781 123.679688 308.515625 124.015625 308.433594 124.367188 C 308.402344 124.496094 308.371094 124.621094 308.324219 124.734375 C 308.257812 124.894531 308.148438 124.988281 308.003906 124.988281 C 307.859375 124.988281 307.734375 124.894531 307.667969 124.734375 C 307.636719 124.65625 307.621094 124.558594 307.589844 124.480469 C 307.523438 124.480469 307.507812 124.527344 307.492188 124.558594 C 306.234375 126.554688 305.402344 128.691406 305.308594 131.085938 C 305.292969 131.421875 305.308594 131.738281 305.339844 132.074219 C 305.339844 132.121094 305.324219 132.1875 305.371094 132.203125 C 305.417969 132.21875 305.449219 132.15625 305.464844 132.121094 C 305.707031 131.820312 305.929688 131.484375 306.136719 131.148438 C 306.886719 129.96875 307.460938 128.691406 308.066406 127.429688 C 308.226562 127.097656 308.339844 126.746094 308.417969 126.394531 C 308.578125 125.628906 308.785156 124.894531 309.074219 124.160156 C 309.167969 123.890625 309.296875 123.632812 309.441406 123.410156 C 309.488281 123.347656 309.535156 123.265625 309.582031 123.21875 C 309.808594 122.964844 310.09375 122.867188 310.382812 122.980469 C 310.652344 123.074219 310.828125 123.347656 310.828125 123.679688 C 310.828125 123.839844 310.796875 123.984375 310.75 124.128906 C 310.414062 125.46875 310.09375 126.824219 309.855469 128.199219 C 309.664062 129.332031 309.550781 130.464844 309.503906 131.613281 C 309.503906 131.644531 309.503906 131.691406 309.503906 131.722656 C 309.503906 131.773438 309.535156 131.789062 309.566406 131.757812 C 309.601562 131.738281 309.617188 131.707031 309.648438 131.691406 C 310.046875 131.292969 310.367188 130.847656 310.683594 130.398438 C 311.449219 129.28125 312.105469 128.101562 312.742188 126.921875 C 313.238281 125.996094 313.734375 125.054688 314.210938 124.128906 C 314.226562 124.082031 314.273438 124.03125 314.257812 124 C 314.226562 123.953125 314.164062 123.984375 314.117188 124 C 313.910156 124.015625 313.699219 124.046875 313.492188 124.015625 C 313.175781 123.953125 312.949219 123.792969 312.839844 123.488281 C 312.742188 123.1875 312.808594 122.898438 313.03125 122.660156 C 313.207031 122.453125 313.445312 122.355469 313.699219 122.261719 C 314.179688 122.101562 314.675781 121.988281 315.167969 121.910156 C 315.296875 121.894531 315.359375 121.847656 315.410156 121.734375 C 315.710938 121.144531 315.933594 120.503906 316.09375 119.851562 C 316.621094 117.695312 317.324219 115.605469 318.296875 113.613281 C 318.617188 112.972656 318.949219 112.335938 319.335938 111.746094 C 319.429688 111.601562 319.507812 111.472656 319.636719 111.363281 C 319.828125 111.1875 320.085938 111.136719 320.292969 111.25 C 320.5 111.363281 320.609375 111.601562 320.5625 111.855469 C 320.53125 112.015625 320.46875 112.175781 320.417969 112.335938 C 320.035156 113.355469 319.605469 114.363281 319.191406 115.382812 C 318.375 117.347656 317.738281 119.371094 317.257812 121.429688 C 317.210938 121.621094 317.210938 121.621094 317.417969 121.605469 C 318.296875 121.511719 319.191406 121.464844 320.066406 121.464844 C 320.46875 121.464844 320.867188 121.464844 321.265625 121.398438 C 321.328125 121.382812 321.375 121.382812 321.441406 121.398438 C 321.710938 121.414062 321.917969 121.574219 321.984375 121.8125 C 322.046875 122.054688 321.949219 122.308594 321.742188 122.453125 C 321.566406 122.5625 321.375 122.613281 321.183594 122.660156 C 320.722656 122.773438 320.242188 122.820312 319.78125 122.882812 C 318.855469 123.011719 317.945312 123.171875 317.035156 123.378906 C 316.890625 123.410156 316.84375 123.472656 316.8125 123.617188 C 316.492188 125.390625 316.316406 127.175781 316.160156 128.964844 C 315.949219 131.371094 315.792969 133.78125 315.710938 136.191406 C 315.695312 136.703125 315.695312 137.214844 315.742188 137.707031 C 315.757812 137.789062 315.742188 137.867188 315.742188 137.929688 C 315.710938 138.203125 315.488281 138.394531 315.234375 138.410156 C 314.976562 138.410156 314.769531 138.25 314.722656 137.964844 C 314.660156 137.582031 314.609375 137.179688 314.59375 136.796875 C 314.546875 135.410156 314.5625 134.039062 314.578125 132.648438 C 314.609375 130.238281 314.738281 127.847656 315.058594 125.453125 C 315.105469 125.085938 315.152344 124.703125 315.21875 124.335938 C 315.28125 124.238281 315.296875 124.191406 315.28125 124.144531 Z M 315.28125 124.144531 " fill-opacity="1" fill-rule="nonzero"/></g><g clip-path="url(#44d23929a0)"><path fill="#027a85" d="M 265.859375 134.101562 C 265.84375 134.914062 265.828125 135.570312 265.828125 136.238281 C 265.828125 136.480469 265.828125 136.496094 266.066406 136.480469 C 267.167969 136.414062 268.253906 136.335938 269.339844 136.222656 C 269.53125 136.207031 269.722656 136.144531 269.898438 136.046875 C 270.183594 135.890625 270.472656 135.9375 270.628906 136.160156 C 270.789062 136.382812 270.742188 136.671875 270.519531 136.894531 C 270.28125 137.117188 269.992188 137.261719 269.6875 137.355469 C 268.890625 137.582031 268.09375 137.738281 267.28125 137.898438 C 265.988281 138.171875 264.695312 138.410156 263.386719 138.554688 C 262.890625 138.601562 262.394531 138.632812 261.917969 138.570312 C 261.710938 138.539062 261.503906 138.488281 261.328125 138.378906 C 261.039062 138.1875 260.878906 137.914062 260.894531 137.566406 C 260.929688 137.214844 261.121094 136.988281 261.4375 136.847656 C 261.628906 136.765625 261.820312 136.734375 262.03125 136.734375 C 262.90625 136.671875 263.785156 136.605469 264.664062 136.542969 C 264.855469 136.527344 264.855469 136.527344 264.839844 136.335938 C 264.535156 133.671875 264.375 130.988281 264.597656 128.324219 C 264.820312 125.390625 265.398438 122.515625 266.371094 119.722656 C 266.386719 119.675781 266.433594 119.628906 266.386719 119.578125 C 266.339844 119.53125 266.289062 119.578125 266.242188 119.578125 C 264.980469 119.867188 263.703125 120.136719 262.460938 120.457031 C 262.125 120.539062 261.839844 120.472656 261.613281 120.21875 C 261.375 119.964844 261.34375 119.644531 261.453125 119.324219 C 261.535156 119.101562 261.679688 118.925781 261.855469 118.78125 C 262.109375 118.558594 262.414062 118.414062 262.730469 118.289062 C 263.59375 117.9375 264.503906 117.746094 265.414062 117.601562 C 267.007812 117.363281 268.636719 117.21875 270.265625 117.21875 C 270.628906 117.21875 270.996094 117.234375 271.363281 117.296875 C 271.570312 117.328125 271.78125 117.394531 271.972656 117.523438 C 272.164062 117.648438 272.289062 117.824219 272.320312 118.078125 C 272.355469 118.445312 272.066406 118.765625 271.699219 118.734375 C 270.839844 118.636719 269.992188 118.828125 269.148438 118.957031 C 268.9375 118.988281 268.746094 119.039062 268.539062 119.070312 C 268.460938 119.085938 268.414062 119.117188 268.398438 119.214844 C 268.046875 120.984375 267.566406 122.707031 267.183594 124.464844 C 266.546875 127.382812 266.050781 130.335938 265.890625 133.320312 C 265.875 133.640625 265.859375 133.941406 265.859375 134.101562 Z M 265.859375 134.101562 " fill-opacity="1" fill-rule="nonzero"/></g><path fill="#027a85" d="M 301.238281 122.722656 C 302.003906 122.628906 302.882812 122.5625 303.757812 122.453125 C 303.964844 122.421875 304.15625 122.386719 304.316406 122.214844 C 304.460938 122.070312 304.652344 122.039062 304.84375 122.117188 C 305.050781 122.195312 305.164062 122.355469 305.195312 122.5625 C 305.226562 122.851562 305.132812 123.105469 304.925781 123.332031 C 304.765625 123.488281 304.574219 123.601562 304.367188 123.679688 C 304.0625 123.808594 303.742188 123.890625 303.441406 123.96875 C 302.546875 124.222656 301.636719 124.464844 300.742188 124.703125 C 300.632812 124.734375 300.582031 124.796875 300.566406 124.910156 C 300.359375 126.792969 300.183594 128.675781 300.074219 130.558594 C 300.007812 131.738281 299.929688 132.90625 299.929688 134.085938 C 299.929688 134.261719 299.929688 134.4375 299.929688 134.597656 C 299.929688 134.722656 299.960938 134.835938 300.023438 134.929688 C 300.152344 135.140625 300.121094 135.363281 299.976562 135.523438 C 299.832031 135.679688 299.578125 135.730469 299.371094 135.617188 C 299.164062 135.523438 299.035156 135.363281 298.957031 135.15625 C 298.859375 134.914062 298.828125 134.675781 298.8125 134.421875 C 298.714844 133.289062 298.699219 132.15625 298.683594 131.007812 C 298.652344 129.105469 298.667969 127.191406 298.796875 125.292969 C 298.8125 125.132812 298.796875 125.132812 298.636719 125.148438 C 298.15625 125.230469 297.664062 125.308594 297.167969 125.292969 C 296.976562 125.292969 296.769531 125.277344 296.578125 125.230469 C 296.132812 125.117188 295.859375 124.796875 295.828125 124.382812 C 295.8125 123.984375 296.050781 123.632812 296.480469 123.472656 C 296.609375 123.425781 296.753906 123.394531 296.882812 123.363281 C 297.503906 123.21875 298.140625 123.089844 298.765625 122.980469 C 299.019531 122.929688 299.019531 122.929688 299.050781 122.660156 C 299.257812 121.046875 299.578125 119.453125 300.058594 117.886719 C 300.234375 117.3125 300.425781 116.753906 300.695312 116.214844 C 300.808594 115.988281 300.933594 115.765625 301.125 115.589844 C 301.316406 115.414062 301.542969 115.304688 301.796875 115.351562 C 302.179688 115.398438 302.449219 115.78125 302.339844 116.148438 C 302.050781 117.089844 301.828125 118.046875 301.605469 118.988281 C 301.332031 120.136719 301.09375 121.289062 300.902344 122.453125 C 300.871094 122.753906 300.871094 122.753906 301.238281 122.722656 Z M 301.238281 122.722656 " fill-opacity="1" fill-rule="nonzero"/><g clip-path="url(#90039ce3be)"><path fill="#027a85" d="M 338.070312 124.144531 C 337.972656 124.175781 337.894531 124.238281 337.796875 124.304688 C 336.839844 124.988281 336.027344 125.820312 335.308594 126.746094 C 334.765625 127.449219 334.285156 128.179688 333.855469 128.949219 C 333.585938 129.425781 333.296875 129.921875 332.992188 130.382812 C 332.867188 130.574219 332.753906 130.765625 332.578125 130.910156 C 332.339844 131.132812 332.050781 131.230469 331.734375 131.101562 C 331.414062 130.972656 331.269531 130.71875 331.238281 130.398438 C 331.222656 130.207031 331.253906 130.03125 331.285156 129.839844 C 331.765625 127.574219 332.546875 125.40625 333.585938 123.332031 C 333.679688 123.136719 333.792969 122.945312 333.917969 122.773438 C 334.03125 122.628906 334.160156 122.5 334.335938 122.4375 C 334.796875 122.261719 335.261719 122.5625 335.277344 123.058594 C 335.277344 123.234375 335.242188 123.394531 335.195312 123.554688 C 334.988281 124.222656 334.75 124.878906 334.492188 125.546875 C 334.335938 125.996094 334.160156 126.441406 334 126.890625 C 333.984375 126.9375 333.96875 126.984375 333.953125 127.03125 C 334.03125 127.015625 334.046875 126.96875 334.078125 126.921875 C 334.878906 125.964844 335.753906 125.070312 336.726562 124.273438 C 336.953125 124.082031 337.175781 123.890625 337.382812 123.695312 C 337.605469 123.488281 337.859375 123.3125 338.148438 123.1875 C 338.261719 123.136719 338.355469 123.089844 338.46875 123.074219 C 338.882812 123.011719 339.203125 123.265625 339.234375 123.679688 C 339.25 123.921875 339.203125 124.160156 339.136719 124.382812 C 339.011719 124.796875 338.851562 125.195312 338.675781 125.613281 C 338.226562 126.679688 337.878906 127.78125 337.734375 128.949219 C 337.652344 129.539062 337.621094 130.144531 337.703125 130.734375 C 337.84375 131.757812 338.59375 132.425781 339.632812 132.457031 C 340.144531 132.472656 340.621094 132.378906 341.050781 132.074219 C 341.261719 131.914062 341.5 131.949219 341.644531 132.121094 C 341.785156 132.296875 341.753906 132.539062 341.5625 132.730469 C 341.101562 133.160156 340.542969 133.382812 339.9375 133.480469 C 338.929688 133.621094 338.035156 133.382812 337.253906 132.730469 C 336.679688 132.25 336.441406 131.597656 336.359375 130.878906 C 336.25 129.890625 336.394531 128.914062 336.601562 127.941406 C 336.871094 126.761719 337.320312 125.644531 337.859375 124.574219 C 337.925781 124.429688 337.988281 124.304688 338.070312 124.160156 C 338.085938 124.175781 338.070312 124.160156 338.070312 124.144531 Z M 338.070312 124.144531 " fill-opacity="1" fill-rule="nonzero"/></g><path fill="#027a85" d="M 325.285156 129.265625 C 325.285156 128.773438 325.351562 128.324219 325.476562 127.894531 C 325.84375 126.648438 326.453125 125.546875 327.34375 124.605469 C 327.632812 124.304688 327.953125 124.015625 328.316406 123.792969 C 328.542969 123.648438 328.78125 123.554688 329.035156 123.523438 C 329.53125 123.472656 329.960938 123.777344 330.027344 124.222656 C 330.058594 124.382812 330.027344 124.527344 329.914062 124.65625 C 329.867188 124.703125 329.851562 124.734375 329.929688 124.765625 C 330.726562 125.214844 331.046875 125.929688 331.109375 126.792969 C 331.144531 127.191406 331.09375 127.589844 331 127.972656 C 330.695312 129.140625 330.121094 130.144531 329.261719 130.988281 C 328.957031 131.277344 328.621094 131.53125 328.238281 131.707031 C 327.265625 132.140625 326.257812 131.835938 325.71875 130.925781 C 325.398438 130.382812 325.300781 129.824219 325.285156 129.265625 Z M 327.410156 129.265625 C 327.410156 129.425781 327.410156 129.570312 327.441406 129.730469 C 327.503906 130 327.550781 130.03125 327.808594 129.90625 C 328.015625 129.792969 328.207031 129.664062 328.382812 129.488281 C 329.003906 128.882812 329.386719 128.132812 329.578125 127.289062 C 329.644531 127 329.660156 126.695312 329.609375 126.410156 C 329.578125 126.203125 329.53125 126.011719 329.402344 125.851562 C 329.210938 125.613281 328.925781 125.597656 328.734375 125.835938 C 328.574219 126.042969 328.414062 126.25 328.285156 126.472656 C 327.96875 127.03125 327.726562 127.65625 327.566406 128.277344 C 327.472656 128.597656 327.425781 128.929688 327.410156 129.265625 Z M 327.410156 129.265625 " fill-opacity="1" fill-rule="nonzero"/><path fill="#027a85" d="M 293.976562 124.558594 C 293.738281 127.382812 293.53125 130.273438 293.164062 133.128906 C 293.148438 133.257812 293.132812 133.367188 293.082031 133.496094 C 292.875 134.023438 292.222656 134.132812 291.871094 133.6875 C 291.742188 133.527344 291.679688 133.351562 291.632812 133.160156 C 291.535156 132.746094 291.503906 132.3125 291.472656 131.882812 C 291.328125 129.378906 291.648438 126.90625 292.238281 124.480469 C 292.300781 124.191406 292.398438 123.90625 292.523438 123.617188 C 292.605469 123.441406 292.683594 123.28125 292.8125 123.15625 C 293.019531 122.964844 293.257812 122.867188 293.53125 122.945312 C 293.816406 123.027344 293.945312 123.25 293.992188 123.523438 C 294.039062 123.839844 293.992188 124.175781 293.976562 124.558594 Z M 293.976562 124.558594 " fill-opacity="1" fill-rule="nonzero"/><path fill="#027a85" d="M 320.914062 131.246094 C 320.929688 128.914062 321.457031 126.695312 322.300781 124.558594 C 322.460938 124.160156 322.621094 123.746094 322.828125 123.363281 C 322.957031 123.121094 323.101562 122.882812 323.292969 122.691406 C 323.433594 122.546875 323.609375 122.4375 323.800781 122.40625 C 324.152344 122.339844 324.472656 122.597656 324.472656 122.945312 C 324.472656 123.058594 324.457031 123.15625 324.425781 123.265625 C 323.867188 125.597656 323.324219 127.925781 322.8125 130.273438 C 322.636719 131.039062 322.460938 131.820312 322.382812 132.601562 C 322.367188 132.699219 322.367188 132.777344 322.398438 132.871094 C 322.527344 133.175781 322.476562 133.414062 322.253906 133.605469 C 322.046875 133.796875 321.726562 133.832031 321.457031 133.703125 C 321.234375 133.589844 321.121094 133.398438 321.042969 133.175781 C 320.960938 132.96875 320.945312 132.746094 320.914062 132.523438 C 320.898438 132.089844 320.914062 131.660156 320.914062 131.246094 Z M 320.914062 131.246094 " fill-opacity="1" fill-rule="nonzero"/><path fill="#027a85" d="M 293.449219 121 C 292.957031 121 292.539062 120.585938 292.539062 120.089844 C 292.539062 119.613281 292.921875 119.230469 293.402344 119.230469 C 293.898438 119.230469 294.3125 119.660156 294.3125 120.171875 C 294.296875 120.632812 293.914062 121 293.449219 121 Z M 293.449219 121 " fill-opacity="1" fill-rule="nonzero"/><path fill="#027a85" d="M 325.125 119.039062 C 325.125 119.578125 324.664062 119.914062 324.136719 119.738281 C 323.753906 119.597656 323.484375 119.230469 323.515625 118.8125 C 323.546875 118.304688 324.007812 117.984375 324.488281 118.144531 C 324.871094 118.273438 325.125 118.621094 325.125 119.039062 Z M 325.125 119.039062 " fill-opacity="1" fill-rule="nonzero"/><g clip-path="url(#2f4b8c1c79)"><path fill="#e7bdd1" d="M 363.257812 187.355469 C 363.257812 190.324219 363.1875 193.292969 363.039062 196.261719 C 362.894531 199.226562 362.675781 202.1875 362.382812 205.144531 C 362.09375 208.101562 361.730469 211.046875 361.292969 213.984375 C 360.855469 216.921875 360.347656 219.847656 359.769531 222.761719 C 359.1875 225.675781 358.539062 228.574219 357.816406 231.453125 C 357.09375 234.335938 356.300781 237.195312 355.4375 240.039062 C 354.574219 242.882812 353.644531 245.699219 352.640625 248.496094 C 351.640625 251.292969 350.570312 254.0625 349.433594 256.808594 C 348.296875 259.550781 347.089844 262.265625 345.820312 264.953125 C 344.550781 267.636719 343.214844 270.289062 341.8125 272.910156 C 340.410156 275.527344 338.945312 278.113281 337.417969 280.660156 C 335.890625 283.207031 334.300781 285.714844 332.648438 288.1875 C 330.996094 290.65625 329.285156 293.082031 327.515625 295.46875 C 325.746094 297.855469 323.917969 300.195312 322.03125 302.492188 C 320.144531 304.789062 318.203125 307.035156 316.207031 309.234375 C 314.210938 311.4375 312.164062 313.585938 310.0625 315.6875 C 307.957031 317.789062 305.804688 319.835938 303.605469 321.832031 C 301.402344 323.824219 299.152344 325.765625 296.855469 327.648438 C 294.554688 329.53125 292.214844 331.359375 289.824219 333.128906 C 287.4375 334.898438 285.007812 336.609375 282.535156 338.257812 C 280.066406 339.910156 277.554688 341.496094 275.003906 343.023438 C 272.457031 344.550781 269.871094 346.015625 267.25 347.414062 C 264.625 348.816406 261.972656 350.148438 259.285156 351.421875 C 256.597656 352.691406 253.882812 353.894531 251.136719 355.03125 C 248.390625 356.167969 245.617188 357.234375 242.816406 358.234375 C 240.019531 359.238281 237.199219 360.167969 234.351562 361.03125 C 231.507812 361.890625 228.644531 362.683594 225.761719 363.40625 C 222.878906 364.128906 219.976562 364.777344 217.0625 365.359375 C 214.148438 365.9375 211.21875 366.445312 208.277344 366.878906 C 205.339844 367.316406 202.390625 367.679688 199.429688 367.972656 C 196.472656 368.261719 193.507812 368.480469 190.539062 368.625 C 187.570312 368.773438 184.601562 368.84375 181.628906 368.84375 C 178.65625 368.84375 175.683594 368.773438 172.714844 368.625 C 169.746094 368.480469 166.785156 368.261719 163.824219 367.972656 C 160.867188 367.679688 157.917969 367.316406 154.976562 366.878906 C 152.039062 366.445312 149.109375 365.9375 146.195312 365.359375 C 143.277344 364.777344 140.378906 364.128906 137.496094 363.40625 C 134.613281 362.683594 131.75 361.890625 128.902344 361.03125 C 126.058594 360.167969 123.238281 359.238281 120.4375 358.234375 C 117.640625 357.234375 114.867188 356.167969 112.121094 355.03125 C 109.375 353.894531 106.660156 352.691406 103.972656 351.421875 C 101.285156 350.148438 98.628906 348.816406 96.007812 347.414062 C 93.386719 346.015625 90.800781 344.550781 88.25 343.023438 C 85.703125 341.496094 83.191406 339.910156 80.71875 338.257812 C 78.25 336.609375 75.820312 334.898438 73.429688 333.128906 C 71.042969 331.359375 68.703125 329.53125 66.402344 327.648438 C 64.105469 325.765625 61.855469 323.824219 59.652344 321.832031 C 57.449219 319.835938 55.296875 317.789062 53.195312 315.6875 C 51.09375 313.585938 49.046875 311.4375 47.050781 309.234375 C 45.054688 307.035156 43.113281 304.789062 41.226562 302.492188 C 39.339844 300.195312 37.511719 297.855469 35.742188 295.46875 C 33.972656 293.082031 32.261719 290.65625 30.609375 288.1875 C 28.957031 285.714844 27.367188 283.207031 25.839844 280.660156 C 24.3125 278.113281 22.847656 275.527344 21.445312 272.910156 C 20.042969 270.289062 18.707031 267.636719 17.4375 264.953125 C 16.164062 262.265625 14.960938 259.550781 13.824219 256.808594 C 12.6875 254.0625 11.617188 251.292969 10.617188 248.496094 C 9.613281 245.699219 8.683594 242.882812 7.820312 240.039062 C 6.957031 237.195312 6.164062 234.335938 5.441406 231.453125 C 4.71875 228.574219 4.066406 225.675781 3.488281 222.761719 C 2.910156 219.847656 2.398438 216.921875 1.964844 213.984375 C 1.527344 211.046875 1.164062 208.101562 0.871094 205.144531 C 0.582031 202.1875 0.363281 199.226562 0.21875 196.261719 C 0.0703125 193.292969 0 190.324219 0 187.355469 C 0 184.386719 0.0703125 181.417969 0.21875 178.449219 C 0.363281 175.484375 0.582031 172.523438 0.871094 169.566406 C 1.164062 166.609375 1.527344 163.664062 1.964844 160.726562 C 2.398438 157.789062 2.910156 154.863281 3.488281 151.949219 C 4.066406 149.035156 4.71875 146.136719 5.441406 143.257812 C 6.164062 140.375 6.957031 137.515625 7.820312 134.671875 C 8.683594 131.828125 9.613281 129.011719 10.617188 126.214844 C 11.617188 123.417969 12.6875 120.644531 13.824219 117.902344 C 14.960938 115.15625 16.164062 112.445312 17.4375 109.757812 C 18.707031 107.074219 20.042969 104.421875 21.445312 101.800781 C 22.847656 99.183594 24.3125 96.597656 25.839844 94.050781 C 27.367188 91.503906 28.957031 88.996094 30.609375 86.523438 C 32.261719 84.054688 33.972656 81.628906 35.742188 79.242188 C 37.511719 76.855469 39.339844 74.515625 41.226562 72.21875 C 43.113281 69.921875 45.054688 67.675781 47.050781 65.472656 C 49.046875 63.273438 51.09375 61.121094 53.195312 59.023438 C 55.296875 56.921875 57.449219 54.875 59.652344 52.878906 C 61.855469 50.886719 64.105469 48.945312 66.402344 47.0625 C 68.703125 45.175781 71.042969 43.351562 73.429688 41.582031 C 75.820312 39.8125 78.25 38.101562 80.71875 36.453125 C 83.191406 34.800781 85.703125 33.214844 88.25 31.6875 C 90.800781 30.160156 93.386719 28.695312 96.007812 27.296875 C 98.628906 25.894531 101.285156 24.558594 103.972656 23.289062 C 106.660156 22.019531 109.375 20.816406 112.121094 19.679688 C 114.867188 18.542969 117.640625 17.476562 120.4375 16.476562 C 123.238281 15.472656 126.058594 14.542969 128.902344 13.679688 C 131.75 12.816406 134.613281 12.027344 137.496094 11.304688 C 140.378906 10.582031 143.277344 9.933594 146.195312 9.351562 C 149.109375 8.773438 152.039062 8.265625 154.976562 7.828125 C 157.917969 7.394531 160.867188 7.03125 163.824219 6.738281 C 166.785156 6.449219 169.746094 6.230469 172.714844 6.085938 C 175.683594 5.9375 178.65625 5.867188 181.628906 5.867188 C 184.601562 5.867188 187.570312 5.9375 190.539062 6.085938 C 193.507812 6.230469 196.472656 6.449219 199.429688 6.738281 C 202.390625 7.03125 205.339844 7.394531 208.277344 7.828125 C 211.21875 8.265625 214.148438 8.773438 217.0625 9.351562 C 219.976562 9.933594 222.878906 10.582031 225.761719 11.304688 C 228.644531 12.027344 231.507812 12.816406 234.351562 13.679688 C 237.199219 14.542969 240.019531 15.472656 242.816406 16.476562 C 245.617188 17.476562 248.390625 18.542969 251.136719 19.679688 C 253.882812 20.816406 256.597656 22.019531 259.285156 23.289062 C 261.972656 24.558594 264.625 25.894531 267.25 27.296875 C 269.871094 28.695312 272.457031 30.160156 275.003906 31.6875 C 277.554688 33.214844 280.066406 34.800781 282.535156 36.453125 C 285.007812 38.101562 287.4375 39.8125 289.824219 41.582031 C 292.214844 43.351562 294.554688 45.175781 296.855469 47.0625 C 299.152344 48.945312 301.402344 50.886719 303.605469 52.878906 C 305.804688 54.875 307.957031 56.921875 310.0625 59.023438 C 312.164062 61.121094 314.210938 63.273438 316.207031 65.472656 C 318.203125 67.675781 320.144531 69.921875 322.03125 72.21875 C 323.917969 74.515625 325.746094 76.855469 327.515625 79.242188 C 329.285156 81.628906 330.996094 84.054688 332.648438 86.523438 C 334.300781 88.996094 335.890625 91.503906 337.417969 94.050781 C 338.945312 96.597656 340.410156 99.183594 341.8125 101.800781 C 343.214844 104.421875 344.550781 107.074219 345.820312 109.757812 C 347.089844 112.445312 348.296875 115.15625 349.433594 117.902344 C 350.570312 120.644531 351.640625 123.417969 352.640625 126.214844 C 353.644531 129.011719 354.574219 131.828125 355.4375 134.671875 C 356.300781 137.515625 357.09375 140.375 357.816406 143.257812 C 358.539062 146.136719 359.1875 149.035156 359.769531 151.949219 C 360.347656 154.863281 360.855469 157.789062 361.292969 160.726562 C 361.730469 163.664062 362.09375 166.609375 362.382812 169.566406 C 362.675781 172.523438 362.894531 175.484375 363.039062 178.449219 C 363.1875 181.417969 363.257812 184.386719 363.257812 187.355469 Z M 363.257812 187.355469 " fill-opacity="1" fill-rule="nonzero"/></g><g clip-path="url(#ea07b7f5cf)"><path fill="#ff8256" d="M 181.628906 368.84375 C 233.347656 368.84375 280.019531 347.242188 313.101562 312.578125 C 293.667969 288.351562 263.996094 272.640625 230.453125 272.332031 C 229.886719 272.324219 229.320312 272.324219 228.746094 272.324219 L 177.796875 272.324219 C 161.96875 272.324219 148.179688 274.285156 136.011719 277.855469 C 107.414062 286.246094 85.617188 307.96875 75.875 334.921875 C 105.660156 356.273438 142.175781 368.84375 181.628906 368.84375 Z M 181.628906 368.84375 " fill-opacity="1" fill-rule="nonzero"/></g><path fill="#ff8256" d="M 211.117188 284.867188 C 211.117188 299.363281 161.066406 301.796875 161.066406 284.867188 L 161.066406 244.855469 L 211.117188 244.855469 Z M 211.117188 284.867188 " fill-opacity="1" fill-rule="nonzero"/><path fill="#80314f" d="M 197.242188 227.777344 L 215.390625 230.558594 L 232.878906 233.234375 C 246.453125 235.3125 259.144531 226.003906 261.222656 212.4375 L 268.960938 161.980469 L 208.746094 152.757812 Z M 197.242188 227.777344 " fill-opacity="1" fill-rule="nonzero"/><path fill="#ff8256" d="M 196.800781 254.597656 C 180.476562 255.164062 164.011719 252.585938 149.25 247.5 C 130.679688 241.105469 119.3125 222.394531 122.289062 202.996094 L 132.09375 139.050781 C 134.800781 121.390625 151.324219 109.265625 169 111.972656 L 218.363281 119.53125 C 236.039062 122.238281 248.171875 138.75 245.460938 156.410156 L 235.675781 220.210938 C 232.710938 239.539062 216.359375 253.917969 196.800781 254.597656 Z M 196.800781 254.597656 " fill-opacity="1" fill-rule="nonzero"/><path fill="#541a30" d="M 189.972656 256.726562 C 189.964844 256.726562 189.960938 256.726562 189.953125 256.726562 C 180.304688 256.5625 170.625 255.34375 161.183594 253.109375 C 160.613281 252.976562 160.257812 252.402344 160.394531 251.832031 C 160.527344 251.261719 161.101562 250.90625 161.671875 251.042969 C 170.964844 253.242188 180.492188 254.441406 189.988281 254.601562 C 190.578125 254.613281 191.042969 255.097656 191.035156 255.683594 C 191.023438 256.261719 190.550781 256.726562 189.972656 256.726562 Z M 189.972656 256.726562 " fill-opacity="1" fill-rule="nonzero"/><path fill="#541a30" d="M 197.226562 256.648438 C 196.660156 256.648438 196.1875 256.199219 196.164062 255.628906 C 196.140625 255.039062 196.597656 254.546875 197.183594 254.523438 C 200.640625 254.386719 206.503906 252.953125 209.992188 251.386719 C 210.527344 251.148438 211.160156 251.386719 211.398438 251.921875 C 211.640625 252.457031 211.398438 253.085938 210.863281 253.328125 C 207.105469 255.011719 201.007812 256.5 197.269531 256.648438 C 197.253906 256.648438 197.242188 256.648438 197.226562 256.648438 Z M 197.226562 256.648438 " fill-opacity="1" fill-rule="nonzero"/><path fill="#541a30" d="M 156.863281 170.878906 C 156.863281 171.378906 156.8125 171.871094 156.714844 172.363281 C 156.617188 172.851562 156.472656 173.328125 156.28125 173.789062 C 156.089844 174.25 155.855469 174.691406 155.578125 175.105469 C 155.300781 175.519531 154.984375 175.90625 154.632812 176.257812 C 154.277344 176.613281 153.894531 176.929688 153.476562 177.207031 C 153.0625 177.484375 152.621094 177.71875 152.160156 177.910156 C 151.699219 178.101562 151.222656 178.246094 150.730469 178.34375 C 150.242188 178.441406 149.746094 178.488281 149.246094 178.488281 C 148.746094 178.488281 148.25 178.441406 147.761719 178.34375 C 147.269531 178.246094 146.792969 178.101562 146.332031 177.910156 C 145.867188 177.71875 145.429688 177.484375 145.015625 177.207031 C 144.597656 176.929688 144.214844 176.613281 143.859375 176.257812 C 143.507812 175.90625 143.191406 175.519531 142.914062 175.105469 C 142.636719 174.691406 142.398438 174.25 142.207031 173.789062 C 142.015625 173.328125 141.871094 172.851562 141.777344 172.363281 C 141.679688 171.871094 141.628906 171.378906 141.628906 170.878906 C 141.628906 170.378906 141.679688 169.882812 141.777344 169.394531 C 141.871094 168.902344 142.015625 168.425781 142.207031 167.964844 C 142.398438 167.503906 142.636719 167.066406 142.914062 166.648438 C 143.191406 166.234375 143.507812 165.847656 143.859375 165.496094 C 144.214844 165.140625 144.597656 164.828125 145.015625 164.550781 C 145.429688 164.269531 145.867188 164.035156 146.332031 163.847656 C 146.792969 163.65625 147.269531 163.511719 147.761719 163.414062 C 148.25 163.316406 148.746094 163.265625 149.246094 163.265625 C 149.746094 163.265625 150.242188 163.316406 150.730469 163.414062 C 151.222656 163.511719 151.699219 163.65625 152.160156 163.847656 C 152.621094 164.035156 153.0625 164.269531 153.476562 164.550781 C 153.894531 164.828125 154.277344 165.140625 154.632812 165.496094 C 154.984375 165.847656 155.300781 166.234375 155.578125 166.648438 C 155.855469 167.066406 156.089844 167.503906 156.28125 167.964844 C 156.472656 168.425781 156.617188 168.902344 156.714844 169.394531 C 156.8125 169.882812 156.863281 170.378906 156.863281 170.878906 Z M 156.863281 170.878906 " fill-opacity="1" fill-rule="nonzero"/><path fill="#541a30" d="M 203.109375 178.011719 C 203.109375 178.511719 203.058594 179.003906 202.964844 179.496094 C 202.867188 179.984375 202.722656 180.460938 202.53125 180.921875 C 202.339844 181.386719 202.101562 181.824219 201.824219 182.238281 C 201.546875 182.65625 201.230469 183.039062 200.878906 183.390625 C 200.523438 183.746094 200.140625 184.0625 199.722656 184.339844 C 199.308594 184.617188 198.871094 184.851562 198.40625 185.042969 C 197.945312 185.234375 197.46875 185.378906 196.976562 185.476562 C 196.488281 185.574219 195.992188 185.621094 195.492188 185.621094 C 194.992188 185.621094 194.496094 185.574219 194.007812 185.476562 C 193.515625 185.378906 193.039062 185.234375 192.578125 185.042969 C 192.117188 184.851562 191.675781 184.617188 191.261719 184.339844 C 190.84375 184.0625 190.460938 183.746094 190.105469 183.390625 C 189.753906 183.039062 189.4375 182.65625 189.160156 182.238281 C 188.882812 181.824219 188.648438 181.386719 188.457031 180.921875 C 188.265625 180.460938 188.121094 179.984375 188.023438 179.496094 C 187.925781 179.003906 187.875 178.511719 187.875 178.011719 C 187.875 177.511719 187.925781 177.015625 188.023438 176.527344 C 188.121094 176.035156 188.265625 175.558594 188.457031 175.097656 C 188.648438 174.636719 188.882812 174.199219 189.160156 173.78125 C 189.4375 173.367188 189.753906 172.980469 190.105469 172.628906 C 190.460938 172.277344 190.84375 171.960938 191.261719 171.683594 C 191.675781 171.40625 192.117188 171.171875 192.578125 170.980469 C 193.039062 170.789062 193.515625 170.644531 194.007812 170.546875 C 194.496094 170.449219 194.992188 170.398438 195.492188 170.398438 C 195.992188 170.398438 196.488281 170.449219 196.976562 170.546875 C 197.46875 170.644531 197.945312 170.789062 198.40625 170.980469 C 198.871094 171.171875 199.308594 171.40625 199.722656 171.683594 C 200.140625 171.960938 200.523438 172.277344 200.878906 172.628906 C 201.230469 172.980469 201.546875 173.367188 201.824219 173.78125 C 202.101562 174.199219 202.339844 174.636719 202.53125 175.097656 C 202.722656 175.558594 202.867188 176.035156 202.964844 176.527344 C 203.058594 177.015625 203.109375 177.511719 203.109375 178.011719 Z M 203.109375 178.011719 " fill-opacity="1" fill-rule="nonzero"/><path fill="#c94126" d="M 196.625 200.867188 C 196.40625 200.867188 196.1875 200.800781 195.996094 200.667969 C 195.496094 200.316406 195.378906 199.632812 195.726562 199.136719 L 200.679688 192.078125 C 201.03125 191.582031 201.714844 191.460938 202.214844 191.8125 C 202.710938 192.160156 202.832031 192.84375 202.480469 193.34375 L 197.527344 200.398438 C 197.3125 200.703125 196.972656 200.867188 196.625 200.867188 Z M 196.625 200.867188 " fill-opacity="1" fill-rule="nonzero"/><path fill="#c94126" d="M 201.347656 201.59375 C 201.128906 201.59375 200.910156 201.53125 200.71875 201.394531 C 200.21875 201.046875 200.097656 200.359375 200.449219 199.863281 L 205.402344 192.808594 C 205.753906 192.3125 206.4375 192.191406 206.9375 192.539062 C 207.433594 192.886719 207.554688 193.574219 207.203125 194.070312 L 202.25 201.125 C 202.035156 201.429688 201.695312 201.59375 201.347656 201.59375 Z M 201.347656 201.59375 " fill-opacity="1" fill-rule="nonzero"/><path fill="#c94126" d="M 206.070312 202.324219 C 205.851562 202.324219 205.632812 202.257812 205.441406 202.125 C 204.941406 201.773438 204.820312 201.089844 205.171875 200.59375 L 210.125 193.535156 C 210.476562 193.039062 211.160156 192.917969 211.660156 193.269531 C 212.15625 193.617188 212.277344 194.300781 211.925781 194.800781 L 206.972656 201.855469 C 206.757812 202.160156 206.417969 202.324219 206.070312 202.324219 Z M 206.070312 202.324219 " fill-opacity="1" fill-rule="nonzero"/><path fill="#c94126" d="M 144.257812 192.789062 C 143.789062 192.789062 143.355469 192.488281 143.207031 192.019531 L 140.613281 183.800781 C 140.429688 183.21875 140.753906 182.601562 141.332031 182.421875 C 141.910156 182.238281 142.53125 182.558594 142.710938 183.136719 L 145.308594 191.359375 C 145.488281 191.9375 145.167969 192.554688 144.589844 192.738281 C 144.480469 192.773438 144.367188 192.789062 144.257812 192.789062 Z M 144.257812 192.789062 " fill-opacity="1" fill-rule="nonzero"/><path fill="#c94126" d="M 139.535156 192.0625 C 139.066406 192.0625 138.632812 191.761719 138.484375 191.292969 L 135.890625 183.070312 C 135.707031 182.492188 136.03125 181.875 136.609375 181.691406 C 137.1875 181.507812 137.808594 181.832031 137.988281 182.410156 L 140.585938 190.628906 C 140.769531 191.210938 140.445312 191.828125 139.867188 192.007812 C 139.757812 192.042969 139.644531 192.0625 139.535156 192.0625 Z M 139.535156 192.0625 " fill-opacity="1" fill-rule="nonzero"/><path fill="#c94126" d="M 134.8125 191.332031 C 134.34375 191.332031 133.910156 191.03125 133.765625 190.5625 L 131.167969 182.34375 C 130.984375 181.765625 131.308594 181.144531 131.886719 180.964844 C 132.464844 180.78125 133.085938 181.101562 133.265625 181.679688 L 135.863281 189.902344 C 136.046875 190.480469 135.722656 191.097656 135.144531 191.28125 C 135.035156 191.316406 134.921875 191.332031 134.8125 191.332031 Z M 134.8125 191.332031 " fill-opacity="1" fill-rule="nonzero"/><path fill="#80314f" d="M 210.15625 164.121094 L 187.203125 160.582031 C 184.375 160.144531 182.4375 157.5 182.871094 154.675781 C 183.308594 151.847656 185.957031 149.910156 188.785156 150.347656 L 211.738281 153.886719 C 214.566406 154.324219 216.503906 156.96875 216.070312 159.796875 C 215.632812 162.621094 212.984375 164.558594 210.15625 164.121094 Z M 210.15625 164.121094 " fill-opacity="1" fill-rule="nonzero"/><path fill="#80314f" d="M 157.304688 163.699219 L 136.710938 152.964844 C 134.175781 151.640625 133.191406 148.515625 134.515625 145.980469 C 135.835938 143.445312 138.96875 142.460938 141.503906 143.78125 L 162.097656 154.515625 C 164.636719 155.839844 165.617188 158.964844 164.296875 161.5 C 162.972656 164.035156 159.84375 165.019531 157.304688 163.699219 Z M 157.304688 163.699219 " fill-opacity="1" fill-rule="nonzero"/><path fill="#541a30" d="M 171.078125 203.511719 C 171.023438 203.511719 170.96875 203.507812 170.914062 203.496094 L 161.347656 202.023438 C 161.070312 201.980469 160.820312 201.828125 160.652344 201.601562 C 160.488281 201.375 160.417969 201.089844 160.460938 200.8125 C 162.511719 187.527344 168.734375 176.410156 168.996094 175.941406 C 169.285156 175.433594 169.933594 175.253906 170.445312 175.539062 C 170.957031 175.828125 171.136719 176.476562 170.851562 176.988281 C 170.789062 177.097656 164.886719 187.648438 162.734375 200.085938 L 171.238281 201.398438 C 171.816406 201.488281 172.214844 202.03125 172.125 202.609375 C 172.042969 203.136719 171.59375 203.511719 171.078125 203.511719 Z M 171.078125 203.511719 " fill-opacity="1" fill-rule="nonzero"/><path fill="#541a30" d="M 168.144531 215.113281 C 167.664062 215.113281 167.230469 214.785156 167.113281 214.296875 C 166.976562 213.726562 167.328125 213.152344 167.898438 213.015625 C 172.59375 211.890625 177.425781 211.34375 182.242188 211.402344 C 182.828125 211.40625 183.300781 211.890625 183.292969 212.476562 C 183.285156 213.058594 182.8125 213.527344 182.230469 213.527344 C 182.226562 213.527344 182.222656 213.527344 182.21875 213.527344 C 177.570312 213.472656 172.921875 213.996094 168.394531 215.082031 C 168.3125 215.101562 168.226562 215.113281 168.144531 215.113281 Z M 168.144531 215.113281 " fill-opacity="1" fill-rule="nonzero"/><path fill="#ff8256" d="M 254.132812 174.382812 L 242.96875 172.671875 L 242.429688 176.179688 L 237.527344 208.152344 L 236.988281 211.65625 L 248.15625 213.367188 C 258.929688 215.019531 269.003906 207.625 270.65625 196.859375 C 272.308594 186.09375 264.910156 176.03125 254.132812 174.382812 Z M 254.132812 174.382812 " fill-opacity="1" fill-rule="nonzero"/><path fill="#b82e1c" d="M 252.714844 184 C 258.171875 184.808594 261.957031 189.894531 261.152344 195.347656 C 260.34375 200.796875 255.25 204.578125 249.792969 203.773438 L 248.082031 203.519531 L 251.007812 183.75 L 252.714844 184 " fill-opacity="1" fill-rule="nonzero"/><path fill="#541a30" d="M 251.261719 204.929688 C 250.726562 204.929688 250.183594 204.890625 249.636719 204.808594 L 247.929688 204.554688 C 247.355469 204.472656 246.960938 203.941406 247.046875 203.367188 C 247.128906 202.796875 247.664062 202.402344 248.234375 202.484375 L 249.945312 202.738281 C 252.308594 203.085938 254.667969 202.492188 256.589844 201.066406 C 258.515625 199.640625 259.765625 197.554688 260.113281 195.191406 C 260.835938 190.3125 257.449219 185.757812 252.5625 185.035156 C 252.5625 185.035156 252.5625 185.035156 252.558594 185.035156 L 250.851562 184.785156 C 250.28125 184.699219 249.886719 184.167969 249.96875 183.597656 C 250.054688 183.023438 250.585938 182.628906 251.160156 182.714844 L 252.867188 182.964844 C 252.871094 182.964844 252.871094 182.964844 252.871094 182.964844 C 258.898438 183.859375 263.078125 189.480469 262.1875 195.5 C 261.375 200.976562 256.644531 204.929688 251.261719 204.929688 Z M 251.261719 204.929688 " fill-opacity="1" fill-rule="nonzero"/><path fill="#80314f" d="M 254.09375 110.234375 L 249.789062 109.578125 C 251.1875 95.214844 241.152344 82.09375 226.699219 79.878906 L 187.390625 73.859375 C 156.199219 69.085938 144.609375 94.371094 137.824219 93.332031 C 134.46875 91.785156 132.414062 88.148438 133.054688 84.328125 L 134.449219 76.003906 C 120.953125 73.9375 107.894531 86.070312 105.828125 99.558594 L 105.613281 100.941406 C 102.859375 118.914062 115.207031 135.71875 133.191406 138.472656 C 134.871094 127.519531 150.511719 111.585938 174.558594 115.269531 L 218.699219 122.027344 C 229.140625 123.625 236.304688 133.378906 234.707031 143.808594 L 233.230469 153.441406 C 231.644531 163.777344 238.746094 173.441406 249.089844 175.027344 L 266.550781 177.699219 L 272.960938 135.910156 C 274.84375 123.613281 266.398438 112.121094 254.09375 110.234375 Z M 254.09375 110.234375 " fill-opacity="1" fill-rule="nonzero"/><g clip-path="url(#d4f60cbdc1)"><path fill="#9fb3de" d="M 181.628906 368.84375 C 236.351562 368.84375 285.417969 344.664062 318.71875 306.414062 C 309.441406 296.355469 297.910156 288.085938 285.640625 282.191406 C 267.675781 273.554688 240.695312 271.398438 212.820312 271.398438 C 212.820312 271.398438 212.996094 292.402344 183.726562 292.402344 C 154.460938 292.402344 157.59375 272.441406 157.59375 272.441406 C 140.070312 274.367188 102.894531 282.835938 91.527344 289.179688 C 87.972656 291.167969 84.71875 293.335938 81.773438 295.667969 C 71.816406 302.308594 64.144531 312.128906 59.125 321.347656 C 91.421875 350.847656 134.421875 368.84375 181.628906 368.84375 Z M 181.628906 368.84375 " fill-opacity="1" fill-rule="nonzero"/></g><path fill="#7f95c9" d="M 321.574219 151.777344 C 314.65625 151.777344 308.949219 154.066406 304.453125 158.644531 C 299.957031 163.222656 297.710938 168.96875 297.710938 175.878906 C 297.710938 182.445312 299.957031 188.058594 304.453125 192.722656 C 308.949219 197.386719 314.65625 199.722656 321.574219 199.722656 C 328.488281 199.722656 334.152344 197.386719 338.5625 192.722656 C 342.96875 188.058594 345.175781 182.445312 345.175781 175.878906 C 345.175781 168.96875 342.96875 163.222656 338.5625 158.644531 C 334.152344 154.066406 328.488281 151.777344 321.574219 151.777344 Z M 321.574219 151.777344 " fill-opacity="1" fill-rule="nonzero"/><g clip-path="url(#fd8da1060a)"><path fill="#7f95c9" d="M 367.738281 31.910156 C 362.898438 23.878906 356.199219 17.527344 347.640625 12.863281 C 339.078125 8.199219 329.09375 5.867188 317.683594 5.867188 C 304.019531 5.867188 292.265625 9.019531 282.410156 15.324219 C 272.554688 21.632812 265.03125 29.882812 259.84375 40.074219 L 285.519531 64.179688 C 288.804688 57.789062 293.082031 52.691406 298.359375 48.886719 C 303.632812 45.089844 309.382812 43.1875 315.609375 43.1875 C 319.925781 43.1875 323.601562 43.964844 326.628906 45.519531 C 329.652344 47.074219 332.03125 49.234375 333.761719 51.996094 C 335.488281 54.761719 336.355469 58.132812 336.355469 62.105469 C 336.355469 65.90625 335.488281 69.234375 333.761719 72.082031 C 332.03125 74.933594 329.523438 77.136719 326.242188 78.691406 C 322.957031 80.246094 319.148438 81.023438 314.828125 81.023438 L 303.675781 81.023438 L 305.753906 130.523438 L 337.136719 130.523438 L 338.769531 109.625 C 343.492188 107.914062 347.925781 105.734375 352.046875 103.054688 C 359.222656 98.386719 364.84375 92.472656 368.90625 85.300781 C 372.96875 78.132812 375 69.363281 375 58.996094 C 375 48.976562 372.578125 39.945312 367.738281 31.910156 Z M 367.738281 31.910156 " fill-opacity="1" fill-rule="nonzero"/></g></svg>